<svg xmlns="http://www.w3.org/2000/svg" viewBox="0 0 512 512">
  <path fill="#1500f9" d="m321.06 46.31 5.73 3.09c4.63 2.5 9.26 4.92 13.96 7.42 5.58 3.01 11.17 5.95 16.75 8.96l14.54 7.71c1.62.89 3.24 1.7 4.85 2.58.74.43 1.5.82 2.28 1.17.04 0 .07.03.07.07a.56.56 0 0 0 .83-.49.56.56 0 0 0-.24-.46l-5.73-3.09c-4.63-2.5-9.26-4.92-13.96-7.42-5.58-3-11.16-5.95-16.74-8.96l-14.55-7.71c-1.62-.88-3.23-1.69-4.85-2.57-.73-.44-1.5-.83-2.27-1.18a.07.07 0 0 1-.08-.07c-.66-.3-1.25.66-.59.95Z"/>
  <path fill="#b7e5e4" d="m439.11 57.26-9.26 5.95v24.46l9.26-6.1v-24.3Z"/>
  <path fill="#142145" d="M438.82 56.82c-2.13 1.4-4.34 2.8-6.47 4.19-.88.58-1.9 1.1-2.72 1.76-.44.37-.29.73-.29 1.25v23.82a.52.52 0 0 0 .8.42c2.14-1.4 4.27-2.87 6.4-4.26.88-.59 1.9-1.18 2.72-1.84.44-.36.37-.66.37-1.17V57.33a.55.55 0 0 0-1.11 0v24.24c.07-.16.17-.3.3-.44l-9.26 6.17c.28.14.55.28.8.44V63.28c-.06.17-.16.32-.28.44l9.25-5.95a.52.52 0 0 0 .29-.47.55.55 0 0 0-.8-.48Z"/>
  <path fill="#b7e5e4" d="M405.54 124.1V58.59l4.7-8.45v70.01"/>
  <path fill="#142145" d="M406.13 124.1V58.67s-.15.29-.08.22c.3-.35.52-.75.67-1.18.36-.73.8-1.4 1.17-2.13.8-1.4 1.62-2.86 2.35-4.26.15-.3.3-.51.44-.8-.36-.08-.66-.23-1.03-.3v70c0 .3.25.56.56.56.3 0 .55-.25.55-.56V53.66c0-1.1.07-2.2 0-3.3v-.15a.57.57 0 0 0-1.03-.3c-1.33 2.43-2.65 4.78-3.97 7.2a5 5 0 0 0-.73 1.55c-.04.34-.04.68 0 1.03v64.49c0 .59 1.1.59 1.1-.07Z"/>
  <path fill="#b7e5e4" d="M398.05 128.15V65.12l-4.7 8.37V133"/>
  <path fill="#142145" d="M398.63 128.15V67.98c0-.88.08-1.83 0-2.79v-.14a.57.57 0 0 0-1.03-.3c-1.24 2.2-2.42 4.41-3.67 6.61a8 8 0 0 0-1.1 2.06c-.03.24-.03.5 0 .74v58.69c0 .3.25.55.55.55.3 0 .55-.25.55-.55V73.42c0-.15-.14.37-.07.22.09-.11.16-.23.22-.37 1.4-2.42 2.72-4.92 4.12-7.34.16-.22.29-.47.36-.74-.36-.07-.66-.22-1.03-.29v62.95c0 .96 1.1.96 1.1.3Z"/>
  <path fill="#9acdf2" d="m332.45 72.47 36.58 20.71v7.93l-36.58-20.05v-8.6Z"/>
  <path fill="#9acdf2" d="m332.45 87.45 36.58 20.72v7.93l-36.58-20.05v-8.6Z"/>
  <path fill="#9acdf2" d="m332.45 116.47 36.58 20.71v7.94l-36.58-20.06v-8.6Z"/>
  <path fill="#9acdf2" d="m363.15 156.87-30.7-16.82v-8.6l36.58 20.72"/>
  <path fill="#c4a32f" d="m403.56 27.58-26.08 39.38-45.03-24.4 24.76-39.73c0 .07 31.36 13.95 46.35 24.75Z"/>
  <path fill="#142145" d="M378.14 245.24c1.1.88 2.28 1.69 3.38 2.57 3.09 2.28 6.1 4.63 9.18 6.9 4.48 3.38 9.04 6.76 13.52 10.21 5.5 4.2 11.02 8.3 16.6 12.5 6.02 4.55 12.05 9.1 18.07 13.58 6.1 4.63 12.2 9.18 18.3 13.81 5.72 4.26 11.38 8.6 17.1 12.86 4.78 3.6 9.56 7.2 14.4 10.8 3.46 2.57 6.9 5.21 10.36 7.78 1.62 1.25 3.23 2.5 4.92 3.67.08.08.15.08.22.15.6.44 1.1-.51.6-.95-1.11-.88-2.29-1.7-3.39-2.57-3.08-2.28-6.1-4.63-9.18-6.9-4.48-3.39-9.03-6.77-13.52-10.22-5.5-4.19-11.01-8.3-16.6-12.49-6.02-4.55-12.04-9.1-18.07-13.59-6.1-4.62-12.2-9.18-18.29-13.8-5.73-4.27-11.38-8.6-17.11-12.86-4.78-3.6-9.55-7.2-14.4-10.8-3.46-2.57-6.9-5.22-10.36-7.79-1.62-1.24-3.23-2.5-4.92-3.67-.07-.07-.15-.07-.22-.15-.59-.44-1.1.52-.59.96Z"/>
  <path fill="#142145" d="m359.19 230.99 6.32 4.77.88.66a.6.6 0 0 0 .73-.22.5.5 0 0 0-.22-.73l-6.32-4.78-.88-.66a.6.6 0 0 0-.73.22c-.15.22 0 .52.22.74Z"/>
  <path fill="#142145" d="M165.4 133.95c-1.53.8-2.99 1.76-4.33 2.87-2.35 1.69-4.62 3.45-6.97 5.14-3.31 2.5-6.62 5-10 7.42-1.24.88-2.5 1.83-3.74 2.71-3.16 2.28-6.25 4.56-9.4 6.84-4.41 3.23-8.82 6.39-13.23 9.62-5.06 3.67-10.2 7.34-15.28 11.02-5.14 3.74-10.35 7.49-15.5 11.24-4.62 3.3-9.18 6.68-13.8 9.99l-10.36 7.49c-1.7 1.25-3.38 2.42-5.07 3.67-.07.08-.15.08-.22.15-.59.44 0 1.4.59.95 1.17-.8 2.35-1.69 3.45-2.5 3.08-2.2 6.17-4.47 9.18-6.68 4.4-3.16 8.82-6.39 13.22-9.55l15.2-11.02c5.15-3.74 10.37-7.49 15.5-11.24 4.64-3.37 9.26-6.68 13.97-10.06 3.52-2.57 7.05-5.07 10.57-7.64 1.77-1.25 3.53-2.57 5.3-3.82 2.2-1.61 4.33-3.23 6.53-4.85l12.86-9.55c.68-.5 1.42-.92 2.2-1.25.51-.29 0-1.24-.66-.95Z"/>
  <path fill="#142145" d="M315.56 192.64c-3.38-2.64-6.84-5.21-10.22-7.86l-22.77-17.48c-7.93-6.1-15.8-12.12-23.72-18.22-4.26-3.3-8.53-6.54-12.79-9.84a.77.77 0 0 0-.29-.22 44.14 44.14 0 0 0-4.04-2.94 70.81 70.81 0 0 0-24.98-10.21c-.66-.15-.95.95-.29 1.03a69.04 69.04 0 0 1 28.72 13c3.6 2.86 7.27 5.58 10.95 8.37l22.84 17.56c7.86 6.02 15.65 12.05 23.5 18.07 2.8 2.13 5.52 4.26 8.31 6.4 1.32 1.02 2.64 2.2 4.04 3.08.07.07.15.07.15.14.59.52 1.17-.44.59-.88Z"/>
  <path fill="#142145" d="M390.77 206.45c1.1.81 2.2 1.7 3.31 2.5 3.01 2.28 5.95 4.55 8.96 6.83 4.48 3.38 8.9 6.76 13.37 10.07l16.24 12.26c5.95 4.48 11.82 8.96 17.77 13.45 5.95 4.55 11.98 9.03 17.93 13.59 5.58 4.18 11.16 8.44 16.74 12.63 4.7 3.6 9.48 7.13 14.18 10.72 3.38 2.58 6.76 5.15 10.14 7.64 1.61 1.25 3.16 2.5 4.85 3.68.07.07.14.07.22.14.59.44 1.1-.51.59-.95-1.1-.8-2.2-1.69-3.31-2.5-3.01-2.27-5.95-4.55-8.96-6.83-4.48-3.38-8.89-6.76-13.37-10.06l-16.24-12.27c-5.95-4.48-11.82-8.96-17.77-13.44-5.95-4.56-11.98-9.04-17.93-13.6-5.58-4.18-11.16-8.44-16.74-12.63-4.7-3.6-9.48-7.12-14.18-10.72a961.06 961.06 0 0 0-10.14-7.64c-1.61-1.25-3.16-2.5-4.85-3.67-.07-.08-.14-.08-.22-.15-.59-.44-1.17.51-.59.95Z"/>
  <path fill="#142145" d="m347 167.23-12.35-9.48-28.5-21.89c-10.72-8.23-21.45-16.53-32.25-24.75-7.86-6.03-15.64-12.05-23.5-18.08-2.87-2.2-4.92-3.96-7.86-5.87a67.37 67.37 0 0 0-31.15-10.36c-20.2-1.69-39.89 5.66-56.41 16.82-9.19 6.25-18.15 12.93-27.18 19.4-9.04 6.46-18.07 13-27.1 19.46-16.02 11.46-32.04 23-47.98 34.45-8.74 6.32-17.55 12.56-26.3 18.88-.36.3-.8.59-1.17.88-.59.44 0 1.4.59.96 6.1-4.34 12.12-8.74 18.21-13.08l43.86-31.51c17.78-12.78 35.55-25.54 53.33-38.27 9.55-6.83 18.88-13.89 29.6-18.95a84.13 84.13 0 0 1 29.17-8.01 68.75 68.75 0 0 1 38.12 7.93c3.2 1.8 6.26 3.86 9.1 6.17 6.62 5.07 13.16 10.14 19.77 15.2 10.36 7.94 20.71 15.95 31.07 23.88l30.41 23.36c5.73 4.4 11.54 8.82 17.27 13.22.29.22.51.45.8.67.44.36.96-.6.44-1.03Z"/>
  <path fill="#142145" d="M404.07 146.66c1.1.59 2.2 1.17 3.3 1.83l8.82 4.85 12.78 7.05 15.2 8.38c5.37 2.94 10.73 5.95 16.1 8.89 5.14 2.86 10.28 5.65 15.35 8.52l13.22 7.27c3.09 1.69 6.25 3.45 9.33 5.14l3.97 2.2c3.6 1.99 7.2 3.97 10.8 5.88.51.3.95.52 1.46.81.6.37 1.18-.59.6-.95l-11.69-6.4c-.95-.5-1.98-1.1-2.94-1.61-2.71-1.47-5.43-3.01-8.15-4.48l-12.34-6.83c-5-2.8-10-5.51-14.99-8.3-5.36-2.94-10.72-5.88-16.01-8.9-5.22-2.86-10.43-5.72-15.65-8.66-4.48-2.5-9.03-5-13.51-7.5l-9.92-5.5c-1.62-.88-3.16-1.77-4.77-2.65-.08 0-.15-.07-.22-.14-.81-.15-1.4.8-.74 1.1Z"/>
  <path fill="#142145" d="M461.22 307.53v102.1c0 1.4-.07 2.8 0 4.2v.14c0 .3.25.55.55.55.3 0 .55-.25.55-.55v-102.1c0-1.4.08-2.8 0-4.2v-.14c0-.3-.25-.55-.55-.55-.3 0-.55.25-.55.55Z"/>
  <path fill="#142145" d="M474.44 317.81v75.52c0 1.03-.07 2.06 0 3.08v.15a.55.55 0 0 0 1.11 0v-75.51c0-1.03.07-2.06 0-3.09v-.14c0-.3-.25-.56-.55-.56-.3 0-.56.25-.56.56Z"/>
  <path fill="#142145" d="M469.74 314v84.98c0 1.18-.07 2.28 0 3.46v.14c0 .3.25.56.55.56.3 0 .55-.25.55-.56V317.6c0-1.17.08-2.27 0-3.45V314c0-.3-.24-.56-.55-.56-.3 0-.55.25-.55.56Z"/>
  <path fill="#c4a32f" d="m481.94 222.1 8.08 4.48V204.1l-8.08-4.48v22.48Z"/>
  <path fill="#c4a32f" d="m445.43 202.49 8.08 4.4v-22.47l-8.08-4.41v22.48Z"/>
  <path fill="#c4a32f" d="m464.16 212.77 8.08 4.4v-22.4l-8.08-4.48v22.48Z"/>
  <path fill="#c4a32f" d="m409.87 181.84 8.09 4.49v-22.48l-8.09-4.48v22.47Z"/>
  <path fill="#c4a32f" d="m428.53 192.13 8.16 4.48v-22.48l-8.16-4.4v22.4Z"/>
  <path fill="#c4a32f" d="m481.94 265.15 8.08 4.48v-22.48l-8.08-4.48v22.48Z"/>
  <path fill="#c4a32f" d="m445.43 245.53 8.08 4.41v-22.4l-8.08-4.49v22.48Z"/>
  <path fill="#c4a32f" d="m464.16 255.82 8.08 4.48v-22.48l-8.08-4.48v22.48Z"/>
  <path fill="#c4a32f" d="M417.95 226.58v-19.69l-8.08-4.4v17.7"/>
  <path fill="#c4a32f" d="m433.75 238.04 2.94 1.62v-22.48l-8.16-4.41v21.6"/>
  <path fill="#142145" d="M481.35 322.74v21c-.03.2.1.4.3.45 2.71 1.46 5.36 3 8.07 4.48a.54.54 0 0 0 .8-.44l.01-19.47c0-.3-.25-.55-.55-.55-.3 0-.55.25-.55.55v19.47c.28-.14.55-.28.8-.45-2.71-1.46-5.35-3-8.07-4.48.07.17.17.32.29.44v-21c0-.3-.25-.56-.55-.56-.3 0-.55.25-.55.56Z"/>
  <path fill="#142145" d="M452.19 322.74v-17.49a.4.4 0 0 0-.3-.44c-2.72-1.47-5.36-3-8.08-4.48a.54.54 0 0 0-.8.44v17.12c0 .3.24.55.55.55.3 0 .55-.25.55-.55v-17.12a7.9 7.9 0 0 0-.81.44c2.71 1.47 5.36 3.02 8.08 4.48a1.54 1.54 0 0 0-.3-.44v17.49c.03.28.27.5.56.5.28 0 .52-.22.55-.5Z"/>
  <path fill="#142145" d="M418.47 304.81V285.5a.4.4 0 0 0-.3-.44c-2.71-1.47-5.36-3-8.08-4.48a.54.54 0 0 0-.8.44v19.69c0 .3.25.55.55.55.3 0 .55-.25.55-.55V281a7.9 7.9 0 0 0-.81.44c2.72 1.47 5.36 3.01 8.08 4.48a1.54 1.54 0 0 0-.3-.44v19.32c0 .3.26.55.56.55.3 0 .55-.25.55-.55Z"/>
  <path fill="#142145" d="M437.2 314.36v-18.5a.4.4 0 0 0-.3-.45c-2.71-1.47-5.36-3.01-8.07-4.48a.54.54 0 0 0-.8.44l-.01 18.88c0 .3.25.55.55.55.3 0 .55-.25.55-.55v-18.88a7.9 7.9 0 0 0-.8.44c2.71 1.47 5.36 3.01 8.07 4.48a1.56 1.56 0 0 0-.3-.44v18.51c.04.28.28.5.56.5s.52-.22.55-.5Z"/>
  <path fill="#142145" d="M490.53 371.88v-3.01a.4.4 0 0 0-.3-.44c-2.71-1.47-5.35-3.01-8.07-4.48a.54.54 0 0 0-.81.44v22.48c0 .3.25.55.55.55.3 0 .55-.25.55-.55v-22.48a7.9 7.9 0 0 0-.8.44c2.71 1.47 5.36 3 8.07 4.48a1.54 1.54 0 0 0-.3-.44v3.01c0 .3.26.55.56.55.3 0 .55-.25.55-.55Z"/>
  <path fill="#142145" d="M403.78 263.97v32.76c0 .3.25.55.55.55.3 0 .55-.24.55-.55v-32.76a.56.56 0 0 0-.55-.5.56.56 0 0 0-.55.5Z"/>
  <path fill="#142145" d="M321.73 260.96c3.23-2.57 6.46-5.07 9.7-7.64 7.48-5.95 14.98-11.83 22.54-17.78 8.6-6.83 17.27-13.59 25.86-20.42 6.61-5.21 13.22-10.36 19.76-15.57 1.54-1.25 3.09-2.43 4.63-3.67.3-.22.59-.37.66-.81.07-.69.07-1.38 0-2.06v-46.06c0-.14.07-.66 0-.73.15.15-.37.37 0 .22a9.08 9.08 0 0 0 1.62-1.32c1.02-.89 2.05-1.7 3.08-2.57l9.7-7.94c8.37-6.83 16.75-13.73 25.12-20.57 5.73-4.7 11.53-9.4 17.26-14.1.31-.22.6-.47.88-.73-.22 0-.44.07-.66.07 5.73 2.94 11.39 5.88 17.12 8.81.8.46 1.64.88 2.5 1.25.66.3 1.17-.66.58-.95-5.73-2.94-11.38-5.88-17.11-8.82-.81-.46-1.65-.87-2.5-1.25a.56.56 0 0 0-.66.08c-4.19 3.45-8.38 6.83-12.56 10.28-8.3 6.83-16.6 13.59-24.98 20.42-6.24 5.07-12.49 10.21-18.66 15.28-.54.38-1.06.8-1.54 1.25a1.7 1.7 0 0 0-.3 1.18v47.52c-.03.25-.03.5 0 .74-.21-.22.37-.37.08-.3-.16.1-.31.23-.44.37-.59.44-1.18.96-1.84 1.4-5.65 4.4-11.24 8.89-16.9 13.3-8.44 6.6-16.81 13.29-25.26 19.9-8.08 6.39-16.16 12.7-24.17 19.1l-13.66 10.8c-.22.14-.44.36-.66.51-.6.52.22 1.25.8.8Z"/>
  <path fill="#142145" d="M372.26 219.97v68.53c0 .89-.07 1.91 0 2.8v.14c0 .3.25.55.56.55.3 0 .55-.24.55-.55v-68.53c0-.88.07-1.91 0-2.8v-.14a.55.55 0 0 0-1.11 0Z"/>
  <path fill="#142145" d="M377.85 216.3v69.34c0 .95-.08 1.91 0 2.87v.14c0 .3.24.55.55.55.3 0 .55-.25.55-.55v-69.34c0-.96.07-1.91 0-2.87v-.14c0-.3-.25-.56-.55-.56-.3 0-.55.25-.55.56Z"/>
  <path fill="#142145" d="M366.1 235.9v60.46c0 .3.24.56.54.56.3 0 .56-.25.56-.56v-60.45a.56.56 0 0 0-.56-.5.56.56 0 0 0-.55.5Z"/>
  <path fill="#142145" d="M366.1 225.63v10.28c0 .3.24.55.54.55.3 0 .56-.25.56-.55v-10.29c0-.3-.25-.55-.56-.55-.3 0-.55.25-.55.56Z"/>
  <path fill="#142145" d="m386.59 367.91-7.13-3.82a1943.7 1943.7 0 0 0-17.04-9.18c-6.9-3.75-13.8-7.42-20.71-11.17-5.95-3.23-11.9-6.39-17.85-9.62-1.99-1.03-3.97-2.13-5.88-3.16-.96-.51-1.84-1.1-2.8-1.54-.07 0-.07-.07-.14-.07a.54.54 0 0 0-.8.44V505.2c0 .3.24.55.54.55.3 0 .55-.25.55-.55V332.73c0-.81.08-1.7 0-2.5v-.3c-.27.14-.54.28-.8.45l7.12 3.82a1943.7 1943.7 0 0 0 17.04 9.18c6.9 3.74 13.81 7.42 20.72 11.16 5.95 3.24 11.9 6.4 17.85 9.63 1.98 1.03 3.97 2.13 5.88 3.16.95.5 1.83 1.1 2.79 1.54.07 0 .07.07.14.07a.58.58 0 0 0 .8-.53c0-.2-.1-.4-.28-.5Z"/>
  <path fill="#142145" d="M328.78 337.87v157.35c.04 1.27.17 2.55.36 3.82.07.7.16 1.42.3 2.13.07.66 1.17.73 1.1 0a59.46 59.46 0 0 1-.66-7.2V344.55c0-2.2.07-4.33 0-6.53v-.3c0-.59-1.1-.59-1.1.15Z"/>
  <path fill="#142145" d="M346.11 346.98v143.1c0 1.9-.07 3.89 0 5.8v.22c0 .3.25.55.55.55.3 0 .55-.25.55-.55V353c0-1.9.08-3.9 0-5.8v-.22a.56.56 0 0 0-1.1 0Z"/>
  <path fill="#142145" d="M361.17 490.37V354.54c0-.3-.25-.55-.55-.55-.3 0-.55.25-.55.55v130.24c0 1.77-.07 3.6 0 5.37v.22c0 .3.25.55.55.55.3 0 .55-.25.55-.55Z"/>
  <path fill="#142145" d="M374.4 362.62v116.5c0 1.55-.08 3.17 0 4.78v.22c0 .3.24.55.55.55.3 0 .55-.24.55-.55v-116.5c0-1.54.07-3.16 0-4.78v-.22a.55.55 0 0 0-1.11 0Z"/>
  <path fill="#142145" d="M395.26 362.62V467.6c0 1.4-.08 2.86 0 4.33v.15c0 .3.24.55.55.55.3 0 .55-.25.55-.55V367.1c0-1.4.07-2.87 0-4.34v-.15c0-.3-.25-.55-.55-.55-.3 0-.55.25-.55.55Z"/>
  <path fill="#142145" d="M405.69 354.84v106c0 1.47-.08 2.86 0 4.33v.22c0 .3.25.55.55.55.3 0 .55-.25.55-.55v-106c0-1.47.07-2.86 0-4.33v-.22c0-.3-.25-.55-.55-.55-.3 0-.55.25-.55.55Z"/>
  <path fill="#142145" d="M417.44 346.32v106c0 1.46-.07 2.86 0 4.33v.22c0 .3.25.55.55.55.3 0 .55-.25.55-.55v-106c0-1.47.08-2.86 0-4.33v-.22c0-.3-.25-.56-.55-.56-.3 0-.55.25-.55.56Z"/>
  <path fill="#142145" d="M429.2 337.87v104.46c0 1.4-.08 2.86 0 4.26v.14c0 .3.24.55.55.55.3 0 .55-.24.55-.55V342.28c0-1.4.07-2.87 0-4.26v-.15a.55.55 0 0 0-1.11 0Z"/>
  <path fill="#142145" d="M440.87 330.08v101.96c0 1.4-.07 2.8 0 4.19v.14c0 .3.25.56.55.56.3 0 .55-.25.55-.56V334.43c0-1.4.08-2.8 0-4.2v-.14c0-.3-.24-.55-.55-.55-.3 0-.55.25-.55.55Z"/>
  <path fill="#142145" d="M452.33 425.5v-98.94c0-1.33.08-2.72 0-4.04v-.15c0-.37-.51-.73-.8-.44l-8.97 6.32-20.12 14.17a3978.27 3978.27 0 0 1-21.82 15.36c-4.48 3.15-9.04 6.39-13.52 9.55-.58.36-1.25.66-1.32 1.4-.07 1.17 0 2.34 0 3.52V477.8c0 .3.25.55.55.55.3 0 .55-.25.55-.55V370.19c.04-.49.04-.98 0-1.47v-.15c-.07.17-.17.32-.3.45 2.21-1.55 4.34-3.1 6.55-4.63l15.64-11.02c6.32-4.4 12.56-8.89 18.88-13.3l16.38-11.53c1.77-1.25 3.6-2.5 5.37-3.75.58-.36 1.1-.8 1.68-1.17.33-.18.62-.4.89-.66a.29.29 0 0 1 .14-.08 8.1 8.1 0 0 1-.8-.44v98.95c0 1.32-.08 2.72 0 4.04v.15c-.08.59 1.02.59 1.02-.08Z"/>
  <path fill="#142145" d="M315.04 330.3c2.2-1.47 4.4-2.86 6.61-4.33 5.3-3.45 10.65-6.9 15.94-10.36 6.47-4.19 12.86-8.37 19.32-12.49 5.58-3.6 11.17-7.2 16.68-10.8 1.83-1.17 3.67-2.42 5.58-3.6.59-.36 1.1-.73 1.69-1.1.32-.15.62-.35.88-.58.04-.04.1-.07.15-.08h-.6c2.36 1.18 4.71 2.35 6.99 3.6 5.58 2.87 11.16 5.66 16.75 8.52l20.27 10.36 17.56 8.96c1.9.96 3.82 1.99 5.73 2.94.88.44 1.83 1.03 2.71 1.4.08 0 .08.07.15.07.66.3 1.18-.66.59-.95-2.35-1.18-4.78-2.43-7.13-3.6l-17.04-8.67a2459.9 2459.9 0 0 1-20.42-10.43c-5.8-2.94-11.6-5.95-17.48-8.9-1.91-.95-3.82-1.9-5.66-2.86a19 19 0 0 0-2.42-1.25c-.66-.22-1.18.37-1.7.67l-4.25 2.71c-5.07 3.3-10.14 6.54-15.2 9.85-6.4 4.11-12.79 8.3-19.18 12.41-5.73 3.75-11.53 7.42-17.26 11.17a689.4 689.4 0 0 1-9.48 6.1c-.15.07-.3.21-.44.29-.51.36.07 1.32.66.95Z"/>
  <path fill="#142145" d="M326.28 329.05c1.84-1.17 3.67-2.42 5.5-3.6 4.42-2.86 8.9-5.73 13.3-8.59 5.37-3.45 10.73-6.98 16.1-10.43l13.87-9.04c1.55-.95 3.1-1.98 4.56-2.94.48-.29.95-.6 1.4-.95.27-.13.52-.3.73-.51l.07-.08h-.58c1.98 1.03 3.96 1.99 5.95 3.01 4.77 2.43 9.54 4.85 14.25 7.2 5.73 2.94 11.53 5.8 17.26 8.75 5 2.5 9.92 5.06 14.91 7.56 1.62.8 3.23 1.62 4.85 2.5.51.3 1.03.51 1.54.8.25.2.52.35.81.45l.07.07v-.95c-1.83 1.32-3.67 2.57-5.5 3.89-4.49 3.08-8.9 6.24-13.38 9.33l-16.08 11.24-13.96 9.77c-1.54 1.03-3.01 2.13-4.55 3.16l-1.47 1.02c-.28.13-.52.3-.74.52l-.07.07h.59c-1.99-1.1-3.97-2.2-6.03-3.23-4.77-2.65-9.62-5.22-14.4-7.86l-17.4-9.48c-5-2.71-10.07-5.43-15.06-8.22-1.62-.89-3.3-1.77-4.92-2.72l-1.55-.88a2.85 2.85 0 0 0-.8-.44l-.08-.08v.96c.3 0 .58-.11.81-.3.15-.1.24-.27.24-.46a.56.56 0 0 0-.83-.5c-.18.16-.37.28-.59.38a.55.55 0 0 0 0 .95c1.99 1.1 3.97 2.2 6.03 3.23 4.77 2.65 9.62 5.22 14.4 7.86l17.4 9.48c5 2.72 10.07 5.44 15.06 8.23 1.62.88 3.3 1.76 4.92 2.71.81.45 1.55.96 2.36 1.33l.07.07c.18.11.4.11.59 0 1.83-1.32 3.67-2.57 5.5-3.9 4.49-3.08 8.9-6.24 13.38-9.32l16.08-11.24 13.96-9.77c2.2-1.54 4.63-3.01 6.76-4.7l.07-.08a.59.59 0 0 0 0-.95c-1.98-1.03-3.97-1.98-5.95-3.01-4.77-2.43-9.55-4.85-14.25-7.2-5.73-2.94-11.46-5.8-17.19-8.74-5-2.5-9.99-5.07-14.91-7.57-2.42-1.25-4.78-2.64-7.27-3.67-.59-.22-.88.07-1.4.37-1.1.73-2.2 1.46-3.3 2.13l-12.5 8.08-16.15 10.43c-4.85 3.16-9.77 6.31-14.62 9.47-2.65 1.77-5.36 3.46-8 5.22-.15.07-.23.15-.38.22a.54.54 0 0 0 .52.95Z"/>
  <path fill="#c4a32f" d="m331.79 328.54 49.66-32.1 52.6 26.59-49.15 34.38-53.11-28.87Z"/>
  <path fill="#142145" d="M461 79.81c-.88.74-1.84 1.4-2.72 2.13-2.5 1.91-5 3.9-7.42 5.8a1467.9 1467.9 0 0 1-11.09 8.6c-4.48 3.53-8.96 6.98-13.44 10.5-4.92 3.82-9.84 7.72-14.77 11.54-4.92 3.89-9.91 7.71-14.83 11.6-4.63 3.6-9.26 7.28-13.89 10.87-3.9 3.02-7.78 6.1-11.68 9.11-2.79 2.2-5.65 4.41-8.44 6.61-1.33 1.03-2.72 1.99-3.97 3.09-.08.07-.15.07-.15.15-.59.44.22 1.17.8.8.89-.73 1.85-1.39 2.73-2.13 2.5-1.9 5-3.89 7.42-5.8 3.67-2.86 7.34-5.73 11.09-8.6 4.48-3.52 8.96-6.97 13.44-10.5 4.92-3.82 9.84-7.71 14.77-11.53 4.92-3.9 9.91-7.71 14.83-11.6 4.63-3.6 9.26-7.28 13.89-10.88 3.9-3.01 7.78-6.1 11.68-9.1 2.79-2.21 5.65-4.41 8.45-6.62 1.32-1.03 2.71-1.98 3.96-3.08.08-.08.15-.08.15-.15.59-.51-.22-1.25-.8-.8Z"/>
  <path fill="#142145" d="M327.82 185.15c3.53-2.8 7.05-5.5 10.58-8.3l16.97-13.22 3.9-3.01c.58-.44-.23-1.18-.82-.81-3.52 2.79-7.05 5.5-10.57 8.3l-16.97 13.22-3.9 3.01c-.51.44.3 1.18.81.81Z"/>
  <path fill="#142145" d="M313.64 196.17c4.12-3.23 8.3-6.46 12.42-9.7.59-.44 1.17-.88 1.76-1.4.59-.43-.22-1.17-.8-.8-4.12 3.23-8.3 6.46-12.42 9.7-.59.44-1.18.88-1.76 1.4-.52.43.3 1.24.8.8Z"/>
  <path fill="#142145" d="M403.78 195.14v21.16c0 .3.25.55.55.55.3 0 .55-.25.55-.55v-21.16c0-.3-.25-.55-.55-.55-.3 0-.55.25-.55.55Z"/>
  <path fill="#142145" d="M409.36 31.7c-4.04 6.1-8.08 12.27-12.12 18.36-5.44 8.23-10.8 16.46-16.23 24.68-.37.6-.89 1.18-1.18 1.77-.13.5-.16 1.02-.07 1.54v65.45c0 .3.25.55.55.55.3 0 .55-.25.55-.55V79.88c0-.95.07-1.9 0-2.86 0-.37.07-.07-.08 0 .15-.18.28-.38.37-.59 4.92-7.42 9.77-14.84 14.7-22.33 4.7-7.2 9.47-14.32 14.17-21.52.06-.13.13-.26.22-.37.44-.59-.51-1.1-.88-.51Z"/>
  <path fill="#142145" d="m379.76 76.36-5.73-3.09c-4.63-2.5-9.26-4.92-13.96-7.41-5.58-3.02-11.17-5.95-16.75-8.97l-14.54-7.71c-1.62-.88-3.23-1.69-4.85-2.57-.74-.44-1.5-.83-2.28-1.18a.07.07 0 0 1-.07-.07.56.56 0 0 0-.59.96l5.73 3.08c4.63 2.5 9.26 4.92 13.96 7.42 5.58 3.01 11.16 5.95 16.75 8.96l14.54 7.72c1.62.88 3.23 1.68 4.85 2.57.73.43 1.5.82 2.28 1.17.04 0 .07.03.07.07.66.3 1.25-.66.59-.95Z"/>
  <path fill="#142145" d="M350.67.26c-1.91 2.94-3.9 5.87-5.8 8.81-4.05 6.1-8.01 12.2-12.05 18.22-3.38 5.14-6.76 10.21-10.14 15.35a19.6 19.6 0 0 0-1.91 2.87 5.93 5.93 0 0 0-.07 1.98v100.78c0 .3.24.55.55.55.3 0 .55-.24.55-.55v-98.5c0-1.18.07-2.43 0-3.6v-.3c-.08-.14-.15.3-.08.23.26-.28.46-.6.6-.96l8.51-12.93c4.12-6.17 8.16-12.41 12.27-18.58 2.65-4.04 5.36-8.08 8-12.2.14-.19.26-.38.37-.59.6-.66-.36-1.17-.8-.58Z"/>
  <path fill="#142145" d="M61.17 68.2c4.85 2.58 9.62 5.22 14.47 7.8 7.64 4.1 15.28 8.22 22.85 12.33l5.29 2.87c.18.1.4.1.58 0l16.1-11.24c8.44-5.95 16.96-11.9 25.4-17.78l5.88-4.11a.59.59 0 0 0 0-.96l-16.52-8.37c-8.82-4.48-17.63-8.89-26.37-13.37-1.99-1.03-4.04-2.06-6.03-3.08-.66-.3-1.17.66-.59.95l16.53 8.37c8.82 4.48 17.63 8.9 26.37 13.37l6.03 3.09v-.96l-16.1 11.24a5238.3 5238.3 0 0 1-25.4 17.78l-5.88 4.11h.58c-4.84-2.57-9.62-5.21-14.47-7.78-7.64-4.12-15.28-8.23-22.84-12.34l-5.3-2.87a.56.56 0 0 0-.83.49c0 .19.1.36.25.47Z"/>
  <path fill="#142145" d="M85.48 46.76c4.41-2.87 8.82-5.66 13.15-8.52l1.91-1.25h-.58l14.76 7.27c7.79 3.82 15.5 7.64 23.29 11.46 1.76.88 3.6 1.76 5.36 2.64v-.95c-4.48 3.16-9.04 6.31-13.52 9.47-7.2 5-14.4 10.07-21.6 15.06-1.68 1.18-3.3 2.35-4.99 3.45h.59c-4.33-2.35-8.6-4.62-12.93-6.97l-20.57-11.1c-1.54-.88-3.16-1.68-4.7-2.57-.59-.36-1.17.6-.59.96 4.34 2.35 8.6 4.63 12.93 6.98 6.83 3.67 13.74 7.42 20.57 11.09 1.54.88 3.16 1.69 4.7 2.57.18.11.41.11.59 0 4.48-3.16 9.03-6.32 13.52-9.48 7.2-5 14.4-10.06 21.6-15.06 1.68-1.17 3.3-2.35 4.99-3.45a.59.59 0 0 0 0-.95l-7.79-3.82c-5.5-2.72-10.94-5.44-16.45-8.08-5-2.5-10-4.92-14.99-7.42-1.25-.59-2.5-1.25-3.75-1.84-.29-.15-.58-.37-.95-.22a5.2 5.2 0 0 0-1.32.88c-4.48 2.87-8.9 5.8-13.37 8.67-.15.07-.22.15-.37.22a.54.54 0 1 0 .51.96Z"/>
  <path fill="#c4a32f" d="M75.28 55.57 100.9 39.2l37.4 18.36-35.27 25.27L66.6 63.15"/>
  <path fill="#142145" d="M150.86 57.55V96.2c0 .3.25.55.55.55.3 0 .55-.24.55-.55V57.55a.56.56 0 0 0-.55-.5.56.56 0 0 0-.55.5Z"/>
  <path fill="#142145" d="M143.74 63.14v37.98c0 .3.25.55.55.55.3 0 .55-.25.55-.55V63.14a.56.56 0 0 0-.55-.5.56.56 0 0 0-.55.5Z"/>
  <path fill="#142145" d="M134.4 69.75v38.93c0 .3.26.55.56.55.3 0 .55-.25.55-.55V69.75c0-.3-.25-.55-.55-.55-.3 0-.55.25-.55.55Z"/>
  <path fill="#142145" d="M125.96 75.33v38.93c0 .3.25.56.55.56.3 0 .55-.25.55-.56V75.33c0-.3-.25-.55-.55-.55-.3 0-.55.25-.55.55Z"/>
  <path fill="#142145" d="M117.59 80.99v38.93c0 .3.24.55.55.55.3 0 .55-.25.55-.55V80.99c0-.3-.25-.55-.55-.55-.3 0-.55.24-.55.55Z"/>
  <path fill="#142145" d="M52.14 78.64v85.72c0 1.18-.08 2.35 0 3.53v.15c0 .3.24.55.55.55.3 0 .55-.25.55-.56V82.31c0-1.18.07-2.35 0-3.53v-.14c0-.3-.25-.55-.55-.55-.3 0-.55.24-.55.55Z"/>
  <path fill="#142145" d="M62.57 68.8v87.7c0 1.18-.08 2.43 0 3.6v.15c0 .3.24.55.55.55.3 0 .55-.25.55-.55V72.54c0-1.18.07-2.42 0-3.6v-.15c0-.3-.25-.55-.55-.55-.3 0-.55.25-.55.55Z"/>
  <path fill="#142145" d="M74.76 199.91v26.67c0 .3.25.55.55.55.3 0 .55-.25.55-.55v-26.67c0-.3-.25-.55-.55-.55-.3 0-.55.25-.55.55Z"/>
  <path fill="#142145" d="M74.76 76.29v71.98c0 .96-.07 1.99 0 2.94v.15c0 .3.25.55.55.55.3 0 .55-.25.55-.55V79.37c0-.95.08-1.98 0-2.94v-.14c0-.3-.25-.56-.55-.56-.3 0-.55.25-.55.56Z"/>
  <path fill="#142145" d="M64.26 217.4v-9.04a.55.55 0 0 0-1.11 0v9.04c0 .3.25.55.55.55.3 0 .56-.25.56-.55Z"/>
  <path fill="#142145" d="M85.05 192.5v44.36c0 .3.24.55.55.55.3 0 .55-.24.55-.55V192.5c0-.3-.25-.55-.55-.55-.3 0-.55.24-.55.55Z"/>
  <path fill="#142145" d="M85.63 193.01c.3 0 .55-.25.55-.55 0-.3-.24-.55-.55-.55-.3 0-.55.25-.55.55 0 .3.25.55.55.55Z"/>
  <path fill="#142145" d="M85.05 80.77v60.67c0 .81-.08 1.7 0 2.5v.07c0 .3.24.56.55.56.3 0 .55-.25.55-.56V83.34c0-.81.07-1.7 0-2.5v-.07c0-.3-.25-.55-.55-.55-.3 0-.55.25-.55.55Z"/>
  <path fill="#142145" d="m145.57 55.2 4.85-.44c4.4-.44 8.82-.8 13.15-1.25l19.47-1.76 23.65-2.2 26-2.43 26.23-2.42c8.15-.74 16.3-1.47 24.53-2.28 6.9-.66 13.81-1.25 20.72-1.9 5-.45 9.92-.89 14.91-1.4l7.05-.66h.3c.73-.08.73-1.18 0-1.1l-4.85.43c-4.4.45-8.82.81-13.15 1.25-6.46.6-13 1.18-19.47 1.77L265.31 43l-26 2.42-26.23 2.43c-8.15.73-16.3 1.47-24.53 2.28-6.9.66-13.81 1.24-20.72 1.9-5 .45-9.91.89-14.91 1.4l-7.05.66h-.3c-.66.08-.66 1.18 0 1.1Z"/>
  <path fill="#142145" d="M12.4 148.2c4.55-3.23 9.18-6.39 13.73-9.62 7.27-5.07 14.47-10.14 21.74-15.2l5.07-3.53c.6-.37 0-1.33-.58-.96-4.56 3.23-9.19 6.4-13.74 9.62-7.27 5.07-14.47 10.14-21.74 15.21l-5.07 3.53c-.52.44 0 1.4.59.95Z"/>
  <path fill="#142145" d="M144.84 327.66V152.83c.1-.8.1-1.62 0-2.43v-.29a7.9 7.9 0 0 0-.8.44c7.56 5.36 15.05 10.8 22.62 16.16 15.86 11.31 31.66 22.63 47.52 34.01 14.33 10.29 28.72 20.5 43.05 30.78 3.45 2.5 6.9 4.92 10.36 7.42.25.22.52.42.8.59.3.07-.07-.59-.14-.3-.22.45 0 1.47 0 1.99v236.75c0 9.7 0 19.32.36 29.02.08 1.47.08 3.01.15 4.48 0 .3.25.55.55.55.3 0 .55-.25.55-.55a968.5 968.5 0 0 1-.51-29.02V240.98c.07-.59.07-1.18 0-1.77-.15-.58-.74-.8-1.18-1.17l-3.89-2.8a123350.82 123350.82 0 0 1-118.2-84.48l-1.54-1.09a.54.54 0 0 0-.8.44V320.4c0 2.27-.22 4.7 0 6.97v.3c.03.28.27.5.55.5s.52-.22.55-.5Z"/>
  <path fill="#142145" d="M144.84 484.93v-79.19c0-1.03.07-2.13 0-3.23v-.15c0-.3-.25-.55-.55-.55-.3 0-.55.25-.55.55v79.2c0 1.02-.08 2.12 0 3.22v.15c.03.28.27.5.55.5s.52-.22.55-.5Z"/>
  <path fill="#142145" d="M320.77 260.6v64.63c0 .3.25.56.55.56.3 0 .55-.25.55-.56V263.9c0-1.03.08-2.13 0-3.16v-.15c0-.3-.25-.55-.55-.55-.3 0-.55.25-.55.55Z"/>
  <path fill="#142145" d="M312.98 196.24c2.65 1.91 5.37 3.82 8.01 5.73a1.56 1.56 0 0 0-.3-.44v59.06c0 .3.26.55.56.55.3 0 .55-.25.55-.55v-58.91c-.08-.52-.37-.66-.74-.96l-6.9-4.92-.66-.44c-.52-.44-1.1.51-.52.88Z"/>
  <path fill="#142145" d="m196.55 113.02 3.09 2.2c2.86 2.05 5.66 4.04 8.52 6.1l12.49 8.96L236 141.22c5.58 3.97 11.17 7.94 16.75 11.98l16.9 12.04c5.28 3.75 10.5 7.57 15.79 11.32 4.4 3.15 8.89 6.31 13.3 9.47 3.22 2.28 6.38 4.56 9.62 6.83 1.54 1.1 3 2.2 4.55 3.23.07.08.15.08.22.15.59.44 1.1-.51.59-.95l-3.09-2.2c-2.86-2.06-5.65-4.05-8.52-6.1l-12.49-8.97-15.35-10.94c-5.58-3.97-11.16-7.93-16.75-11.97l-16.9-12.05c-5.28-3.75-10.5-7.57-15.79-11.31-4.4-3.16-8.88-6.32-13.3-9.48-3.22-2.28-6.38-4.55-9.61-6.83-1.55-1.1-3.02-2.2-4.56-3.23-.07-.08-.15-.08-.22-.15-.59-.44-1.17.51-.59.95Z"/>
  <path fill="#142145" d="M321.06 201.02c-1.76 1.25-3.45 2.5-5.21 3.74-4.19 2.94-8.3 5.95-12.49 8.9l-15.2 10.79c-4.41 3.09-8.75 6.24-13.15 9.33-1.47 1.03-2.87 2.06-4.34 3.08-.44.3-.88.67-1.32.96-.27.13-.52.3-.73.51l-.08.08h.59a91.3 91.3 0 0 0-3.3-2.35c-3.02-2.13-6.03-4.34-9.04-6.47-4.48-3.16-8.96-6.39-13.37-9.55l-16.3-11.68a3760 3760 0 0 0-17.93-12.78c-6.03-4.33-12.05-8.6-18.07-12.93-5.59-4.04-11.24-8-16.82-12.04-4.78-3.38-9.48-6.76-14.26-10.21a875.73 875.73 0 0 1-10.28-7.35l-3.16-2.28c-.53-.43-1.1-.82-1.69-1.17-.07-.08-.14-.08-.22-.15v.96c1.77-1.25 3.46-2.5 5.22-3.75 4.19-2.94 8.3-5.95 12.49-8.89l15.2-10.8c4.4-3.08 8.74-6.24 13.15-9.33 2.13-1.47 4.33-2.94 6.4-4.55l.06-.08c.6-.44 0-1.4-.58-.95-1.77 1.25-3.46 2.5-5.22 3.75-4.19 2.93-8.3 5.95-12.49 8.88l-15.2 10.8c-4.41 3.09-8.74 6.25-13.15 9.33-2.13 1.47-4.33 2.94-6.4 4.56l-.06.07a.55.55 0 0 0 0 .96c1.1.8 2.2 1.61 3.3 2.35 3.01 2.13 6.02 4.33 9.04 6.46 4.48 3.16 8.96 6.39 13.37 9.55l16.3 11.68c5.95 4.26 11.9 8.52 17.93 12.78 6.02 4.34 12.04 8.6 18.07 12.93 5.58 4.04 11.24 8 16.82 12.05 4.77 3.38 9.47 6.75 14.25 10.2 3.45 2.43 6.83 4.86 10.28 7.35 1.62 1.18 3.23 2.35 4.85 3.46.08.07.15.07.22.14.2.08.4.08.59 0 1.76-1.25 3.45-2.5 5.22-3.74 4.18-2.94 8.3-5.95 12.48-8.9l15.2-10.8c4.42-3.08 8.75-6.23 13.16-9.32 2.13-1.47 4.33-2.94 6.39-4.55l.07-.08c.52-.36-.07-1.32-.59-.95Z"/>
  <path fill="#142145" d="M180.4 298.57v-41.43c-.29.13-.56.28-.82.44 5.51 4.11 10.95 8.23 16.46 12.34 8.74 6.54 17.48 13.1 26.22 19.69 1.99 1.47 3.97 3 6.03 4.48a1.54 1.54 0 0 0-.3-.44v41.43c0 .3.25.55.55.55.3 0 .55-.25.55-.55v-38.79c0-.8.08-1.69 0-2.5-.06-.38-.3-.71-.66-.88a48.75 48.75 0 0 0-2.05-1.54c-2.72-2.06-5.37-4.04-8.08-6.1-7.72-5.8-15.43-11.53-23.07-17.33-3.23-2.43-6.54-4.85-9.77-7.35-1.69-1.25-3.38-2.57-5.07-3.82-.07-.07-.14-.15-.22-.15a.51.51 0 0 0-.8.43v41.48c0 .29.23.52.5.52.28 0 .5-.21.52-.48Z"/>
  <path fill="#142145" d="M181.05 298.72c-.22-.23-.51-.37-.73-.6l-.07-.07a.27.27 0 0 0-.23-.07h-.22c-.13 0-.25.1-.29.22a.92.92 0 0 0-.07.44c0 .08.07.08.07.15l.22.22c.22.22.52.37.74.59l.07.07c.06.06.14.08.22.07h.22c.13 0 .25-.09.3-.22a.94.94 0 0 0 .07-.44c0-.07-.08-.07-.08-.14l-.22-.22Z"/>
  <path fill="#142145" d="m207.43 277.7-9.11 7.13c-4.85 3.82-9.7 7.57-14.55 11.39-1.1.88-2.28 1.76-3.38 2.64-.58.44.22 1.18.81.81l9.1-7.13c4.86-3.82 9.7-7.56 14.55-11.38 1.1-.88 2.28-1.76 3.38-2.65.52-.5-.22-1.24-.8-.8Z"/>
  <path fill="#b7e5e4" d="m161.22 149.96 36.5-25.85 105.93 78-34.81 24.62-107.62-76.77Z"/>
  <path fill="#142145" d="M161.51 150.48c4.12-2.94 8.23-5.88 12.42-8.74 6.54-4.63 13.07-9.26 19.61-13.96l4.56-3.23h-.6c.96.66 1.92 1.4 2.87 2.05a518.1 518.1 0 0 0 7.72 5.66c3.82 2.8 7.56 5.58 11.38 8.38 4.63 3.45 9.26 6.83 13.89 10.28 5.06 3.75 10.13 7.42 15.13 11.17 5.14 3.74 10.28 7.56 15.35 11.3l14.33 10.59c4.04 3 8.08 5.95 12.12 8.96 2.93 2.13 5.8 4.26 8.74 6.39.88.66 1.83 1.32 2.72 1.98.41.4.88.75 1.39 1.03.08 0 .14.07.15.15v-.96c-3.9 2.8-7.86 5.51-11.76 8.3l-18.73 13.22c-1.47 1.03-2.86 2.06-4.33 3.09h.59c-.96-.66-1.91-1.4-2.87-2.06-2.64-1.83-5.21-3.74-7.86-5.58-3.9-2.8-7.71-5.5-11.6-8.3-4.7-3.38-9.4-6.68-14.1-10.06-5.15-3.68-10.37-7.35-15.5-11.02-5.22-3.75-10.44-7.42-15.65-11.17l-14.55-10.36-12.34-8.81c-2.94-2.13-5.88-4.19-8.89-6.32-1.4-.95-2.72-2.05-4.19-3.01-.07-.07-.14-.07-.22-.15-.58-.44-1.1.52-.58.96.95.66 1.9 1.4 2.86 2.06 2.65 1.83 5.22 3.74 7.86 5.58 3.9 2.79 7.71 5.5 11.6 8.3 4.7 3.38 9.41 6.68 14.11 10.06 5.14 3.68 10.36 7.35 15.5 11.02 5.22 3.75 10.43 7.42 15.65 11.17l14.54 10.35 12.34 8.82c2.94 2.13 5.88 4.19 8.9 6.32 1.39.95 2.7 2.05 4.18 3 .07.08.15.08.22.16.19.07.4.07.59 0 3.89-2.8 7.86-5.51 11.75-8.3l18.73-13.23c1.47-1.03 2.87-2.05 4.34-3.08a.55.55 0 0 0 0-.96c-.96-.66-1.91-1.4-2.87-2.06-2.57-1.9-5.14-3.82-7.71-5.65-3.82-2.8-7.57-5.59-11.39-8.38-4.63-3.45-9.26-6.83-13.88-10.28-5.07-3.75-10.14-7.42-15.13-11.17-5.15-3.74-10.29-7.56-15.36-11.3l-14.32-10.59c-4.04-3-8.08-5.95-12.12-8.96-2.94-2.13-5.8-4.26-8.74-6.39-1.4-1.03-2.72-2.13-4.12-3.01-.07-.07-.14-.07-.14-.15a.8.8 0 0 0-.6 0 751.18 751.18 0 0 1-12.4 8.74c-6.54 4.63-13.08 9.26-19.62 13.96l-4.55 3.23c-.6.37 0 1.32.58.96Zm144.35 89.98V506.9c0 .3.25.56.55.56.3 0 .55-.25.55-.56V251.78c0-3.6.07-7.2 0-10.73v-.44c0-.88-1.1-.88-1.1-.15Zm-5.58 6.54v261c0 .3.24.55.55.55.3 0 .55-.25.55-.55V258.17c0-3.53.07-7.05 0-10.58v-.44c0-.88-1.1-.88-1.1-.15Zm-5.58 5.58v256.15c0 .3.24.55.54.55.3 0 .55-.25.55-.55V263.46c0-3.46.08-6.98 0-10.43v-.45a.56.56 0 0 0-.55-.5.56.56 0 0 0-.55.5ZM94.45 137.99V85.17c0-.3-.25-.55-.55-.55-.3 0-.56.25-.56.55V138a.55.55 0 0 0 1.11 0Zm-1.11 48.48v175.27a.55.55 0 0 0 1.11 0V186.4c0-.66-1.1-.66-1.1.07Zm10.22-7.34V349.7c0 1.54-.08 3.15 0 4.77v.15c0 .3.24.55.55.55.3 0 .55-.25.55-.55V187.13c0-2.57.07-5.06 0-7.64v-.34c0-.3-.25-.55-.55-.55-.3 0-.54.23-.55.53Zm0-88.45v40.04c0 .3.24.55.55.55.3 0 .55-.25.55-.55V90.68a.56.56 0 0 0-.55-.5.56.56 0 0 0-.55.5Zm7.56 82.86v176.74c0 .3.25.55.55.55.3 0 .55-.24.55-.55V181.55c0-2.57.08-5.07 0-7.64v-.3c0-.73-1.1-.73-1.1-.07Zm0-88.59v40.26c0 .3.25.55.55.55.3 0 .55-.25.55-.55V84.95c0-.3-.24-.55-.55-.55-.3 0-.55.25-.55.55Zm6.47 83.97v160.94c0 5.36-.08 10.8 0 16.16v.3c0 .3.24.55.55.55.3 0 .55-.25.55-.55V176.85c0-2.5.07-5 0-7.5v-.29c0-.8-1.1-.8-1.1-.14Zm8.37-6.02v177.32c0 .3.25.55.55.55.3 0 .55-.25.55-.55V170.6c0-2.43.08-4.85 0-7.28v-.3c0-.8-1.1-.8-1.1-.14Zm8.74-6.33v169.54c0 2.28-.07 4.56 0 6.84v.3c0 .3.25.54.55.54.3 0 .55-.25.55-.55V163.7c0-2.28.08-4.55 0-6.83v-.3c0-.3-.25-.55-.55-.55-.3 0-.55.25-.55.55Z"/>
  <path fill="#9acdf2" d="M172.46 239.66V196.6l-12.78-9.48v43.12l12.78 9.4Zm79.55 56.19V252.8l-12.78-9.47v43.04l12.78 9.48Zm-20.56-14.98v-43.05l-12.79-9.48v43.05l12.79 9.48Zm-38.35-26.23V211.6l-12.85-9.48v43.04l12.85 9.48Zm58.91 172.26v-43.12l-12.78-9.4v43.04l12.78 9.48Zm-20.56-14.99v-43.04l-12.79-9.48v43.05l12.79 9.47Zm-51.2-38.41v2.71l12.85 9.48v-22.4m-33.42 26.73v35.85l12.78 9.4v-43.04l-8.08-5.95m87.63 105.19v-43.05l-12.78-9.47v43.04l12.78 9.48Zm-20.56-14.99v-43.04l-12.79-9.48v43.05l12.79 9.47Zm-38.35-26.22V407.2l-12.85-9.47v43.12l12.85 9.4Z"/>
  <path fill="#60a7a7" d="M316.07 87.75c-.22-1.33 9.99-8.9-2.8-20.72C300.5 55.2 293.9 40.29 283.6 45.36c-10.28 5-43.41 23.65-22.11 50.4 21.3 26.73 54.58-8.01 54.58-8.01Z"/>
  <path fill="#142145" d="M290.95 124.55v-18.8c0-5.3.22-10.58-.15-15.8l-.88-11.31c-.07-.74-1.18-.74-1.1 0 .36 5 1.03 10.06 1.03 15.06v30.85c0 .3.24.55.55.55.3 0 .55-.25.55-.55Z"/>
  <path fill="#142145" d="M294.77 64.46c-1.7 4.11-3.46 8.15-5.15 12.27-.22.58-.51 1.17-.73 1.76.3-.07.51-.22.8-.3-3.6-2.34-7.12-4.7-10.72-6.97-.59-.37-1.17.59-.59.95 3.6 2.35 7.13 4.7 10.73 6.98a.56.56 0 0 0 .8-.3c1.7-4.1 3.46-8.15 5.15-12.26.22-.59.51-1.18.73-1.76.3-.74-.8-1.03-1.02-.37Zm8.44 17.78c-3.82 3.08-7.7 6.17-11.53 9.33-.51.44-1.1.88-1.62 1.32-.58.44.22 1.25.81.8 3.82-3.08 7.72-6.16 11.54-9.32.51-.44 1.1-.88 1.61-1.33.52-.44-.3-1.24-.8-.8Zm-123.7 217.28a3503.96 3503.96 0 0 0-28.5 22.26c-4.63 3.6-9.26 7.27-13.96 10.87l-1.03.81-.14.08a30.3 30.3 0 0 0-2.5 1.68c-3.97 2.58-7.86 5.22-11.83 7.8-5.95 3.96-11.9 7.85-17.85 11.82L83 368.5c-6.61 4.33-13.15 8.74-19.76 13.08l-15.58 10.28-7.86 5.22c-.14.07-.22.14-.36.22a.56.56 0 0 0 .58.95c1.84-1.17 3.68-2.42 5.51-3.6 4.63-3.08 9.33-6.17 13.96-9.25 6.4-4.26 12.78-8.45 19.17-12.71 6.9-4.56 13.81-9.18 20.8-13.74 6.31-4.19 12.55-8.3 18.87-12.49l13.6-8.96c1.6-1.1 3.37-2.13 4.91-3.3 3.53-2.65 6.98-5.44 10.5-8.23l19.1-14.91c4.41-3.46 8.82-6.9 13.23-10.29.22-.14.44-.36.66-.51.51-.44-.3-1.18-.8-.74Zm48.56 35.04c-1.18.96-2.43 1.91-3.6 2.87-3.23 2.57-6.4 5.14-9.63 7.71-4.7 3.75-9.32 7.5-14.03 11.24l-16.6 13.3-17.7 14.17c-5.66 4.56-11.31 9.04-16.97 13.6L135 409.11c-3.53 2.8-6.98 5.58-10.5 8.45-1.62 1.25-3.24 2.57-4.78 3.82a296.32 296.32 0 0 1-28.14 20.57 170.37 170.37 0 0 1-7.86 4.7.56.56 0 0 0 .59.95 258.33 258.33 0 0 0 33.28-23.06l5.87-4.78c3.09-2.5 6.17-4.92 9.26-7.42 4.55-3.67 9.18-7.34 13.73-11.01l16.53-13.23c5.88-4.7 11.76-9.4 17.7-14.17 5.74-4.56 11.4-9.11 17.12-13.67 4.92-3.96 9.92-7.93 14.84-11.9 3.6-2.94 7.27-5.8 10.87-8.74 1.76-1.4 3.53-2.72 5.22-4.18.07-.08.14-.15.22-.15.44-.44-.37-1.18-.88-.74ZM16.88 235.84l4.77 3.67c.8.59 1.62 1.25 2.43 1.84.07.07.29.29.14.07l.22.22a39.24 39.24 0 0 1 6.54 8.3c2.87 5 4.48 10.87 3.01 16.6-1.84 7.27-7.64 12.2-13.52 16.3-7.7 5.45-15.64 10.66-23.5 15.88a.56.56 0 0 0 .31 1.02c.1 0 .2-.02.28-.07 7.49-4.92 14.98-9.92 22.33-14.98 5.87-4.12 11.82-8.6 14.47-15.58 3.82-9.99-1.54-20.71-8.74-27.76-.81-.74-1.62-1.4-2.5-2.06a308.65 308.65 0 0 0-5.73-4.34c-.51-.44-1.03.52-.51.89Z"/>
  <path fill="#142145" d="M11.37 344.85c5.14-3.46 10.28-6.83 15.35-10.29 8.96-6.02 17.92-11.97 26.89-18 3.67-2.42 7.34-4.84 11.01-7.41a84.38 84.38 0 0 0 15.72-14.1c7.2-8.38 12.93-18.45 13.96-29.61a40.58 40.58 0 0 0-3.01-19.1 54.25 54.25 0 0 0-7.35-12.63 19.77 19.77 0 0 0-1.9-2.43c-.08-.07-.15-.07-.23-.14-1.32-1.18-2.79-2.2-4.18-3.31-2.8-2.2-5.66-4.48-8.45-6.69a5617.13 5617.13 0 0 1-24.39-19.39c-8.37-6.61-16.67-13.22-25.05-19.83-4.85-3.82-9.7-7.71-14.54-11.53-.22-.15-.44-.37-.66-.52-.52-.44-1.33.37-.81.8 3.38 2.73 6.83 5.45 10.2 8.09l23.37 18.51c8.45 6.69 16.9 13.44 25.34 20.13 5.58 4.4 11.17 8.89 16.82 13.3.52.44 1.03.8 1.54 1.24.09.1.19.17.3.22.4.44.77.9 1.1 1.4.74.95 1.47 1.9 2.13 2.86a47.04 47.04 0 0 1 8.38 19.84c1.76 11.68-2.36 23.14-9.04 32.61a81.02 81.02 0 0 1-17.78 18c-2.71 1.98-5.58 3.82-8.37 5.66-8.45 5.65-16.9 11.3-25.27 16.96-6.83 4.56-13.66 9.19-20.57 13.74-.37.22-.73.52-1.1.74-.59.29 0 1.24.59.88Z"/>
  <path fill="#467b75" d="M117.95 472.15s-3.3.15 17.27 9.77c9.1 4.26 14.25 6.61 17.04 7.93 7.05-27.1-30.27-47.3-30.27-47.3-1.32.66-12.41-8.09-20.71 9.77a77.71 77.71 0 0 1-3.09 6.02l19.76 13.8Z"/>
</svg>
