<svg xmlns="http://www.w3.org/2000/svg" xml:space="preserve" fill-rule="evenodd" stroke-miterlimit="10" clip-rule="evenodd" viewBox="0 0 720 720">
  <path fill="#1500f9" fill-rule="nonzero" d="M663.9 477.2V367.7c-.1-.8-1-1.7-1.4-2.4l-3.8-5.7-12.4-18.8-14.8-22.5-12.5-19-3.8-5.8-1.4-2.2c-.8-.7-1.6-1.2-2.5-1.7l-6.4-4.2-20.2-13.1-22.1-14.3-14.3-9.3c-.7-.4-1.4-1.1-2.2-.8l-3 1.5-16.3 8.2-23.4 11.8-22.9 11.6-15 7.6-2.1 1.1c-.2.1-.4.3-.4.6v122c0 .4.3.8.8.8.4 0 .7-.4.7-.8V290.4a2 2 0 0 1-.4.6l8.2-4.1 19.8-10 23.9-12.1 20.7-10.5 6.8-3.4 2.2-1.1a6 6 0 0 0 1.1-.6l.1-.1h-.8l18.2 11.8 33 21.4 11.9 7.7 3.1 2 .6.4-.1-.1 1.4 2.1 2.7 4.1 8.4 12.8 21.8 33.1L662 367l.6.9c.3.3 0 .3.1-.1v109.6c-.3.8 1.2.8 1.2-.2"/>
  <path fill="#1500f9" fill-rule="nonzero" d="M613.1 292.6c.4 0 .8-.3.8-.8 0-.4-.4-.7-.8-.7s-.8.3-.8.8c0 .4.4.7.8.7m50 75.8c.4 0 .8-.3.8-.8 0-.4-.4-.7-.8-.7s-.8.3-.8.8c0 .4.4.7.8.7"/>
  <path fill="#1500f9" fill-rule="nonzero" d="m662.8 367.1-8 4.3-19.3 10.3-23.4 12.4-20.2 10.8-6.7 3.6c-1 .6-2.2 1-3.2 1.7l-.1.1c-.9.5-.1 1.7.8 1.3l8-4.3L610 397l23.4-12.4 20.2-10.8 6.7-3.6c1-.6 2.2-1 3.2-1.7l.1-.1c.8-.5 0-1.8-.8-1.3"/>
  <path fill="#ead79b" fill-rule="nonzero" d="M599.8 291.8 546 256.5l-69 35.1 55.2 35.1 67.6-34.9Z"/>
  <path fill="#142145" fill-rule="nonzero" d="m600.2 291.2-18.2-12-29-19.1-6.7-4.4c-.2-.2-.5-.1-.8 0l-23.4 11.9-37.1 18.9-8.5 4.3a.8.8 0 0 0 0 1.3l21.4 13.6 30.4 19.3 3 1.9c.5.3 1 .3 1.5 0l8.4-4.3 34.2-17.6c8.1-4.2 16.3-8.2 24.3-12.5l.4-.2c.9-.4.1-1.7-.8-1.3l-23 11.9-36.3 18.7-8.3 4.3h.8L513.8 314l-29.7-18.9-6.8-4.3v1.3l23.4-11.9 37.1-18.9 8.5-4.3h-.8l18.2 12 29 19.1 6.7 4.4c.8.5 1.6-.8.8-1.3"/>
  <path fill="#0ee2d2" fill-rule="nonzero" d="m473.2 314.6 12.9 8.3v34l-12.9-8.6v-33.7Z"/>
  <path fill="#142145" fill-rule="nonzero" d="m472.9 315.2 12.9 8.3a2 2 0 0 0-.4-.6v34l1.1-.6-12.9-8.6.4.6v-33.7c0-.4-.3-.8-.8-.8-.4 0-.7.4-.7.8v32c0 .5-.2 1.6.1 2.1l.9.7 2 1.3 10.2 6.8.4.1c.4 0 .7-.3.7-.7v-34.2c-.2-.9-2.1-1.7-2.9-2.2l-10.4-6.7c-.7-.4-1.5.9-.6 1.4"/>
  <path fill="#0ee2d2" fill-rule="nonzero" d="m473.2 368 12.9 8.3v34l-12.9-8.6V368Z"/>
  <path fill="#142145" fill-rule="nonzero" d="m472.9 368.6 12.9 8.3a2 2 0 0 0-.4-.6v34l1.1-.6-12.9-8.6.4.6V368c0-.4-.3-.8-.8-.8-.4 0-.7.4-.7.8v32c0 .5-.2 1.6.1 2.1l.9.7 2 1.3 10.2 6.8.4.1c.4 0 .7-.3.7-.7v-34.2c-.2-.9-2.1-1.7-2.9-2.2l-10.4-6.7c-.7-.4-1.5.9-.6 1.4"/>
  <path fill="#0ee2d2" fill-rule="nonzero" d="m499.3 330.2 12.8 8.3v34l-12.8-8.5v-33.8Z"/>
  <path fill="#142145" fill-rule="nonzero" d="m498.9 330.9 12.9 8.3a2 2 0 0 0-.4-.6v34l1.1-.6-12.9-8.6.4.6v-33.7c0-.4-.3-.8-.8-.8-.4 0-.7.4-.7.8v32c0 .5-.2 1.6.1 2.1l.9.7 2 1.3 10.2 6.8.4.1c.4 0 .7-.3.7-.7v-34.2c-.2-.9-2.1-1.7-2.9-2.2l-10.4-6.7c-.7-.4-1.4.9-.6 1.4"/>
  <path fill="#0ee2d2" fill-rule="nonzero" d="m499.3 383.6 12.8 8.3v34l-12.8-8.6v-33.7Z"/>
  <path fill="#142145" fill-rule="nonzero" d="m498.9 384.3 12.9 8.3a2 2 0 0 0-.4-.6v34l1.1-.6-12.9-8.6.4.6v-33.7c0-.4-.3-.8-.8-.8-.4 0-.7.4-.7.8v32c0 .5-.2 1.6.1 2.1l.9.7 2 1.3 10.2 6.8.4.1c.4 0 .7-.3.7-.7v-34.2c-.2-.9-2.1-1.7-2.9-2.2l-10.4-6.7c-.7-.5-1.4.8-.6 1.4m41.3 79v-89.8l-1.4.4 5 9 1.2 2.1.3.5c.2.2-.1 0 0-.2v81.4c0 .4.3.8.8.8.4 0 .7-.4.7-.8V387c.1-1 0-2-.5-2.8l-5.6-10.1-.5-.9a.7.7 0 0 0-1.4.4v89.7c0 .4.3.7.7.7.4 0 .7-.3.7-.7m16.9 10.2v-77.7l-1.4.4a297 297 0 0 0 4.3 7.7c.7 1.2 1.3 2.6 2.1 3.8.3.4 0 0 0-.1v70.2c0 .4.3.7.8.7.4 0 .7-.3.7-.7v-70.2c-.4-1-1-2-1.6-3l-5-9.1a.7.7 0 0 0-1.4.4v77.7c0 .9 1.5.9 1.5-.1m90.2-69.4-17.2 9.7-27.4 15.5-6.3 3.5c-.2.1-.4.3-.4.6v11a.7.7 0 0 0 1.1.6l17.2-9.4 27.4-15 6.3-3.5c.2-.1.4-.3.4-.6v-11.9c0-.4-.3-.7-.8-.7-.4 0-.7.3-.7.7v11.9l.4-.6-17.2 9.4-27.4 15-6.3 3.5 1.1.6v-11a2 2 0 0 1-.4.6l17.2-9.7 27.4-15.5 6.3-3.5c.9-.4.1-1.7-.7-1.2m0 20.8-17.2 9.7-27.4 15.5-6.3 3.5c-.2.1-.4.3-.4.6v11a.7.7 0 0 0 1.1.6l17.2-9.4 27.4-15 6.3-3.5c.2-.1.4-.3.4-.6v-11.9c0-.4-.3-.7-.8-.7-.4 0-.7.3-.7.7v11.9l.4-.6-17.2 9.4-27.4 15-6.3 3.5 1.1.6v-11a2 2 0 0 1-.4.6l17.2-9.7 27.4-15.5 6.3-3.5c.9-.3.1-1.6-.7-1.2m-46.1 78 15.8-8.7 25.3-13.9 5.8-3.2c.2-.1.4-.3.4-.6v-11.9a.7.7 0 0 0-1.1-.6l-17.2 9.7-27.4 15.5-6.3 3.5c-.2.1-.4.3-.4.6v6.2c0 .4.3.8.7.8.5 0 .8-.4.8-.8v-6.2a2 2 0 0 1-.4.6l17.2-9.7 27.4-15.5 6.3-3.5a11 11 0 0 1-1.1-.6v11.9l.4-.6-15.8 8.7-25.3 13.9-5.8 3.2c-.9.4-.2 1.7.7 1.2m47.2-14.6v-4.1a.7.7 0 0 0-1.1-.6l-13.5 7.6-21.5 12.1-5 2.8a.8.8 0 0 0 .8 1.3l13.5-7.6 21.5-12.1 5-2.8a11 11 0 0 1-1.1-.6v4.1c-.1.9 1.4.9 1.4-.1"/>
  <path fill="#1500f9" fill-rule="nonzero" d="M40.8 79.4c.4 0 .8-.3.8-.8 0-.4-.4-.7-.8-.7s-.8.3-.8.8c0 .4.4.7.8.7"/>
  <path fill="#142145" fill-rule="nonzero" d="M256.9 202.6a40 40 0 0 1 6.1 4l9.8 7.3 13.8 10.2 5.2 3.8 13.1 9.5 18.5 13.4 21.2 15.3a4005 4005 0 0 1 21.5 15.6l19.3 13.9 14.4 10.4c2.3 1.7 4.6 3.5 7 5.1l.3.2c.8.6 1.5-.7.8-1.3l-4.9-3.5-12.9-9.3a2869.9 2869.9 0 0 1-39.4-28.6L329.1 253l-19.3-14-14.7-10.6-7.4-5.4-9.1-6.8-17.9-13.3-3-1.8c-.9-.3-1.7 1-.8 1.5M49.6 284.2l14.2-10.9 31.5-24.2a7243 7243 0 0 0 32.9-25.3l18.1-13.9c1.9-1.4 3.7-2.9 5.7-4.2a95.7 95.7 0 0 1 34.7-14.2c.9-.2.5-1.6-.4-1.4a101 101 0 0 0-38.1 16.6l-1.9 1.5-.3.3c-4.9 4-10 7.7-15 11.6l-32 24.6-32.6 25.1L49.2 283l-.3.2c-.8.3-.1 1.6.7 1"/>
  <path fill="#142145" fill-rule="nonzero" d="m22.1 236.3 17-13 38.5-29.6 41.4-31.8 25.8-19.8c4-3.2 8.3-6 12.8-8.4a95.6 95.6 0 0 1 50.6-10.6c13.1 1 26 4.1 38.1 9.4a224 224 0 0 1 40 24.4l70.2 50.4 61.2 44 32.8 23.6 1.5 1.1c.8.6 1.5-.7.8-1.3L429.5 258 373 217.4l-70.3-50.5c-12.2-8.8-24.2-18.2-37.1-26a136 136 0 0 0-40.1-16.8c-19.5-4.6-40-3.2-58.7 3.8a87.7 87.7 0 0 0-19.8 10.7l-1 .8-.1.1-18.7 14.3L87.9 184l-41.2 31.6-24.2 18.6-1.2.9c-.7.5 0 1.8.8 1.2m591.4 54.9-7.8-5a1869 1869 0 0 1-18.2-11.8l-20.8-13.5-16-10.3-3.8-2.4c-.5-.3-1.1-.3-1.6 0l-10.4 5.2-19.4 9.8-22.4 11.3-19.3 9.7-10.4 5.2-.5.2c-.2.1-.4.3-.4.6v122c0 .4.3.7.8.7.4 0 .7-.3.7-.7V290.3a2 2 0 0 1-.4.6l8.2-4.1 19.8-10 23.9-12.1 20.7-10.5 6.8-3.4 2.2-1.1a6 6 0 0 0 1.1-.6l.1-.1h-.8l22.7 14.7 35.9 23.2 8.3 5.3c1.1.8 1.8-.5 1-1M41.3 376.8l-13.9-10.9-22.1-17.4-5.1-4c-.8-.6-1.8.5-1.1 1.1L13 356.5l22.1 17.4 5.1 4c.8.6 1.9-.5 1.1-1.1m-8.5-105.5L17.1 259l-2.2-1.7c-.8-.6-1.8.5-1.1 1.1l15.7 12.3 2.2 1.7c.8.6 1.9-.5 1.1-1.1"/>
  <path fill="#142145" fill-rule="nonzero" d="m52.5 286.7-17.3-13.5-2.4-1.9c-.8-.6-1.8.5-1.1 1.1L49 285.9l2.4 1.9c.8.5 1.9-.5 1.1-1.1M457 347.9l5.4 3.6.8.5a.7.7 0 0 0 1-.3l.1-.4c0-.2-.2-.5-.4-.6l-5.4-3.6-.8-.5a.7.7 0 0 0-1 .3c-.2.4 0 .8.3 1m206.9 129.3V367.8c-.2-.7-.6-1.4-1.1-2l-9.8-14.9-15.4-23.4-14.9-22.6-8.5-12.8-.4-.6a.8.8 0 0 0-1-.3l-8 4.3-19.3 10.3-23.4 12.4-20.2 10.8-6.7 3.6c-1 .6-2.2 1-3.2 1.7l-.1.1c-.3.2-.5.6-.3 1l15.2 23.1a7926.1 7926.1 0 0 0 33.8 51.1l.8 1.2c.3.4.1.4.1 0v79.4c0 .4.3.8.8.8.4 0 .7-.4.7-.8v-78.8c0-.5 0-1-.3-1.4l-6.1-9.3-11.7-17.7-13.6-20.6-11.8-17.9-6.3-9.6-.3-.4-.3 1 8-4.3 19.3-10.3 23.4-12.4 20.2-10.8 6.7-3.6 2.1-1.1a6 6 0 0 0 1.1-.6l.1-.1-1-.3 6 9 13.9 21 15.8 24 11.8 17.8a31 31 0 0 0 2.5 3.8c.3.4.1-.2 0 0V477c-.1 1.2 1.4 1.2 1.4.2"/>
  <path fill="#142145" fill-rule="nonzero" d="m582.6 411.4 8-4.3 19.3-10.3 23.4-12.4 20.2-10.8 6.7-3.6c1-.6 2.2-1 3.2-1.7l.1-.1c.9-.5.1-1.7-.8-1.3l-8 4.3-19.3 10.3-23.4 12.4-20.2 10.8-6.7 3.6c-1 .6-2.2 1-3.2 1.7l-.1.1c-.9.5-.1 1.8.8 1.3m135.9-19.1-23.6-16.5a8399.9 8399.9 0 0 0-45.8-31.9c-.8-.6-1.5.7-.8 1.3l23.6 16.5a8399.9 8399.9 0 0 0 46.2 32c.4 0 .7-.3.7-.8 0-.2 0-.5-.3-.6M463.2 291l23.3 15.1 36.9 23.9 8.5 5.5c.8.5 1.6-.8.8-1.3l-23.3-15.1-36.9-23.9-8.5-5.5a.8.8 0 0 0-.8 1.3m249-3.8-10.9-7.6-29.5-20.6a24914 24914 0 0 0-43.9-30.6l-53.4-37.2-58.4-40.7-59-41.1-55-38.3-46.6-32.5-33.3-23.2c-5.3-3.7-10.5-7.5-15.8-11l-.7-.5c-.8-.6-1.5.7-.8 1.3l10.9 7.6 29.5 20.6A24914 24914 0 0 0 389.2 64l53.4 37.2 58.4 40.7 59 41.1 55 38.3 46.6 32.5 33.3 23.2c5.3 3.7 10.5 7.5 15.8 11l.7.5c.8.5 1.6-.8.8-1.3M414.1 101.9 389.8 115l-38.4 20.7-8.8 4.7h.8L321 124.7l-35.4-24.8-8.1-5.7v1.3l24-12.2 37.9-19.2 8.7-4.4h-.8L370 74.4l35.9 23.2 8.3 5.3c.8.5 1.6-.8.8-1.3l-22.7-14.7-36-23.3-5.5-3.6-2.5-1.6c-.6-.3-1.2.1-1.8.4l-4.3 2.2L306 79.3l-28.7 14.5-.5.2a.8.8 0 0 0 0 1.3l22.4 15.7 35.4 24.8 8.1 5.7c.2.2.5.1.8 0l24.3-13.1 38.4-20.7 8.8-4.7c.7-.3-.1-1.6-.9-1.1"/>
  <path fill="#142145" fill-rule="nonzero" d="m404.5 101.2-19.3-12.5L355 69.2l-4.4-2.9c-.6-.5-1.2-.9-1.9-1.2-.6-.3-1.2.2-1.8.5l-3.8 1.9L312 82.8c-8 4-16.2 7.7-24.1 11.9l-.4.2a.8.8 0 0 0 0 1.3l18.8 13.2 30.1 21 6.9 4.8c.2.2.5.1.8 0l20.4-11 32.6-17.6 7.5-4.1a.8.8 0 0 0-.8-1.3l-20.4 11-32.6 17.6-7.5 4.1h.8l-18.8-13.2-30.1-21-6.9-4.8v1.3l20.4-10.1 32.5-16 7.5-3.7h-.8l18.9 12.3 30 19.4 6.9 4.5h.3c.5 0 .8-.3.8-.7 0-.3 0-.5-.3-.7"/>
  <path fill="#9ce8c2" fill-rule="nonzero" d="m397.6 101.4-50.2-32L295.3 95l49.1 35.1 53.2-28.7Z"/>
  <path fill="#142145" fill-rule="nonzero" d="M398 100.7 381.2 90l-26.9-17.1c-2.1-1.3-4.2-2.9-6.4-4.1-.5-.3-.9-.1-1.4.1l-2.9 1.4-26.7 13.1c-7.2 3.5-14.5 6.9-21.6 10.6l-.4.2a.8.8 0 0 0 0 1.3l16.5 11.8 26.5 19 6.1 4.3c.2.2.5.1.8 0l18.1-9.7 28.6-15.4 6.6-3.6a.8.8 0 0 0-.8-1.3l-18.1 9.7-28.6 15.4-6.6 3.6h.8l-16.5-11.8-26.5-19-6.1-4.3v1.3l17.6-8.7 28-13.7 6.4-3.2h-.8l17 10.8 27 17.1 6.3 4 .5.2c.4 0 .7-.3.7-.7 0-.2-.2-.5-.4-.6M276.4 95v53.9c0 .4.3.8.8.8.4 0 .7-.4.7-.8V95c0-.4-.3-.8-.8-.8-.4 0-.7.4-.7.8m9.9 7.8v52.8c0 .4.3.8.8.8.4 0 .7-.4.7-.8v-52.8c0-.4-.3-.8-.8-.8-.4 0-.7.4-.7.8m13 9.1V166c0 .4.3.8.8.8.4 0 .7-.4.7-.8v-54.1c0-.4-.3-.8-.8-.8-.4 0-.7.4-.7.8m11.7 7.8v54.1c0 .4.3.8.8.8.4 0 .7-.4.7-.8v-54.1c0-.4-.3-.7-.8-.7-.4 0-.7.3-.7.7m11.7 7.8v54.1c0 .4.3.8.8.8.4 0 .7-.4.7-.8v-54.1c0-.4-.3-.8-.8-.8-.4 0-.7.4-.7.8m91-25v146c0 .4.3.7.8.7.4 0 .7-.3.7-.7v-146c0-.4-.3-.8-.8-.8-.4 0-.7.4-.7.8m-14.5 8.1v127.3c0 .4.3.7.8.7.4 0 .7-.3.7-.7V110.6c0-.4-.3-.8-.8-.8-.4 0-.7.4-.7.8m-17 182.4v37.1c0 .4.3.8.8.8.4 0 .7-.4.7-.8V293c0-.4-.3-.8-.8-.8-.4 0-.7.4-.7.8m0-172v104.5c0 .4.3.7.8.7.4 0 .7-.3.7-.7V121c0-.4-.3-.8-.8-.8-.4 0-.7.4-.7.8m17.7 196.3v-12.7c0-.4-.3-.8-.8-.8-.4 0-.7.4-.7.8v12.7c0 .4.3.8.8.8.4 0 .7-.4.7-.8m-32-34.7v61.7c0 .4.3.8.8.8.4 0 .7-.4.7-.8v-61.7c0-.4-.3-.8-.8-.8-.4 0-.7.4-.7.8"/>
  <path fill="#142145" fill-rule="nonzero" d="M368.7 283.4c.4 0 .8-.3.8-.8 0-.4-.4-.7-.8-.7s-.8.3-.8.8c0 .4.4.7.8.7m-.8-156.2v88c0 .4.3.8.8.8.4 0 .7-.4.7-.8v-88c0-.9-1.5-1-1.5 0M150 68.4h102.4s-.4-.3-.1.1c1.2 1 2.5 2 3.9 2.8l27.9 19.8.7.5c.8.6 1.5-.7.8-1.3l-25.5-18.1-5.7-4c-.6-.4-1.2-1.1-1.9-1.2-2-.2-4.1-.2-6.2 0h-73.4c-7.5 0-15-.2-22.5 0h-.4c-.4 0-.7.3-.7.7 0 .4.3.7.7.7m348.1 170.1a417 417 0 0 1-8.3-5.8l-19.9-13.9-24-16.8-20.8-14.5-6.9-4.8-3.2-2.3-.1-.1c-.8-.6-1.5.7-.8 1.3a417 417 0 0 1 8.3 5.8l19.9 13.9 24 16.8 20.8 14.5 6.9 4.8 3.2 2.3.1.1c.8.5 1.6-.8.8-1.3m165.4 186.7 10.3-7.9h-.8l10.2 6.5v-1.3l-17.9 13.6-2.5 1.9c-.8.6 0 1.9.8 1.3l17.9-13.6 2.5-1.9a.8.8 0 0 0 0-1.3l-10.2-6.5c-.2-.1-.6-.2-.8 0l-10.3 7.9c-.7.5.1 1.8.8 1.3m0 28 26.1-20.1 3.7-2.9h-.8l10.2 6.5v-1.3l-13.5 10.3-21.5 16.4-5 3.8c-.8.6 0 1.9.8 1.3l13.5-10.3 21.5-16.4 5-3.8a.8.8 0 0 0 0-1.3l-10.2-6.5c-.2-.1-.6-.2-.8 0L666.4 449l-3.7 2.9c-.7.6.1 1.9.8 1.3M459.3 706.9V668c0-.4-.3-.8-.8-.8-.4 0-.7.4-.7.8v38.9c0 .4.4.7.8.7.3 0 .7-.3.7-.7m-10.4 2.8v-43.9c0-.4-.3-.7-.8-.7-.4 0-.7.3-.7.7v43.9c0 .4.3.8.8.8.4 0 .7-.4.7-.8m-3.9 1.2v-45.7c0-.4-.3-.8-.8-.8-.4 0-.7.4-.7.8v45.7c0 .4.4.7.8.7.3 0 .7-.3.7-.7M287.8 470.6v-237c0-3.2.2-6.5 0-9.7v-.4c0-.5-.7-1-1.1-.6l-22.4 16-51.3 36.7-56.3 40.2-38.3 27.4-3.9 2.8c-.6.4-1.2.7-1.4 1.4v275.8c0 .4.3.8.7.8.5 0 .8-.4.8-.8V347.6c.8.5-.9.7-.1.4a6 6 0 0 0 1-.7l30.6-21.9 54.1-38.7 54.4-38.9 31.4-22.4 1.5-1.1a11 11 0 0 1-1.1-.6v237c0 3.2-.2 6.5 0 9.7v.4c-.1.8 1.4.8 1.4-.2m0 242.6V574.5c0-.4-.3-.8-.8-.8-.4 0-.7.4-.7.8v138.7c0 .4.4.7.8.7.3 0 .7-.3.7-.7M40.1 377.4v149.8c0 .4.3.7.8.7.4 0 .7-.3.7-.7V377.4c0-.4-.3-.8-.8-.8-.4 0-.7.4-.7.8"/>
  <path fill="#142145" fill-rule="nonzero" d="m51.6 286.6-8.5 6.1-2.1 1.5-.9.7c-.1.3-.2.7-.1 1v81.5c0 .4.3.8.8.8.4 0 .7-.4.7-.8v-82.1a2 2 0 0 1-.4.6l11.2-8c.8-.6.1-1.9-.7-1.3"/>
  <path fill="#142145" fill-rule="nonzero" d="m213.6 170.8-4.4 3.1-11.8 8.4-17.4 12.4-21.2 15.2-23.4 16.7-23.5 16.8L90 259.1l-18.5 13.2-13.4 9.6-6.3 4.5-.3.2c-.8.6 0 1.9.8 1.3l4.4-3.1 11.8-8.4L85.9 264l21.2-15.2 23.4-16.7 23.5-16.8 21.9-15.7 18.5-13.2 13.4-9.6 6.3-4.5.3-.2c.7-.6 0-1.9-.8-1.3"/>
  <path fill="#142145" fill-rule="nonzero" d="m40.4 295.8 7.2 5.2 17.5 12.5 21.1 15 18.2 13 6.1 4.3a18 18 0 0 0 2.8 2l.1.1c.3.1.5.1.8 0l4.6-3.3 12.6-9 18.7-13.3 22.7-16.2 24.9-17.8 25.1-17.9 23.5-16.8 19.8-14.1 14.3-10.2 6.7-4.8.3-.2a.8.8 0 0 0 0-1.3l-7.2-5.2-17.5-12.5-21.1-15-18.2-13-6.1-4.3a18 18 0 0 0-2.8-2l-.1-.1c-.8-.6-1.5.7-.8 1.3l7.2 5.2 17.5 12.5 21.1 15 18.2 13 6.1 4.3 1.9 1.3 1 .7.1.1V223l-4.6 3.3-12.6 9-18.7 13.3-22.7 16.2-24.9 17.8-25.1 17.9-23.5 16.8-19.8 14.1-14.3 10.2-4.4 3.1c-.8.5-1.6 1-2.3 1.7l-.3.2h.8l-7.2-5.2-17.5-12.5-21.1-15-18.2-13-6.1-4.3a18 18 0 0 0-2.8-2l-.1-.1H41a.8.8 0 0 0-.6 1.3m197.9 134.4v-57.6c0-.5-.7-1-1.1-.6l-17.3 13-32.2 24.1a1047.1 1047.1 0 0 1-18.2 13.6c-.6.5-.4 1.4-.4 2.1v56.1c0 .4.3.8.8.8.4 0 .7-.4.7-.8v-57.6a2 2 0 0 1-.4.6l23-17.3 36.4-27.3 8.3-6.2a11 11 0 0 1-1.1-.6v57.6c0 1 1.5 1 1.5.1"/>
  <path fill="#142145" fill-rule="nonzero" d="m236.7 431.7 1.1-.8.2-.1c.1 0 .2 0 .2-.2l.1-.3-.1-.6c0-.2-.2-.3-.4-.3h-.2l-.4.1-1.1.8-.2.1c-.1 0-.2 0-.2.2l-.1.3.1.6c0 .2.2.3.4.3h.2l.4-.1"/>
  <path fill="#142145" fill-rule="nonzero" d="m198.1 402.2 12.7 9.9 20.3 15.8 4.6 3.6c.8.6 1.8-.5 1.1-1.1l-12.7-9.9-20.3-15.8-4.6-3.6c-.7-.5-1.8.5-1.1 1.1"/>
  <path fill="#9acdf2" fill-rule="nonzero" d="m263.5 223.5-50.8-36L65.4 296.1l48.5 34.1 149.6-106.7Z"/>
  <path fill="#142145" fill-rule="nonzero" d="M60.7 349.3v212.4c0 .4.3.7.8.7.4 0 .7-.3.7-.7V349.3c0-.4-.4-.7-.8-.7-.3 0-.7.3-.7.7m8.6 356.4c.4 0 .8-.3.8-.8 0-.4-.4-.7-.8-.7s-.8.3-.8.8c0 .4.4.7.8.7m-.7-347.2v214.2c0 .4.3.7.8.7.4 0 .7-.3.7-.7V358.5c0-.4-.3-.8-.8-.8-.4 0-.7.4-.7.8m7.8 7.8V583c0 .4.3.8.8.8.4 0 .7-.4.7-.8V366.3c0-.4-.3-.7-.8-.7-.4 0-.7.3-.7.7m280 262.1v92.3c0 .4.3.8.8.8.4 0 .7-.4.7-.8v-92.3c0-.4-.3-.8-.8-.8-.4 0-.7.4-.7.8m1.5-421.5v-73.4c0-.4-.3-.8-.8-.8-.4 0-.7.4-.7.8v73.4c0 .4.4.7.8.7.3 0 .7-.3.7-.7m0 279.4V274.1c0-.4-.3-.8-.8-.8-.4 0-.7.4-.7.8v212.1c0 1 1.5 1 1.5.1M342.2 264v215.7c0 .4.3.7.8.7.4 0 .7-.3.7-.7V264c0-.4-.3-.8-.8-.8-.4 0-.7.4-.7.8m0-122.9v55.6c0 .4.3.8.8.8.4 0 .7-.4.7-.8v-55.6c0-.4-.3-.8-.8-.8-.4 0-.7.4-.7.8m-10.6 115.2v219.6c0 .4.3.8.8.8.4 0 .7-.4.7-.8V256.3c0-.4-.3-.8-.8-.8-.4 0-.7.4-.7.8m0-123.2v56c0 .4.3.8.8.8.4 0 .7-.4.7-.8v-56c0-.4-.3-.8-.8-.8-.4 0-.7.4-.7.8m-8.9 116.8v215.6c0 2.9-.1 5.8 0 8.7v.4c0 .4.3.7.8.7.4 0 .7-.3.7-.7V259c0-2.9.1-5.8 0-8.7v-.4c0-.4-.3-.8-.8-.8-.4 0-.7.4-.7.8m-11.7-8.4v233.1c0 .4.3.8.8.8.4 0 .7-.4.7-.8V241.5c0-.4-.3-.7-.8-.7-.4 0-.7.3-.7.7m-12.1-8.8v245.9c0 .4.3.8.8.8.4 0 .7-.4.7-.8V232.7c0-.4-.3-.7-.8-.7-.4 0-.7.3-.7.7"/>
  <path fill="#9acdf2" fill-rule="nonzero" d="M247.8 348.3v-59.9l17.8-13.2v59.9l-17.8 13.2Zm-110.6 78.1v-59.9l17.8-13.1v59.8l-17.8 13.2Zm28.6-20.9v-59.8l17.8-13.2v59.9l-17.8 13.1Zm53.4-36.4v-59.9l17.8-13.1V356l-17.8 13.1Zm-82 239.5v-59.8l17.8-13.2v59.9l-17.8 13.1Zm28.6-20.8v-59.9l17.8-13.1v59.9l-17.8 13.1Zm71.2-53.4v3.8l-17.8 13.2v-31.2m46.4 37.2v49.8l-17.8 13.2v-59.9l11.3-8.3m-39.9 89v-59.9l17.8-13.1v59.9l-17.8 13.1Z"/>
  <path fill="#c4a32f" fill-rule="nonzero" d="m615.2 312.7-13.3 6.5 13.3 21.1 13.1-7-13.1-20.6Zm-15.9 7.8 13.2 21.3-11.9 6.2-13.6-21.5 12.3-6Zm-1.3 28.8-13.5-21.6-14.6 7.2 13.7 22 14.4-7.6Zm-17 9-13.7-22.1-17.4 8.5 14.5 22.2 16.6-8.6Zm49.1-22.1-13.3 6.9 12.1 19.4 13.4-7.1-12.2-19.2Zm-15.9 8.3 12.1 19.3-11.7 6.5-12.3-19.6 11.9-6.2Zm-2.2 27.1L599.8 352l-14.5 7.7 12.1 19.7 14.6-7.8Zm-17 9.1L582.7 361l-16.8 8.9 13.2 19.3 15.9-8.5Z"/>
  <path fill="#142145" fill-rule="nonzero" d="M456.6 347.3v61.3c0 .4.3.8.8.8.4 0 .7-.4.7-.8v-61.3c0-.4-.3-.8-.8-.8-.4 0-.7.4-.7.8M84.5 188.1v-45.3l.2-14.7c0-.4-.3-.7-.8-.7-.4 0-.7.3-.7.7l-.2 19.7V188c0 .5.3.8.7.8.5 0 .8-.3.8-.7m531.1 324.1 9.5-6.8 22.6-16.2 27.4-19.6 23.6-16.9c3.8-2.7 7.8-5.3 11.5-8.2l.2-.1c.8-.6 0-1.9-.8-1.3l-9.5 6.8-22.6 16.2-27.4 19.6-23.6 16.9c-3.8 2.7-7.8 5.3-11.5 8.2l-.2.1c-.7.6 0 1.9.8 1.3m-174.8 58.9a146 146 0 0 0 118.4-18.6c.8-.6 0-1.9-.8-1.3-1.5 1.1-3.1 2.3-4.7 3.3a140 140 0 0 1-38.9 16 145.8 145.8 0 0 1-73.7-.8c-.8-.3-1.2 1.2-.3 1.4M237 432.6l20.5 16 32.6 25.4 7.4 5.8c.8.6 1.8-.5 1.1-1.1l-20.5-16-32.6-25.4-7.4-5.8c-.8-.6-1.8.5-1.1 1.1"/>
  <path fill="#142145" fill-rule="nonzero" d="m169.4 481.3 20.8 16.6 47 37.7 50.4 40.3 30.8 24.6c7.6 6.1 15.1 12.2 22.9 17.8a319 319 0 0 0 47.9 28.9 214.9 214.9 0 0 0 81.1 22c19.8 1.2 39.7-1.2 58.7-7.1a133 133 0 0 0 31.4-14.3c5.8-3.7 10.9-7.8 16.8-12.2l47.2-35 3.3-2.5c.8-.6 0-1.9-.8-1.3l-38.1 28.3-21.4 15.9-4.6 3.4c-7.4 5-15.3 9.3-23.7 12.5a159.1 159.1 0 0 1-52.3 10.9c-26.2 1-52.2-4.1-76.6-13.3a326.1 326.1 0 0 1-88.8-53.7c-7.7-6.3-15.6-12.5-23.4-18.7l-47.7-38.2-49.4-39.5-29-23.2-1.4-1.1c-.7-.5-1.8.6-1.1 1.2m294.1-139.6c-3.5 2.7-7.2 5.2-10.6 8.1-3 2.6-5.5 5.7-7.7 9-4 5.9-6.9 12.7-7.1 19.9a31.9 31.9 0 0 0 11.4 24.1c4.3 4 9.4 7.3 14.3 10.6l18.3 12.3c18.1 12 36.3 24 54.5 35.8l69.3 44.9 9 5.8c.8.5 1.6-.8.8-1.3l-69.3-44.8c-18.8-12.3-37.7-24.5-56.4-36.9-11.1-7.4-22.3-14.7-33.2-22.5a38.7 38.7 0 0 1-16.5-21.4c-1.7-7.4.1-15 3.7-21.5 2.4-4.4 5.5-8.5 9.1-12.1l.9-.9c.2-.2-.2.1 0 0l.9-.7 7.6-5.8 1.8-1.4c.7-.5 0-1.8-.8-1.2"/>
  <path fill="#142145" fill-rule="nonzero" d="m559.3 551.2-5.6-3.8-15.1-10.1-21.7-14.6-25.8-17.3-26.9-18-25.3-17-21-14.1-14-9.4-4.5-3a110.7 110.7 0 0 1-29.7-29.6 66.1 66.1 0 0 1-11.5-30.5 59.8 59.8 0 0 1 13.6-42.6c.9-1.4 1.9-2.6 3-3.8l.6-.4 3.5-2.8 14.7-11.6 21.8-17.3 25.2-20 24.5-19.4 20.1-15.9a1215.6 1215.6 0 0 1 13.4-10.6c.8-.6-.3-1.7-1.1-1.1l-6.5 5.1-16.7 13.2-23.1 18.3-25.4 20.2-24 19-18.4 14.6c-3 2.4-6.2 4.7-9.1 7.2l-1.1 1.3a96 96 0 0 0-6.9 9.8 57.7 57.7 0 0 0-5.2 53.3 88 88 0 0 0 16.6 26 119.6 119.6 0 0 0 22.2 19.3l9.1 6.1 17.7 11.9 23.6 15.8 26.5 17.8 26.9 18 24.2 16.2 18.9 12.7 10.7 7.1 1.4.9c.5 1 1.2-.3.4-.9m70.4 47.2-1.8-1.2-.3-.2-.6-.1c-.2 0-.3.1-.4.3l-.1.4c0 .2.2.5.4.6l1.8 1.2.3.2.6.1c.2 0 .3-.1.4-.3l.1-.4c0-.2-.2-.5-.4-.6"/>
  <path fill="#9acdf2" fill-rule="nonzero" d="M155 656v-30.5l-17.8 13.1v4.3L155 656Zm10.8-38.2v45.6l10.6 6.4 7.2-5.3v-59.9l-17.8 13.2Z"/>
  <path fill="none" stroke="#142145" stroke-width="3" d="M60.7 560.4a347.6 347.6 0 0 1-19.8-33.3m27.8 44.8c-2.8-3.8-5.5-7.6-8.1-11.5m8.7 12.3-.6-.8m8.1 10.7-7.5-9.9"/>
  <path fill="#057c75" fill-rule="nonzero" d="m281.6 523.2-.2-.5.2.5m.5 1.5-.1-.4.1.4m-.3-.8-.2-.5.2.5m.7 2.9-.3-1.3c.2.4.3.8.3 1.3m18.2 22.4-.1.1.1-.1m-6.9.1-.2-.1.2.1m-11.1-21-.1-1.2.1 1.2m.2 6 .2.4-.1-1.6-.1 1.2Zm8.8 14.2-.3-.1.3.1m5.1 1.4h-.2c.1-.1.1 0 .2 0"/>
  <path fill="#057c75" fill-rule="nonzero" d="m353.4 575.6-3.7-3.6-4.3-4.3-22.1-15.3.1.4-1.4 2.5 1.4-2.5-.1-.4-11.7-8.1-9-3.4-.1.6.1-.6c.5-4.7-.5-9.4-2.7-13.5-7.8-16.9-15.6-7.8-15.6-7.8l-1.1 6.4-.2 7.2.1 1.6 1.3 3-.1-.8-.1-1.4c-.1-5.8 2.2-10.5 5.5-10.9.8-.1 1.7.1 2.4.6 1.3.8 2.3 2 3 3.3a17 17 0 0 1 2.1 7.2v.6c.3 4.9-1.1 9.1-3.4 10.8-.6.5-1.3.8-2 .8-.6 0-1.2 0-1.7-.2l1.1.6.3.1.8.3.3.1.8.3.2.1 1 .2.3.1.7.1h.3l.6.1h1.9l.5-.1h.2c.2 0 .4 0 .6-.2l.6-.2.1-.1.5-.2.1-.1.5-.2.5-.3c.2 0 .3-.2.4-.3h.1l.4-.3c1-.3 1.8-.7 2.7-1.2l36.5 25.3-40-27.7 40 27.7 10.8 7.5v-.8l.1-1.9c.3-.3.4-.7.4-1.1m-70.7-47.1.3-1.9-.3 1.8v.1Zm10.1 20.5-.3-.1.3.1m143 41.9c1.3-.5 2.1-.9 2.1-1.1 0-.8.3-1.6.7-2.3-.3.7-.6 1.5-.7 2.3 0 .2-.8.6-2.1 1.1m-78.8-.4-.2-.3.2.3m.8 1.2-.2-.3.2.3m79.9-9.7c-.4-1.1-.9-2-1.7-2-2.6 0-28.6 6.5-28.6 6.5l-5.9 3.3c18.8.6 36.1-7.8 36.2-7.8m-136.4-33-.1.1.1-.1Zm59.3 45.3-.2-.1.2.1m80.2-35.7 1 1.3v6.5s-1.7 8.3-2.3 13.7l.5-3.7 1.8-10v-6.5a4 4 0 0 0-1-1.3m-82.2 34-.2-.2.2.2"/>
  <path fill="#057c75" fill-rule="nonzero" d="m441.8 559.8-1-1.3-2.1-2.5c-.2 3.9-3.5 8.5-4.2 5-.7-3.9-25.3-23-25.3-23-2.6 4.4-32.7 5.8-32.7 5.8s26.7 17 28.4 23.6l.4.1-.4-.1c-2.2-.4-14.1-2.5-15.3-2.5-.8 0-20.4-12.4-34.8-21.6l-.7 1 25.1 16.7.4.2 9.2 6.1 2.1 2.7 15.9 2.7 2.3.4s27-3.3 29.1-5.8l3.1-.7-3.1.7c-2.1 2.5-29.1 5.8-29.1 5.8l-2.3-.4v1.8l-4.2 1.9-11.7-2.6v1.3l-6.5-1.3-5.2-10.4v-2.5l-25.1-16.7-.9 1-2.6 18.2-.9 1.7v.6l2.2 1.5-2.2-1.5v5.8l3.7 3.6v1.1c.5-5.4 2.8-16.7 12.9-11.6 13 6.5 11.7 27.3 11.7 27.3v1.7l2.6 1.4 3.5 1.9.3.2s7.5.7 14 1.1h.1l-1.7-4.4-18.2-2.6 18.2 2.6 4.6-4.6-17.3-3.6 1.9-9.4c-.2 0 17.3 5.7 20.9 5.4 3.6-.2 29.4-5.4 29.4-5.4l4.2-3.9-4.2 3.9s-25.8 5.2-29.4 5.4c-3.6.2-21.1-5.4-20.9-5.4l-1.9 9.4 3-2 1.1-6.7-1.1 6.7 6.5 3-6.5-3-3 2 17.3 3.6 5.9-3.3s26-6.5 28.6-6.5c.8 0 1.4.8 1.7 2-.5-2-17.4 8.5-36.2 7.8l-4.6 4.6 1.7 4.4h.1l5.3.2c5.4 0 25.3-5.4 31.8-8 1.3-.5 2.1-.9 2.1-1.1 0-.8.3-1.6.7-2.3.4-1.4.6-2.8.6-4.2v-.4l.2-2.6v-.2c.7-5.3 2.3-13.7 2.3-13.7v-6.1h.2Zm-15.2 15.8c-.4 2.5-4.1 4-4.2 0 0 0-.1-2.7 2.5-2.7 1.2.3 2 1.5 1.7 2.7m9.5 8.6s-17.1 7.5-31.4 7.5c14.3 0 31.4-7.5 31.4-7.5m-8 4.9c-7.8 3.9-26 3.9-26 3.9s18.2 0 26-3.9m-27.3 5.2c29.9 0 36.2-9.1 36.2-9.1s-6.3 9.1-36.2 9.1m-41.1-.7-.3-.3.3.3m-3.9-5.5-.1-.2.1.2m20.3 12.7c1.8 0 3.3-2.6 4.1-4.2-.8 1.6-2.3 4.2-4.1 4.2"/>
  <path fill="#057c75" fill-rule="nonzero" d="M378.1 594v-1.7s1.3-20.8-11.7-27.3c-10-5-12.3 6.2-12.9 11.6v.9l.3 3c0 .8.2 1.5.4 2.3v.1l.6 2.4.1.2c0 .4.2.8.4 1.2v.1l.4 1 .1.2.5 1.1.1.2.5.8.2.3.6.9.2.3.6.7.2.2.8.7.3.3.7.6.2.1-.8-2.2a19 19 0 0 1-2.7-8.3l-.1-1.5c0-2.5.3-5 1.2-7.2.6-1.6 1.6-3 3-4.1a4.7 4.7 0 0 1 5.1-.5c3.2 1.5 5.9 6.1 6.4 11.8a20 20 0 0 1-.8 7.9c-.6 2.1-2 4-3.8 5.2a5.2 5.2 0 0 1-5.4-.3 3 3 0 0 1-.7-.5l.1.1h-.9a10.6 10.6 0 0 0 1.5 1.5 27.1 27.1 0 0 0 13.4 4.6c1.8 0 3.3-2.6 4.1-4.2l.5-1.2-2.7-1.3Zm-24.7-17.3-.1 1.9.1-1.9m3.8-37.7-7.8-5.2v1.3s-1.3 1.3-5.2 0c-3.9-1.3-5.2-2.6-5.2-2.6l-12.3-8.4c-.8 1-1.4 2-2 3.2-1.3 2.6-1.2 14.8-1.2 14.8l-1.4 4.7.1.3 27.6 19v-.6l.9-1.7 2.6-18.2.9-1 .7-1-15.1-9.7 15.1 9.7 2.3-4.6m-26-5.2-3.9-2.9.7-1.6 4.3 3.2-1.1 1.3Zm49.5 61.7 3.5 1.9-3.5-1.9Zm-25.8-9.9-.1-.2.1.2m67.5-42.5.8.5-.8-.5m-1.5-1 .7.5-.7-.5m3 2 .8.5-.8-.5m-79-62.9-8.5-3.4-3.3.1 3.3-.1 8.5 3.4m84.6 66.4 1.2.9-1.2-.9m-1.6-1.1 1.2.8-1.2-.8m-18.6-14 .6.6-.6-.6m21.8 16.3 1.1.9-1.1-.9m-131.3-67-.6.4-1.2-.3 1.2.3.6-.4Zm114.4 55.1.2.2-.2-.2m2.3 2 .4.3-.4-.3m1.7 1.2.5.3a.8.8 0 0 1-.5-.3m-115.7-54.5s-11.7 3.9-10.4 6.5c.5 1 6.1 6.3 13.5 12.6l10.3-12.9c-7.5-3.6-13.4-6.2-13.4-6.2m82 88.5 6.5 1.3v-1.3l11.8 2.6 4.2-1.9V573l-16-2.8-2.1-2.6-9.2-6.2-.4-.2v2.5l5.2 10.4Zm-23.2-32.5-.2-.2v.1l.2.1m-37.9 10.7 22.1 15.3 4.3 4.3v-5.8l-27.7-19 1.3 5.2Zm86.6-19.1.1.1-.1-.1"/>
  <path fill="#057c75" fill-rule="nonzero" d="M341.5 529.9c-8-2.4-24.3-15.1-35.9-25.1 0 0-1.7 2.7-3 2.8l24.2 16.5a72 72 0 0 1 1.4-1.7l-1.4 1.7 12.3 8.4c.5-1.1 1.3-2 2.4-2.6"/>
  <path fill="#057c75" fill-rule="nonzero" d="M343.5 529c3.3-.9 3.3-.4 4.6.9 1.3 1.3 1.3 3.9 1.3 3.9l7.8 5.2s-6.9-27.4-19.1-35.2c-6-3.9-14.9-8.4-22.2-11.9l-10.3 12.9c11.7 10 27.9 22.7 35.9 25.1.6-.4 1.3-.7 2-.9"/>
  <path fill="#057c75" fill-rule="nonzero" d="M343.5 529c-.7.2-1.4.5-2 .9-1 .6-2 1.5-2.5 2.6-.6 1 1.3 1.3 5.2 2.6 3.9 1.3 5.2 0 5.2 0v-1.3s0-2.6-1.3-3.9c-1.3-1.3-1.3-1.9-4.6-.9m90.4 22.2 1 .9a9 9 0 0 0-1-.9m-28.5-13.5c-7.8 2.6-28.5 7.8-44.1 4l28.4 18.2-28.4-18.2h-.2v-.1l-3.9-2.5-1.9 3.9-.3.6c14.4 9.2 34 21.6 34.8 21.6 1.2 0 13 2.1 15.3 2.5-1.7-6.6-28.4-23.6-28.4-23.6s30-1.5 32.7-5.8c0 0 24.6 19 25.3 23 .6 3.5 4-1.2 4.2-5l-1.2-1.3-.5-.5-.7-.7-1.2-1.2-.4-.3a9 9 0 0 0-1-.9l-.3-.3-1-.9-.4-.3-1.1-.9-.4-.3-1.2-.9-.5-.3-1.2-.8-.4-.3-1.2-.8-.5-.3-1-.6-.8-.5-.8-.5-.8-.5-.7-.5-.7-.5-.7-.5-.7-.5-.9-.6-.5-.3-1.3-1-.4-.3-.9-.7-.4-.3-.9-.7-.2-.2-.9-.8-.1-.1-3.1-2.8-.2-.2c.8.8 1.3 2.6-4.3 4.5"/>
  <path fill="#057c75" fill-rule="nonzero" d="m427.4 546.3-1.2-.8-.5-.3.5.3 1.2.8m9.1 7.3.7.7-.7-.7m2.3 2.5v-.8l-.1-.6-.9.3-.2-.2 1.2 1.3Zm-3.6-3.7.8.8-.8-.8m-47.7-46.9.2.2-.2-.2m-11.7-9.8.4.3-.4-.3m1.8 1.2.4.3-.4-.3M336.3 477l-2.8-.8c-21.2-5.3-38.6 4.9-38.6 4.9l9.8-1c6-1 12.2-1.6 18.3-1.8l13.3-1.3Zm-33.7 3.6.8-.2-.8.2m1.2-.2.3-.1-.3.1m32.6-3.4-2.8-.8 2.8.8m-35.4 4.1.7-.2-.7.2m-17.8 44.8 1.1-6.4s7.8-9.1 15.6 7.8c2.2 4.1 3.2 8.8 2.7 13.5l9 3.4 11.7 8.1-1.3-5.2-19.6-13.5 10.4 1.4-10.4-1.4 19.6 13.5-.1-.3 1.4-4.7s-.1-12.2 1.2-14.8l2-3.2-24.2-16.5c-1 .2-3.2 4.8-4.6 9.3-4.9-5.4-9.7-4.2-9.7-4.2s4.8-1.2 9.7 4.2c1.4-4.6 3.7-9.1 4.6-9.3l-20.8-14.2-1.9 13.6.6.7-1.8 2.9a5 5 0 0 0-.9 2.3c.3 1.8.7 3.5 1.3 5.2.9 1.4 1.7 2.9 2.3 4.4l.2.5.1.2.2.5.1.4.1.4.2.8.3 1.3v.3l.1 1.2v.2l.3-1.8.5-.6Zm19-14.6 3.7 2.9-.8 1.3-3.9-2.6 1-1.6Zm-4.3-29.4-.4-.1h-.3l-.5-.1h-1.9l-1.1 3.9 1.1-3.9-1.1 3.9 5.4-3.5a5 5 0 0 1-1.2-.2m2.5-.5.4-.2-.4.2"/>
  <path fill="#057c75" fill-rule="nonzero" d="m281.7 493.4 20.8 14.2c1.3-.2 3-2.8 3-2.8-7.4-6.3-13-11.6-13.5-12.6-1.3-2.6 10.4-6.5 10.4-6.5a433.5 433.5 0 0 0 35.5 18.1C350 511.6 357 539 357 539l3.9 2.5c-.7-2-10.8-32.7-22.1-40.3a194.2 194.2 0 0 0-39.9-19.1l-5.4 3.5-11.8 7.8Z"/>
  <path fill="#142145" fill-rule="nonzero" d="m289.3 548.3.7.3h.3l.3-.1c.1 0 .2 0 .2-.2l.1-.3v-.2l-.1-.4-.1-.2-.3-.2h-.1l.2.1-.4-.2-.4-.1-.3.1c-.1 0-.2 0-.2.2l-.2.3v.3l.1.3.2.3.2.1h.2l.4-.1.2-.1.2-.3c-.4 0-.8.2-1.2.4l.7.3.4-1.4-.2-.1.2.1-.3-.1-.3-.1h-.3l-.3.1-.2.2-.1.2v.4l.1.2.3.2m-5.6-10.5c.2 1.5.5 3 1.1 4.5a.7.7 0 0 0 1.4-.4 17.2 17.2 0 0 1-.9-3.2l-.1-.6c0-.3 0-.5-.2-.7a.7.7 0 0 0-1-.3c-.4.2-.4.6-.3 1v-.3c.2 1.5.5 3 1.1 4.5l1.4-.4a15.1 15.1 0 0 1-.8-3.1l-.1-.6v-.4c-.1-.4-.3-.8-.8-.8s-.9.3-.8.8"/>
  <path fill="#142145" fill-rule="nonzero" d="M284.7 542.3c.9 2.3 2.3 4.8 4.6 6 .4.2.9 0 1.1-.4 0-.3 0-.6-.3-.8a2 2 0 0 1-.6-.4l-.1-.1-.1-.1-.3-.2-.6-.5-.3-.3-.1-.2-.1-.1c-.7-1-1.3-2-1.8-3.2a.7.7 0 0 0-.9-.5.6.6 0 0 0-.5.8c.9 2.3 2.3 4.8 4.6 5.9 0-.3-.2-.5-.3-.8l1.1-.4a2 2 0 0 1-.6-.4l-.1-.1-.1-.1-.1-.1-.2-.1a5 5 0 0 1-1-1.1c-.7-1-1.3-2-1.7-3.2a.7.7 0 0 0-.9-.5.8.8 0 0 0-.7.9"/>
  <path fill="#142145" fill-rule="nonzero" d="m290.4 547.8 1.8-5.3.6-1.9c.1-.3-.1-.6-.1-1l-.4-1.5-.8-2.9c-.1-.2-.3-.5-.5-.5h-.1c-.9-.2-1.4 1.3-.4 1.4h.1c.6.1 1.1-.3.9-.9l-.1-.2a.8.8 0 0 0-1.4-.2l-3.1 4.1-1.8 2.4-.4.5c-.3.6.3 1.5.6 2.1a10 10 0 0 0 3.9 4.5c.9.4 1.6-.8.8-1.3a9.1 9.1 0 0 1-3.9-5.1l-.1.6 5.3-7-1.4-.2.1.2.9-.9h-.1c-.9-.2-1.4 1.3-.4 1.4h.1l-.5-.5.6 2.3.4 1.7.2 1v-.3l-.1.3-.4 1.2-1.2 3.4-.8 2.2c0 .9 1.4 1.3 1.7.4"/>
  <path fill="#142145" fill-rule="nonzero" d="m290.7 536.1 6.5 1.1c.4.1 1-.2.9-.7a21 21 0 0 0-2.3-8.2.7.7 0 0 0-1-.3l-3.7 2.1a.8.8 0 0 0 .8 1.3l3.7-2.1a.7.7 0 0 0 .3-1 11 11 0 0 0-3.3-3.5h-.4c-.3 0-.6.1-.7.4l-1.2 8.9c-.1.5-.2 1-.1 1.5.2.9 1.7.5 1.4-.4-.1-.4 0 0-.1.1v-.2l.1-.6.3-2.3.7-5.4.2-1.3-1.1.4c1.1.7 2 1.8 2.7 3l.3-1-3.7 2.1a.8.8 0 0 0 .8 1.3l3.7-2.1-1-.3a18 18 0 0 1 2.1 7.4l.9-.7-6.5-1.1c-.9 0-1.3 1.4-.3 1.6"/>
  <path fill="#142145" fill-rule="nonzero" d="m291.3 534.6-5.3-6.5c-.6-.7-1.7.3-1.1 1.1l2.9 3.6a.8.8 0 0 0 1.3-.5l-.2-6.8c0-.4-.3-.7-.8-.7-.4 0-.7.3-.7.7l.2 6.1v.7l.7 1.1 2 2.4a.8.8 0 0 0 1.3-.3l1.4-9.8c0-.3 0-.7-.3-.8a5 5 0 0 0-6 .8 11.4 11.4 0 0 0-2.8 6.2l-.3 2.1v2c.1.4.7.7 1.1 1l3.2 2.4c.8.6 1.5-.7.8-1.3l-4-2.9a.7.7 0 0 0-1.1.6c0 2.3.5 4.5 1.3 6.7a.8.8 0 0 0 1.4.2l5.3-7c.6-.8-.7-1.5-1.3-.8l-5.3 7 1.4.2a19.2 19.2 0 0 1-1.2-6.3l-1.1.6 4 2.9c.8.6 1.5-.7.8-1.3l-4-2.9.4.6c-.1-2.6.4-5.2 1.6-7.6 1.1-1.9 3-3.2 5.2-2 0-.3-.2-.5-.3-.8l-1.4 9.8c.1-.3.5-.4.9-.5l-2.4-2.9.2.5-.2-6.8c0-.4-.3-.7-.8-.7-.4 0-.7.3-.7.7l.2 6.8a7 7 0 0 1 1.3-.5l-2.9-3.6c-.6-.7-1.7.3-1.1 1.1l5.3 6.5c.7.7 1.7-.4 1.1-1.1m.6 14.2a5 5 0 0 0 2.4-.9c.3-.2.4-.5.3-.8l-1.5-6-.2-.9c0-.3-.4-.6-.7-.6-.3 0-.6.3-.7.6l-2.2 6.3-.3.9c0 .3 0 .6.3.8.8.4 1.7.7 2.6.6.4 0 .8-.4.8-.8s-.4-.8-.8-.8a4 4 0 0 1-1.8-.4c0 .3.2.5.3.8l2.2-6.3.3-.9h-1.4l1.5 6 .2.9c0-.3.2-.5.3-.8-.5.4-1 .7-1.7.7-.4 0-.8.4-.8.8.1.4.5.9.9.8"/>
  <path fill="#142145" fill-rule="nonzero" d="m297.4 541.5-2.4-5.1c-.3-.6-.4-1.2-1.2-1.3l-2.7-.4c-.6-.1-1.1.3-.9.9l2.5 9.6.6 2.2a.8.8 0 0 0 1.3.3 8.9 8.9 0 0 0 2.8-4.5c.7-2.2 1-4.6.8-6.9 0-.4-.2-.7-.6-.7l-3.4-.6h-.2a.7.7 0 0 0-.6 1.1l2.8 6c.3 1 1.6.2 1.2-.6l-2.8-6-.8 1.1 3.4.6-.6-.7a15 15 0 0 1-.7 6.3 8 8 0 0 1-2.5 4l1.3.3-2.4-9.2-.7-2.7-.9.9 3.1.5-.4-.3 2.8 6c.3.8 1.6 0 1.2-.8m61.7 50.8.5.9.7.8c.4.4.8.9 1.3 1.2l.5.2c.2 0 .4 0 .5-.2a1 1 0 0 0 0-1.1l-1.2-1.1-.3-.3-.1-.2-.1-.1-.5-.8a.7.7 0 0 0-1.3.7c.7 1 1.5 2 2.4 2.8l1.1-1.1-1.2-1.1-.3-.3-.1-.2c-.1-.1.1.2 0 0l-.1-.1-.3-.4-.1-.2c-.1-.1-.1-.3 0 0 0-.2-.2-.3-.3-.4l-.6-.1c-.4.3-.7.7-.5 1.1m7.6-22.3c-1.9-.8-4.3-.9-5.9.5-.6.5-.4 1.6-.4 2.2v5.6c0 .4.3.8.8.8.4 0 .7-.4.7-.8v-7.2c0-.5-.7-1-1.1-.6a10.4 10.4 0 0 0-3.3 4.5c0 .3 0 .5.2.7l6.7 6.9a.8.8 0 0 0 1.3-.5L367 572l.2-1.4c.1-1-1.4-.9-1.5 0l-1.3 10.1-.2 1.4a7 7 0 0 1 1.3-.5l-6.7-6.9.2.7a8.6 8.6 0 0 1 2.6-3.6 11 11 0 0 1-1.1-.6v7.2c0 .4.3.8.7.8.5 0 .8-.4.8-.8v-7.2a2 2 0 0 1-.4.6c1.3-1 3-1.1 4.4-.5.8.3 1.6-.9.7-1.3"/>
  <path fill="#142145" fill-rule="nonzero" d="m367 587.7-1.4-5.8a.8.8 0 0 0-1.3-.3l-6.7 6.7c-.7.7.4 1.7 1.1 1.1l2.8-2.8c.3-.3.3-.8 0-1.1l-4-3.6a.8.8 0 0 0-1.3.5c0 3.6 1 7.1 2.9 10.2.4.7 1.7.3 1.4-.6l-1.4.6c.8 1.3 2 2.4 3.2 3.3.3.2.9.1 1-.3l3.6-7.3c.4-.9-.9-1.6-1.3-.8l-3.6 7.3 1-.3a9 9 0 0 1-2.7-2.8c-.4-.7-1.7-.3-1.4.6l1.4-.6a18 18 0 0 1-2.7-9.4 7 7 0 0 1-1.3.5l4 3.6v-1.1l-2.8 2.8c-.7.7.4 1.7 1.1 1.1l6.7-6.7-1.3-.3 1.4 5.8c0 .4.4.7.8.7a.8.8 0 0 0 .8-1"/>
  <path fill="#142145" fill-rule="nonzero" d="M368.6 582.7c0-.4-.3-.8-.8-.8-.4 0-.7.4-.7.8s.2.7.6.7l5 1c.9.2 1.3-1.3.4-1.4l-5-1h-.2a.7.7 0 0 0-.6 1.1l4.1 7.6a.8.8 0 0 0 1.4-.2c1.3-4.2 1.2-8.6-.1-12.8-1-3.1-2.8-6.3-5.8-7.8a.7.7 0 0 0-1.1.6l-1.4 11.5c0 .3.3.7.6.7l2.9.6c.9.2 1.3-1.3.4-1.4l-2.9-.6.6.7 1.4-11.5-1.1.6c2.8 1.3 4.4 4.3 5.2 7.2 1.2 3.8 1.2 7.9 0 11.7l1.4-.2-4.1-7.6-.8 1.1 5 1c.9.2 1.3-1.3.4-1.4l-5-1c-.2.3 0 .6.2.8 0-.4-.3-.7-.8-.7-.4 0-.7.3-.7.7 0 .4.3.8.7.8.5 0 .8-.4.8-.8"/>
  <path fill="#142145" fill-rule="nonzero" d="m369.7 574.2-3.9 1.9-.6.3a.7.7 0 0 0-.3 1 .7.7 0 0 0 1 .3l3.9-1.9.6-.3a.7.7 0 0 0 .3-1 .7.7 0 0 0-1-.3l-3.9 1.9-.6.3a.7.7 0 0 0-.3 1 .7.7 0 0 0 1 .3l3.9-1.9.6-.3a.7.7 0 0 0 .3-1 .7.7 0 0 0-1-.3m-5.5 8.1 1.4 5.8a.8.8 0 0 0 1.4.2l.1-.1c.4-.9-.9-1.6-1.3-.8a105.5 105.5 0 0 0 .7 4.1l1 4.1a.7.7 0 0 0 1.1.4 9 9 0 0 0 4-5.2c.2-.4.2-1-.1-1.3l-.7-1.3a67 67 0 0 1-3.2-5.9c-.3-.5-1.1-.5-1.6-.6l-1.8-.3c-.9-.2-1.3 1.3-.4 1.4l2.9.6-.4-.3 4.1 7.6-.1-.6c-.6 2-1.8 3.6-3.5 4.7l1.1.4-1.8-7.5-.1.6.1-.1c.4-.9-.9-1.6-1.3-.8l-.1.1 1.4.2-1.4-5.8a.8.8 0 0 0-1.5.4"/>
  <path fill="#142145" fill-rule="nonzero" d="M362.4 595.9a6 6 0 0 0 6.1.3c.3-.2.4-.5.3-.8l-1.6-6.6-.2-.9a.8.8 0 0 0-1.4-.2l-3.1 6.4-.4.9c-.2.2-.1.6.3.9a.7.7 0 0 0 1-.3l3.1-6.4.4-.9-1.4-.2 1.6 6.6.2.9c0-.3.2-.5.3-.8-1.5.8-3.2.6-4.6-.3-.7-.5-1.5.8-.6 1.4m3-14.3-5.9-6.1-.8-.9a.8.8 0 0 0-1.3.3c-.7 1.7-1 3.6-1.2 5.4l-.1 1.4c0 .4-.1.8.2 1.1l.5.4 3.5 3.2c.3.3.8.3 1.1 0l3.9-3.9c.7-.7-.4-1.7-1.1-1.1l-3.9 3.9h1.1l-4-3.6.2.5c0-2.4.4-4.8 1.2-7l-1.3.3 5.9 6.1.8.9c.9.9 1.9-.2 1.2-.9m-38.3-50.5 3.4 2.5.5.4h.3l1.1-1.3c.1-.1.1-.3 0-.4l-3.8-2.8-.5-.4h-.1l-.2.1-.7 1.6c-.1.3.3.5.4.2l.7-1.6-.3.1 3.8 2.8.5.4v-.4l-1.1 1.3h.3l-3.4-2.5-.5-.4c-.4-.2-.6.2-.4.4m-21-17-3.3-2.6-.5-.4a.3.3 0 0 0-.4 0l-1 1.6c-.1.1 0 .2.1.3l3.4 2.3.5.3c.1.1.2 0 .3-.1l.8-1.3c.2-.2-.2-.5-.4-.2l-.8 1.3.3-.1-3.4-2.3-.5-.3.1.3 1-1.6h-.4l3.3 2.6.5.4c.3.3.6 0 .4-.2"/>
  <path fill="#057c75" fill-rule="nonzero" d="M424.9 572.8c-2.6 0-2.5 2.7-2.5 2.7.1 4 3.8 2.5 4.2 0 .1-1.2-.6-2.3-1.7-2.7m-14.8-39.7-.6-.6.6.6-.6-1.9-4.1-5.4 4.1 5.4-4.1-5.4-.5-.6-.1-.1a236 236 0 0 0-15-17.4c-.1 0-23.3 7.3-40.4 6.2 4.8 8.9 8.8 18.1 11.9 27.7l.2.2c15.6 3.8 36.3-1.4 44.1-4 5.6-2 5.2-3.8 4.5-4.7"/>
  <path fill="#057c75" fill-rule="nonzero" d="m389.8 507.6-1.8-1.9-.2-.2-3.9-3.7-2-1.7-3.7-2.9-.4-.3-1.4-.9-.4-.3a353 353 0 0 0-30.9-14.5l-8.5-3.4-3.3.1c-2.5.1-6.1.2-10 .5-6.1.3-12.2.9-18.3 1.8l-.6.1-.3.1-.4.1-.8.2h-.1l-.8.2-.7.2-.1.1-.4.2h-.1l-1.2.8 2.4.7c10 3.2 28 12 37.5 18.4 3.6 2.4 7.1 7.1 10.2 12.6 16.9 1 40.1-6.3 40.2-6.3"/>
  <path fill="#142145" fill-rule="nonzero" d="M302.5 543.6c.4 0 .8-.3.8-.8 0-.4-.4-.7-.8-.7s-.8.3-.8.8c0 .4.4.7.8.7"/>
  <path fill="#142145" fill-rule="nonzero" d="M301.8 542.7c0 .8-.2 1.6.4 2.2l.6.4 3.1 2.1 11.8 8.2 28.6 19.8 6.7 4.6.4.1c.4 0 .7-.3.7-.7 0-2.2.3-4.4.8-6.6.7-3.1 2.1-7.2 5.6-8.1 2.2-.6 4.6.4 6.5 1.6a18 18 0 0 1 5.7 5.6c2.5 4.2 4 9 4.4 13.9.3 2.8.2 5.5.3 8.3 0 .3.1.5.4.6l4.7 2.6c1 .6 2 1 3 1.2 5.4.5 10.9 1 16.4 1.2 4 0 8.1-.6 12.1-1.6a208.6 208.6 0 0 0 21.4-6.2c1-.3 2.1-.7 3-1.4.4-.4.3-1 .5-1.6.4-1.2.8-2.4 1-3.6.3-2.5.3-5.1.7-7.6l1.4-8c.3-1.1.5-2.3.6-3.4v-5.8c0-1.1-.6-1.7-1.3-2.6-4-5-8.7-9.3-14.2-12.7a89.5 89.5 0 0 1-17.3-13.2l-.9 1.2.1.1.4.5c.3.8-.6 1.5-1.3 1.9-2.5 1.6-5.9 2.2-8.7 3-7.7 2-15.6 3.3-23.6 3.6-4.9.2-9.8-.3-14.5-1.4l.5.5c-2.9-9.2-6.6-18.1-11.2-26.6a40.5 40.5 0 0 0-10.9-14 254.3 254.3 0 0 0-33.8-17.2 30.7 30.7 0 0 0-11.1-2.7c-.3 0-.6.3-.7.6l-1.1 3.9c-.3.9 1.2 1.3 1.4.4l1.1-3.9-.7.6c5.4 0 10.7 2.5 15.6 4.6a240.4 240.4 0 0 1 25.6 13.2c2 1.1 3.7 2.5 5.3 4 3.3 3.5 6 7.5 8.1 11.8a162 162 0 0 1 10.2 23.9l.6 1.9c.4.8 1.7.8 2.6 1l4.8.7A96.5 96.5 0 0 0 404 539c2.2-.7 9.2-3 6.1-6.5l-.6-.5c-.7-.5-1.5.6-.9 1.2a88 88 0 0 0 11 9.2c3.2 2.3 6.6 4 9.8 6.3 2.8 2 5.4 4.4 7.7 6.9 1.3 1.4 2.4 3 3.8 4.4l.2.3c-.1-.1 0-.5-.1-.3v6.3l-.1.6a126.1 126.1 0 0 0-2.3 13.8c-.3 2.5-.2 5-1.1 7.4l-.4 1.2-.1.5c-.2-.5.2-.2.1-.3l-.3.2-.7.3c-1.5.7-3.1 1.2-4.7 1.7-4.8 1.5-9.6 2.9-14.5 4.1-4 1-8.2 2.2-12.4 2.4-2.5 0-5 0-7.6-.3l-8.7-.7-2.9-.3-.7-.1h.1l-1.9-1-3-1.6-1.5-.8.4.6c-.1-2.6 0-5.1-.2-7.7a34.9 34.9 0 0 0-4.4-14.8c-2.6-4.2-7.5-8.8-12.8-8.5-4.1.2-6.4 3.9-7.5 7.4a30 30 0 0 0-1.3 8.9l1.1-.6-17.2-11.9-27.3-18.9-6.3-4.3.4.6v-1.5c.1-1-1.4-1-1.4 0"/>
  <path fill="#142145" fill-rule="nonzero" d="M409.9 530.8c-6.6-9.2-14-17.9-22-25.9a55.6 55.6 0 0 0-17.8-13c-7.9-4-16.1-7.5-24.3-10.9l-7.8-3.2a6 6 0 0 0-2.2-.6c-5 .1-10.1.4-15.1.7-6.1.4-12.5.7-18.4 2.2a11 11 0 0 0-3.5 1.5l-6.4 4.1-7.5 4.8-2.7 1.7-1.1.7c-.4.4-.3 1.3-.4 1.8l-.6 4-1.1 7.7c-.1.9.2 1.2.8 1.9l-.1-.9c-1 1.3-1.8 2.7-2.4 4.2-.7 1.8 0 3.6.5 5.3.3 1 .8 2 1.3 3 1.5 2.6 2.5 5.6 2.7 8.6 0 .8 1.3 1.1 1.5.2l1.3-7.5c.2-.4.2-.9.2-1.3-.1-.2-.3.2-.1.1l1.2-1c6.3-4.2 10.9 4.3 13.2 8.9 2.2 4.2 3 9 2.5 13.6-.2.9 1.3 1.4 1.4.4.7-4.9 0-9.8-2.3-14.2-1.8-3.7-3.8-7.8-7.4-10.1a7.3 7.3 0 0 0-7.3-.5c-.9.5-2.4 1.3-2.8 2.4-.4 1.5-.7 3.1-.8 4.7l-.7 4.1 1.5.2c-.2-2.8-1-5.5-2.2-8l-1.3-2.4-.2-.3c.2.3-.1-.3-.1-.4-.5-1.5-1.5-3.6-.9-5.1.6-1.5 1.4-2.9 2.3-4.2.2-.3.1-.7-.1-.9l-.6-.7.2.7.8-5.7.6-4.4c.1-1 .4-2 .4-3v-.4c0-.2-.1 0-.3.4l.3-.2 1.9-1.2 6.9-4.4 7-4.5c1-.7 2-1.4 3.1-1.9 2.2-.7 4.6-1.2 6.9-1.4a307.3 307.3 0 0 1 26.3-1.7h1.7c.2 0 .3.1 0 0l.3.1 5.5 2.2a420.2 420.2 0 0 1 33.4 15.4c2.9 1.9 5.6 4 8.1 6.4a195 195 0 0 1 24.7 28.2l.4.6c.9.6 2.2-.1 1.6-.9"/>
  <path fill="#142145" fill-rule="nonzero" d="M295.3 481.8a56.2 56.2 0 0 1 26.6-6.3c4.8.1 9.6.9 14.2 2.3.9.3 1.3-1.2.4-1.4a56.1 56.1 0 0 0-42 4.2c-.8.4 0 1.7.8 1.2m46.5 47.4c-4.4-1.3-8.4-4.1-12.2-6.6a297.5 297.5 0 0 1-28.7-22.9c-2.6-2.4-5.4-4.7-7.8-7.4-.2-.2-.4-.3-.4-.6 0-.7 1.2-1.3 1.7-1.7a33.4 33.4 0 0 1 7.9-3.6c.8-.4-.2.2-.2-.2l.9.4 5.5 2.5a419 419 0 0 1 19 9.4c5.7 3 11.6 5.9 15.7 11 4 5 6.8 11 9.1 17 1.5 4 2.9 8 4 12l.2.6 1.1-.8-7.8-5.2.4.6c0-2.3-1.4-5.9-4.1-6a9 9 0 0 0-7.7 4.4c-.2.3-.1.7.1.9a15.8 15.8 0 0 0 8 3.3 5 5 0 0 0 3.2-.5c.7-.5.5-1.3.5-2.1 0-.4-.3-.8-.8-.8-.4 0-.7.4-.7.8v1.2c-.4-.5.7-.4 0-.3-1 .2-2.1.2-3.2 0-1.9-.5-4.5-1.3-6-2.7l.1.9a7.4 7.4 0 0 1 6.2-3.6c1 0 2 1.2 2.3 2 .3.6.4 1.3.5 2 0 .3 0 .7.2 1 .3.4.9.6 1.2.9l2.7 1.8 4.1 2.7a.7.7 0 0 0 1.1-.8 104.7 104.7 0 0 0-11.4-27.1c-1.6-2.6-3.6-5-6-7-2.7-2-5.5-3.8-8.5-5.3a322.1 322.1 0 0 0-27.3-13.5c-.7-.3-1.8-1.1-2.6-.9-2 .6-4 1.4-5.9 2.4-1.6.8-4.6 2-4.9 4-.2 1.1.8 1.9 1.5 2.7l3.8 3.7a353.5 353.5 0 0 0 28.5 23.5c4.4 3.1 8.9 6.3 13.8 8.5l2.6 1c.8.1 1.2-1.4.3-1.6m-58.2 7.8c.4 4 1.8 9.3 5.7 11.3 3.5 1.8 6.4-1 7.7-4.1 1.7-4.7 1.5-10-.5-14.5-1.3-3-4.4-6.8-8.1-5.3-4.6 1.8-5.2 8.5-4.8 12.6.1 1 1.6 1 1.5 0-.3-3.4 0-8.1 2.7-10.6 2.6-2.3 5.4.3 6.7 2.6 2 3.7 2.6 8 1.7 12.2-.5 2.5-2.2 6.9-5.5 6-1.6-.4-2.8-1.9-3.6-3.3a18.5 18.5 0 0 1-2.1-6.9c0-1-1.5-1-1.4 0m72.7 46.8c.5 4.6 2.3 10.5 6.9 12.5 4 1.8 7.5-1.2 9-4.8 2-5.3 1.8-11.1-.6-16.2-1.7-3.5-5.3-7.3-9.6-5.6-5.1 2.2-6.1 9.4-5.7 14.1.1 1 1.6 1 1.5 0-.3-3.9.2-9.1 3.4-11.8 3.1-2.6 6.6-.1 8.3 2.8 2.4 4.1 3.1 9 2 13.7-.7 3.1-2.9 7.6-6.8 6.8-4.7-1-6.5-7.4-7-11.5 0-.9-1.5-.9-1.4 0"/>
  <path fill="none" stroke="#142145" stroke-width=".5" d="M389.5 507.6s-22.5 8-39.8 6"/>
  <path fill="#142145" fill-rule="nonzero" d="m315.7 491.7-8 10c-.9 1-1.7 2-2.4 3.1l-1.4 1.7c-.5.4-1 .8-1.7 1-.8.6-1.3 1.5-1.7 2.4-2 3.7-3.3 7.7-4 11.8 0 .3.4.4.4.1.6-3.8 1.8-7.5 3.5-11 .4-.9 1-2.5 2-3l1.2-.6 1.5-1.6c2.3-3.1 4.9-6.3 7.4-9.4l3.4-4.3c.3-.1 0-.4-.2-.2"/>
  <path fill="#142145" fill-rule="nonzero" d="M288.2 512.9a7 7 0 0 1 3.5.2c3.3.9 5.8 3.4 7.7 6.2.2.2.6 0 .4-.2-2.4-3.5-6.2-7-10.8-6.7l-.9.1c-.3.1-.1.5.1.4m-6.6-19.3 19.4 13.2 30.8 21 7.1 4.8c.2.2.5-.2.2-.4L319.7 519l-30.8-21-7.1-4.8c-.2-.1-.5.3-.2.4"/>
  <path fill="none" stroke="#142145" stroke-width=".5" d="M328.1 522.4a25 25 0 0 0-3.4 4.9c-1.3 2.6-1.2 14.8-1.2 14.8l-1.4 4.7 1.4 5.9-1.4 2.5"/>
  <path fill="#142145" fill-rule="nonzero" d="M302.4 541a151.4 151.4 0 0 0 9.4 3.6l9.4 6.5 23.7 16.4 3.1 3 5.2 5.2a.2.2 0 0 0 .3-.3l-4.5-4.5c-1.2-1.2-2.3-2.5-3.5-3.5-2.5-2-5.3-3.7-7.9-5.5l-25.1-17.4c-.8-.5-1.8-1-2.7-1.3l-7.3-2.8c-.2 0-.3.5-.1.6m49.7 26.4-16.7-11.5-26.7-18.3-6.1-4.2-.2.4 10.4 1.4c.3 0 .4-.4.1-.4l-10.4-1.4c-.2 0-.4.3-.2.4l16.7 11.5 26.7 18.3 6.1 4.2c.3.2.5-.2.3-.4m-19.7-35.1-3.8-2.8-.5-.4h-.1l-.2.1-.7 1.6c-.1.1 0 .2.1.3l3.4 2.5.5.4h.3l1.1-1.3a.2.2 0 0 0-.3-.3l-1.1 1.3h.3l-3.4-2.5-.5-.4.1.3.7-1.6-.3.1 3.8 2.8.5.4c.1.1.3-.3.1-.5m-31.3-19.2 3.4 2.3.5.3c.1.1.2 0 .3-.1l.8-1.3v-.3l-3.3-2.6-.5-.4a.3.3 0 0 0-.4 0l-1 1.6a.2.2 0 0 0 .4.2l1-1.6h-.4l3.3 2.6.5.4v-.3l-.8 1.3.3-.1-3.4-2.3-.5-.3c-.2.1-.4.5-.2.6"/>
  <path fill="#142145" fill-rule="nonzero" d="M350 571.9v-5.7c0-.3 0-.7.2-1 .4-.5.7-1.1.8-1.8l.5-3.2 1.4-9.6.5-3.8c0-.6.2-1.2.6-1.6a18 18 0 0 0 3-5.2l.3-.7c-.1.3-.4 0-.3.1l.4.3 4.5 2.8 16.3 10.4 11.4 7.3c.2.2.5-.2.2-.4l-28.6-18.3-4-2.6h-.1l-.2.1c-.7 1.4-1.3 2.9-2.1 4.2-.5.9-1.5 1.6-1.9 2.5l-.3 2.3-.6 4-1.2 8.7c0 .9-.2 1.7-.4 2.6-.2.7-.5 1.4-.9 2-.2 1-.2 1.9-.1 2.8v3.8c.1.3.6.3.6 0"/>
  <path fill="#142145" fill-rule="nonzero" d="m405.4 567.4-9.1-1.6-5-.8-1.7-.2c-1-.4-2-1-3-1.7l-5.8-3.5a1775.8 1775.8 0 0 1-41-26c-.2-.2-.5.2-.2.4l22.7 14.5 16.8 10.6c3.3 2 6.5 4.3 9.9 6l.9.3 4.6.7 10.7 1.9c.4-.1.5-.5.2-.6"/>
  <path fill="#142145" fill-rule="nonzero" d="M405.2 567.5c-.5-1.9-2-3.4-3.4-4.8a64.9 64.9 0 0 0-6.8-6c-4.8-3.8-9.8-7.3-14.9-10.7l-3.4-2.2-.1.4 10.7-.8c5.9-.4 11.7-1.3 17.4-2.7 1.6-.4 3.9-1 4.8-2.5h-.4a408.3 408.3 0 0 1 21.3 18 42.5 42.5 0 0 1 3.7 4.2l.5 1.5c.8 1.3 2-.1 2.6-.9a9 9 0 0 0 1.6-6.6c0-.3-.5-.2-.4.1.3 2.3-.3 4.6-1.7 6.4-.5.7-1.4 1.5-1.8.3 0-.4-.2-.8-.4-1.1-1.1-2-3.1-3.7-4.7-5.3-5.1-4.9-10.7-9.3-16.2-13.8l-4.2-3.3a.3.3 0 0 0-.4 0c-.9 1.4-3.1 1.9-4.5 2.3a69 69 0 0 1-7.9 1.6 222 222 0 0 1-16.4 1.7l-3.6.2-.2.2.1.2c3 1.9 6 3.9 8.9 6 5.3 3.5 10.4 7.5 15.1 11.8 1.6 1.5 3.7 3.4 4.3 5.6.1.6.5.5.4.2"/>
  <path fill="none" stroke="#142145" stroke-width=".5" d="m354.2 544.5 25.5 17 9.2 6.1 2.1 2.7 18.2 3.1s27-3.3 29.1-5.8l3.1-.7"/>
  <path fill="#142145" fill-rule="nonzero" d="m379.1 563.8 4.7 9.4c.6 1.2.6 1.1 1.9 1.4l5.2 1 .3-.2v-1.3l-.3.2a1418.2 1418.2 0 0 0 12 2.6 23 23 0 0 0 2.3-1l1.9-.9.1-.2V573c0-.1 0-.2-.2-.2-.1 0-.2 0-.2.2v1.3c0 .2-.1.6.1.4l-.2.1a33.2 33.2 0 0 0-3.7 1.8c-.3.1.1.1-.1 0l-1.7-.4-9.9-2.2-.3.2v1.3l.3-.2-4.9-1a5 5 0 0 0-1.2-.2c-.2 0-.4-.2-.3 0-.3-.4-.5-.8-.6-1.3l-4.6-9.1c-.3-.3-.7-.1-.6.1"/>
  <path fill="none" stroke="#142145" stroke-width=".5" d="M424.9 572.8c1.1.4 1.8 1.5 1.7 2.7-.4 2.5-4.1 4-4.2 0 0 .1-.1-2.7 2.5-2.7Z"/>
  <path fill="#142145" fill-rule="nonzero" d="m393.8 587-6.5-3 .1.3 1.1-6.7c0-.3-.4-.4-.4-.1a155.7 155.7 0 0 0-1 7l6.5 3c.2 0 .4-.4.2-.5"/>
  <path fill="#142145" fill-rule="nonzero" d="m384.3 586.4 2.6-1.8.4-.2c.2-.2 0-.6-.2-.4l-2.6 1.8-.4.2c-.3.2-.1.5.2.4"/>
  <path fill="#142145" fill-rule="nonzero" d="M438.5 588.2c.1-2.3.1-5.1-1-7.2-.9-1.7-2.6-1.1-4.2-.8-6.4 1.2-12.7 2.8-19 4.4l-6.6 1.6c-1.7.4-3.3 1.7-4.8 2.5l-1.4.8c-.3.1.2.1-.2 0l-2.7-.6-9.7-2-3.9-.8-.7-.1c.6.1-.1.4.2.1l.1-.7 1.7-8.5c0-.2-.2-.4-.3-.3-.1.1-.1.3 0 .4 1 .4 2 .8 3.1 1 2.4.7 4.7 1.5 7.1 2.1a89 89 0 0 0 7.4 1.9c1.3.3 2.7.5 4.1.4 4.1-.5 8.2-1.4 12.2-2.1l13.9-2.7c1 0 1.8-.3 2.7-.6.8-.4 1.4-1.4 2.1-1.9l2.1-2a.2.2 0 0 0-.3-.3l-3.8 3.6c-.3.3-.1.2-.5.3l-1.4.3-12.6 2.5c-4.4.8-8.8 1.7-13.3 2.4-3.5.5-7-.6-10.4-1.5l-8.2-2.4-2.8-.9c-.4 0-.8-.2-1.2-.4v.4l-.3-.3-1.9 9.4c0 .1 0 .3.2.3l12.6 2.6 3.3.7 1.4.3c.5 0 1.1-.5 1.5-.7l3.5-2c.9-.5 1.8-.8 2.7-1l6.4-1.6c5.5-1.3 11-2.7 16.5-3.8 1.4-.3 4.2-1.4 5.1.1 1.2 2 1.1 5 1.1 7.2-.2.2.2.2.2-.1m-59.9 3.7 8.8 1.3 6.2.9c1 0 2.1.2 3.2.5l-.1-.1.2.4.6 1.5 1 2.5c.1.3.5.2.4-.1l-1.7-4.4-.2-.2-15.9-2.3-2.3-.3c-.4-.1-.5.3-.2.3"/>
  <path fill="#142145" fill-rule="nonzero" d="M437.6 581.8a84.4 84.4 0 0 1-31.4 7.8l-3.4.1c-.5 0-1.1-.2-1.6.1l-.9.9-3.6 3.6a.2.2 0 0 0 .3.3l4.2-4.2c.4-.4.4-.3 1.1-.3h3.6a82.6 82.6 0 0 0 31.9-7.8c.2-.3 0-.7-.2-.5"/>
  <path fill="#142145" fill-rule="nonzero" d="M436 584a74.2 74.2 0 0 1-10.3 3.7 75.5 75.5 0 0 1-21.2 4c0 .2 0 .3.2.3a99.8 99.8 0 0 0 31.5-7.6c.3-.1 0-.5-.2-.4"/>
  <path fill="#142145" fill-rule="nonzero" d="M436.8 585.1a12 12 0 0 1-3.9 3.1 45 45 0 0 1-15.6 4.8c-5.5.8-11 1.1-16.5 1.1-.1 0-.2.1-.2.3a87.8 87.8 0 0 0 25.7-2.9c3.5-1.1 7.1-2.5 9.8-4.9.4-.3.8-.7 1.1-1.2.1-.3-.2-.6-.4-.3"/>
  <path fill="#142145" fill-rule="nonzero" d="M402.1 593.2c3.5 0 6.9-.2 10.4-.5a47 47 0 0 0 15.8-3.4c.3-.1 0-.5-.2-.4-4.9 2.4-10.8 3-16.1 3.4-3.3.3-6.5.5-9.8.5-.4 0-.4.4-.1.4m-48.9-18.4a30 30 0 0 0 3.3 15.3 15 15 0 0 0 3.9 4.4c.2.2.5-.2.2-.4-3.8-2.7-5.6-7.4-6.4-11.8a38 38 0 0 1-.7-7.5c.2-.3-.3-.3-.3 0m-48.5-29a7.4 7.4 0 0 1-3.2 2.9c-3.6 1.9-7.8.7-11.2-1.1-.3-.1-.5.3-.2.4a14 14 0 0 0 9.6 1.8 9 9 0 0 0 5.4-3.8c.2-.3-.2-.5-.4-.2m-21.8-19.9-.3 4.7.1 3.7c0 1 .3 1.9.6 2.8.1.3.5 0 .4-.2l-.6-2.9-.1-3.6.3-4.5c.1-.3-.3-.3-.4 0m75.1 49.5 6.7 6.9c.1.2.4 0 .4-.2l1.3-10.1.2-1.4c0-.3-.4-.3-.5 0l-1.3 10.1-.2 1.4.4-.2-6.7-6.9c-.1-.2-.5.2-.3.4"/>
  <path fill="#142145" fill-rule="nonzero" d="M372.9 583.5 365 582a.3.3 0 0 0-.3.3l2.8 11.7.4 1.6c.1.3.5.2.4-.1l-2.8-11.7-.4-1.6-.3.3 7.9 1.5c.3 0 .5-.5.2-.5"/>
  <path fill="#142145" fill-rule="nonzero" d="m358.3 589 5.9-5.8.8-.8a.2.2 0 0 0-.3-.3l-5.9 5.8-.8.8a.2.2 0 0 0 .3.3"/>
  <path fill="#142145" fill-rule="nonzero" d="m356.8 582.5 3.5 3.2.5.5a.2.2 0 0 0 .3-.3l-3.5-3.2-.5-.5a.2.2 0 0 0-.3.3m13.1-7.9-3.9 1.9-.6.3c-.3.1 0 .5.2.4l3.9-1.9.6-.3c.3-.1.1-.5-.2-.4m2.2 15.6-3.6-6.6-.5-1c-.1-.3-.5 0-.4.2l3.6 6.6.5 1c.1.3.5 0 .4-.2m-11.2-19.1v7.2c0 .1 0 .2.2.2.1 0 .2 0 .2-.2v-7.2c.1-.3-.4-.3-.4 0m2 24.2 3.2-6.5.4-.9c.1-.3-.3-.5-.4-.2l-3.2 6.5-.4.9c-.1.3.3.5.4.2"/>
  <path fill="#142145" fill-rule="nonzero" d="M380.5 595.4a15 15 0 0 1-2.2 3.9c-.6.8-1.4 1.2-2.4 1.3-.8 0-1.6-.1-2.3-.3-4.3-.7-9.4-2.2-12.2-5.8a.2.2 0 0 0-.3.3c2.4 3 6.6 4.5 10.2 5.4 1.5.4 3 .7 4.5.7 1.4 0 2.6-.7 3.3-1.9.8-1 1.5-2.3 1.9-3.6 0-.1-.4-.3-.5 0m-88.6-70.2-1.2 8.6-.2 1.2.4-.1-4.7-5.7-.7-.8a.2.2 0 0 0-.3.3l4.7 5.7.7.8c.1.1.4.1.4-.1l1.2-8.6.2-1.2c0-.2-.4-.3-.5-.1"/>
  <path fill="#142145" fill-rule="nonzero" d="m285.6 542.2 5.3-7-.4-.1 2.7 10.6.4 1.5c.1.3.5.2.4-.1l-2.7-10.6-.4-1.5a.2.2 0 0 0-.4-.1l-5.3 7c-.1.3.3.5.4.3"/>
  <path fill="#142145" fill-rule="nonzero" d="m297.4 536.2-5.7-.9-.8-.1c-.3 0-.4.4-.1.4l5.7.9.8.1c.2.1.4-.4.1-.4m-2.4-7.8-3.3 1.9-.5.3c-.3.1 0 .5.2.4l3.3-1.9.5-.3c.3-.2.1-.6-.2-.4m-6.7 9.9-3.5-2.6-.5-.4c-.2-.2-.5.2-.2.4l3.5 2.6.5.4c.2.2.4-.2.2-.4m1.6 9.4 2.2-6.3.3-.9c.1-.3-.3-.4-.4-.1l-2.2 6.3-.3.9c-.1.2.3.3.4.1"/>
  <path fill="#142145" fill-rule="nonzero" d="m293.7 535.9 2.5 5.3.3.7c.1.3.5 0 .4-.2l-2.5-5.3-.3-.7c-.1-.2-.5 0-.4.2m-5.7-10.6.2 6v.9c0 .3.5.3.4 0l-.2-6v-.9c0-.1 0-.2-.2-.2-.1 0-.2 0-.2.2"/>
</svg>
