<svg xmlns="http://www.w3.org/2000/svg" viewBox="0 0 512 512">
  <path fill="#dec24f" d="M146.74 25.1v141.26l45.44-11.2V9.36s-36 10.49-45.44 15.73Zm51.75-17.37v145.95l48.84-12.05V1.34c.07 0-43.45 4.04-48.84 6.38Zm55.64-6.38c-1.63.28 0 138.57 0 138.57l59.54-14.67V7.8s-45.86-9-59.54-6.45Z"/>
  <path fill="#e8d585" d="M192.18 155.23 146.74 25.1v141.34l45.44-11.2Zm6.31-147.5 48.9 133.9-48.9 12.05V7.73Zm55.64-6.38 59.54 123.9-59.54 14.67"/>
  <path fill="none" stroke="#142145" stroke-width=".35" d="M111.59 387.73c-.08-.07 7.08-9.78 7.08-9.78l-7.08 9.78Zm12.83-5.81-12.83 5.81m320.74-44.23s-5.24-8.72-5.88-8.72M257.46 411.4l11.27-.7m.5 18.07c.7-.35 5.96-7.51 7.23-16.8M243 425.16s0 6.1 3.26 9.35c3.26 3.27 23.18 2.06 30.13-2.26"/>
  <path fill="#142145" d="m5.26 211.09 33.6-8.72L101.95 186l37.63-9.78c4.82-1.28 9.72-2.56 14.54-3.76 13.75-3.55 27.5-7.16 41.18-10.7 19.42-5.04 38.84-10.1 58.26-15.17 21.7-5.6 43.39-11.27 65.08-16.87 20.55-5.32 41.04-10.64 61.6-16.02 15.94-4.12 31.9-8.3 47.84-12.4 7.94-2.06 15.95-4.12 23.89-6.25.35-.07.7-.2 1.06-.28.64-.14.35-1.2-.28-1-5.6 1.43-11.13 2.92-16.73 4.33-14.32 3.69-28.64 7.45-42.89 11.13-19.7 5.1-39.48 10.28-59.18 15.38-21.7 5.67-43.46 11.27-65.15 16.94l-60.67 15.74c-15.45 4.04-30.9 8.01-46.43 12.05-7.23 1.84-14.46 3.76-21.69 5.6-8.3 2.13-16.59 4.32-24.88 6.45-20.7 5.39-41.47 10.77-62.16 16.16-15.17 3.97-30.41 7.87-45.58 11.84-.78.21-1.63.42-2.41.64a.55.55 0 0 0 .28 1.06Z"/>
  <path fill="#142145" d="M140.79 28.42V169.7c0 1.92-.07 3.83 0 5.75v.28c0 .3.24.53.53.53.3 0 .53-.24.53-.53V34.45c0-1.91.07-3.83 0-5.74v-.29a.53.53 0 0 0-.53-.53.53.53 0 0 0-.53.53ZM319.7 9.36v114.47c0 1.56-.07 3.12 0 4.68v.21c-.02.26.17.48.42.5l4.54.64 12.33 1.7 18.15 2.55c7.37 1.06 14.74 2.06 22.12 3.12l24.3 3.4c8.16 1.14 16.38 2.27 24.54 3.48l22.75 3.18c6.45.93 12.83 1.78 19.28 2.7 4.6.64 9.28 1.27 13.9 1.98 2.19.29 4.39.64 6.58.92.1 0 .2.02.29.08.64.07.99-.93.28-1l-4.54-.63-12.33-1.7c-6.02-.86-12.05-1.7-18.15-2.56-7.37-1.06-14.74-2.05-22.11-3.12l-24.31-3.4c-8.16-1.13-16.38-2.27-24.53-3.47l-22.75-3.2c-6.45-.91-12.83-1.76-19.28-2.69-4.61-.63-9.29-1.27-13.9-1.98-1.41-.21-2.83-.43-4.32-.64-.7-.07-1.56-.28-2.27-.35a.43.43 0 0 1-.28-.07c.14.14.28.35.42.5V14.17c0-1.56.07-3.12 0-4.68v-.21c-.07-.57-1.13-.57-1.13.07Zm-6.6-1.56v115.68c-.03.52-.03 1.04 0 1.56v.21c.15-.14.3-.35.43-.5-1.49.36-2.97.71-4.46 1.14l-12.12 2.98a1653.7 1653.7 0 0 1-17.94 4.39c-7.3 1.77-14.6 3.62-21.9 5.39-8.01 1.98-16.02 3.97-23.96 5.88l-24.24 5.96c-7.51 1.84-15.03 3.68-22.61 5.6a1880.8 1880.8 0 0 0-19.14 4.74l-13.75 3.4-4.26 1.07c-.7.21-1.48.28-2.2.57-.06 0-.2.07-.28.07.22.14.43.35.64.5V30.9c0-1.85.07-3.7 0-5.53v-.22a.53.53 0 0 0-.53-.53c-.3 0-.53.24-.53.53V160.7c0 1.85-.07 3.69 0 5.53v.21a.53.53 0 0 0 .64.5 91 91 0 0 0 4.46-1.13l12.12-2.98c5.96-1.49 11.98-2.98 17.94-4.4 7.3-1.77 14.6-3.61 21.9-5.38 8-1.99 16.02-3.97 23.96-5.89l24.24-5.95c7.51-1.84 15.03-3.69 22.61-5.6 6.38-1.56 12.76-3.12 19.14-4.75l13.75-3.4c2.2-.57 4.33-1 6.52-1.63.07 0 .22-.07.29-.07a.6.6 0 0 0 .42-.5V12.62c0-1.5.07-3.05 0-4.61V7.8c-.07-.71-1.13-.71-1.13 0Z"/>
  <path fill="#142145" d="M192.75 161.97V15.74c0-1.99.07-3.97 0-5.96V9.5a.54.54 0 0 0-1.07 0v146.23c0 1.99-.07 3.97 0 5.96v.28a.54.54 0 0 0 1.07 0ZM198 7.73v146.3c0 1.98-.08 3.97 0 5.95v.29c0 .29.23.53.52.53.3 0 .54-.24.54-.53V13.97c0-2 .07-3.98 0-5.96v-.28a.54.54 0 1 0-1.07 0Zm48.83-6.38v140.77c0 1.92-.07 3.83 0 5.74v.22c0 .29.24.53.53.53.3 0 .53-.24.53-.53V7.3c0-1.91.08-3.83 0-5.74v-.21a.54.54 0 0 0-.53-.48c-.27 0-.5.2-.53.48Zm6.73 0v138.64c0 1.85-.07 3.76 0 5.6v.22a.54.54 0 0 0 1.07 0V7.16c0-1.84.07-3.76 0-5.6v-.21a.54.54 0 0 0-.53-.48c-.28 0-.5.2-.53.48Z"/>
  <path fill="#e4f2fc" d="M315.66 303.38a16.45 16.45 0 0 0-.36 3.19v.07c0 .68.13 1.35.36 1.99l.21.2a7.96 7.96 0 0 1-.5-3.32v-.14c-.01-.54.09-1.07.29-1.56v-.08c.01-.2.06-.38.14-.56 0-.07.07-.14.07-.22 0-.07.07-.07.07-.14.39-1 1-1.89 1.77-2.62-1.84 1.77-2.05 3.19-2.05 3.19Zm120.22-13.33v-.2l-2.27-31.48v-.28l-.07-.5c0-.2-.02-.38-.07-.57l-6.67-4.6V251l-.07-.07-11.2-15.17-2.55-3.55v1.99l-7.16-.43h-.35l-3.97-.21h-.29c-2.26-.07-17.86-.43-38.98 6.66h-.14a141.55 141.55 0 0 0-13.12 5.1c-.14.08-.2.08-.28.15a84.96 84.96 0 0 0-4.54 2.12l-.42.22a49.8 49.8 0 0 0-9.36 5.95c-.07.07-.14.07-.21.14l-.07.07a76.8 76.8 0 0 0-5.74 5.04l-.15.14c-.85.85-1.7 1.7-2.48 2.62-.16.15-.3.32-.42.5a125.3 125.3 0 0 0-6.24 7.51c-.14.21-.28.36-.42.57-8.65 11.76-14.75 24.95-18.22 33.81-.07.14-.07.21-.14.35a181.08 181.08 0 0 0-1.99 5.4c-1.06 3.04-1.63 4.81-1.63 4.81l.07.14v.07l.07.22-.14.07-.5.14h-.07l-19.28 1.91h-.2l-2.99.29-4.1-.07h-.15l-10.63-.22h-.28l-3.62-.07-2.48-.42-28.57-4.82-.99-.21-17.08-3.76h-.14l-9.5-2.13-4.75-1.42h-.07l-11.9-3.61h-.08l-.64-.21-.21-.15-3.62-2.9a.07.07 0 0 0-.07-.07l-3.9-5.25-.2-.21v-.07l-.65.21-4.18 1.77-18.36 8.86-22.6 14.75-10.43 9.92-3.12 2.98-3.68 5.6-.57 3.75-.28 1.99.07 2.05 1.2 33.96v.07l1.35 7.37 1.84 10.28 2.06 3.76 5.1 3.33 3.47 2.26c3.12 1.28 8.44 2.98 14.47 4.82 12.9 3.9 28.7 8.23 31.54 9 .14.08.35.08.5.15l22.75 5.46h.07l.21.07h.07l.78.21h18l32.68-.21 1.28-8.37v-.07l.78-5.1v-.14c0-.29.07-.5.07-.78a.64.64 0 0 1 .07-.36l.92-8.79v-.2l.07-.22 2.27-8.72.36-1.49c.01-.1.06-.2.14-.28l3.68-8.93.07-.14.08-.08c0-.03.03-.07.07-.07l4.82-8.15.35-.64 2.27-2.69.07-.07 3.61-4.25c0-.04.04-.08.07-.08.04 0 .08-.03.08-.07l.07-.07a24.67 24.67 0 0 1 7.09-5.17h.07a21.2 21.2 0 0 1 3.9-1.49c.14-.07.28-.07.42-.14a19.8 19.8 0 0 1 5.17-.71h.08c1.54-.06 3.1.08 4.6.42.14 0 .22.08.36.08 1.57.3 3.07.93 4.4 1.84.13.07.28.21.42.28 2.4 1.9 4.17 4.5 5.03 7.44 0 .08.07.15.07.22.28.78.5 1.59.64 2.4v.08c.28 1.2.42 2.4.57 3.47.05.23.08.47.07.71 0 .21.07.36.07.5.12 1.67.15 3.35.07 5.03 0 .57-.21 2.34-.57 4.68-.07.64-.21 1.27-.28 1.98-.29 2.2-.71 4.61-1 6.8a.4.4 0 0 1-.07.3l-.56 3.4c-.08.34-.13.7-.14 1.06l-.36 2.34v.35l98.74-44.23.21-.64 1-2.9 4.46-12.9a11.4 11.4 0 0 1 0-1.78v-1.63c-.01-.38.01-.76.07-1.13.07-.92.15-1.99.29-3.2l.2-1.83c0-.15.08-.29.08-.5 0-.14.07-.36.07-.5l.07-.35a.26.26 0 0 1 .07-.21v-.15c0-.07.07-.2.07-.28v-.07c1-4.32 3.34-10 4.82-13.4l.07-.07a68.66 68.66 0 0 0 1.2-2.62c0-.07 0-.07.08-.14a.54.54 0 0 0 .14-.29c.07-.14.22-.28.29-.42.07-.14.14-.21.2-.36l.43-.63v-.07c.07-.15.22-.29.29-.43.07-.07.07-.14.14-.21v-.07c.21-.29.35-.5.57-.78l.56-.78c.22-.29.43-.5.64-.78 2.77-3.33 7.09-7.66 12.69-9.93.04 0 .07-.03.07-.07.21-.07.35-.14.57-.21l.7-.21c.47-.15.94-.27 1.42-.36.08.01.16-.01.22-.07.1 0 .2-.02.28-.07.14 0 .28-.07.43-.07h.56c2.32-.13 4.62.52 6.52 1.84.07 0 .07.07.15.07.14.15.35.22.5.36l.2.21a14 14 0 0 1 3.4 3.9l-.77-12.48Zm-136.45 25.1 2.62-6.88 1.06-2.83 1.2-2.27 5.32-10.28s8.37-13.9 13.68-20.84l.08-.07a24.78 24.78 0 0 1 2.48-2.98c.35-.35.78-.7 1.13-1.13a215.2 215.2 0 0 1 9.57-8.44c.07-.07.14-.07.21-.14l.07-.07 6.88-4.04 4.54-1.91 1.13 5.17.78 5.25 1.06 6.94.57 3.55.42 6.1.22 4.74c.07.92.07 1.77.14 2.48l.07.85v.36l.07 1.2c0 .29.02.57.07.85-.35.22-.64.36-1 .57-.31.14-.62.3-.91.5l-17.8 9.14s-7.3-5.25-12.19-2.83a14 14 0 0 0-2.83 1.84.56.56 0 0 0-.28.28l-.08.07c-1.84 1.7-2.05 3.12-2.05 3.12a16.45 16.45 0 0 0-.36 3.2v.06c0 .68.13 1.35.36 1.99l.42.42-.07.07-.14.07-8.5 4.9-8.86 5.1v-3.47l.85-.57.07-.07Zm88.32-46.29c-4.4 4.4-9.29 8.72-13.54 10.99-.32.19-.65.36-1 .5-3.6 1.76-8.85 4.46-14.45 7.3-.29.14-.5.28-.78.42 1.2-9.43-5.75-36.3-5.75-36.3 14.04-4.88 23.11-7.86 29.14-9.2.16-.07.33-.1.5-.08 5.6-1.2 8.57-1 10.63.29 4.46 2.83 7.72 12.19 7.72 12.19s-5.67 7.09-12.47 13.89Zm-72.1 34.52a16.45 16.45 0 0 0-.35 3.19v.07c0 .68.13 1.35.36 1.99l.21.2a7.96 7.96 0 0 1-.5-3.32v-.14c-.01-.54.09-1.07.29-1.56v-.08c.01-.2.06-.38.14-.56 0-.07.07-.14.07-.22 0-.07.07-.07.07-.14.39-1 1-1.89 1.77-2.62-1.84 1.77-2.05 3.19-2.05 3.19Z"/>
  <path fill="#363636" d="m229.04 240.72-2.34 1.91 45.65 11.34 16.23 3.55 14.32 2.7 13.96 1.98 6.31-.07 2.34-.43 8.58-7.87 8.15-5.31 6.38-3.12 13.4-5.25 16.73-4.18 13.53-1.98 13.47-.22 7.16.43v-1.99a19.88 19.88 0 0 0-9.14-4.46 78.12 78.12 0 0 1-6.67-1.56s-23.67-4.47-24.52-4.26c-.78.22-21.83-2.97-21.83-2.97L337 217.33h-13.7l-16.65.78-14.04 1.56-20.34 4.04-11.06 3.12-11.9 4.25-13.55 6.02-6.73 3.62Zm45.29 191.46-2.83 1.27-6.95 1.49-5.67.57-7.87-.14-3.54-.78s-1.28-.08-2.48-2.34a24.45 24.45 0 0 1-1.7-3.9l-.5-3.83.57-1.13 2.05-20.56 2.84-11.06 4.4-11.27 4.39-7.58 5.6-7.02s8.58-9.43 17.79-8.79c9.22.7 11.84 4.11 11.84 4.11l2.7 4.04s1.83 6.8 1.9 9.43c.08 2.62-1.84 18.78-1.84 18.78l-1.13 7.1-1 .2s1.99-8.15 1.42-12.19c-.56-4.04-.21-8.5-3.82-14.6-3.62-6.1-8.94-7.73-8.94-7.73h-5.67l-4.46 2.06-4.9 2.84-2.4 2.83-6.1 11.34-2.4 8.58-1.64 14.53s.78 9.36 2.06 12.2c1.2 2.83 4.04 10.13 9.35 11.33 2.93.7 5.98.77 8.93.22ZM435.1 317.77l1.7-7.23-.14-6.95s-3.34-9.14-12.7-6.87c-9.35 2.27-15.23 10.35-15.23 10.35l-6.17 11.12-2.55 7.94-1.42 7.02v6.6l-5.67 16.5a26.47 26.47 0 0 0 0 3.41c.14.85 1.2 5.89 5.39 6.24l2.83.43 2.98.2 2.41.08 4.04-.28 3.05-.36-3.05-1-3.61-4.46-2.06-6.1-1.2-9.7-.15-7.66 1-7.37 2.05-7.73 3.62-6.87s6.52-10.92 12.97-10.57a9.7 9.7 0 0 1 8.5 5.68l3.4 7.58Z"/>
  <path fill="#142145" d="M434.95 319.4c0 4.96-.14 9.85-.56 14.74-.3 3.33-.9 6.63-1.77 9.86-1.85 6.87-4.97 14.53-11.06 18.71-2.7 1.84-6.17 3.05-9.5 2.2-2.7-.71-4.18-3.48-5.1-5.89a35.75 35.75 0 0 1-2.13-8.08c-1.98-11.98-.64-24.66 5.67-35.23a28.22 28.22 0 0 1 5.32-6.66c2.05-1.84 4.75-3.9 7.65-3.9 2.7 0 4.96 1.85 6.6 3.9a27.62 27.62 0 0 1 3.96 7.23c.22.53.41 1.08.57 1.63.14.5.92.57 1 0 .49-2.34 1.2-4.68 1.62-7.02.1-.96.12-1.93.07-2.9 0-1.5-.07-2.9-.14-4.4a.53.53 0 0 0-.53-.53c-.3 0-.53.24-.53.53.07 1.35.14 2.77.14 4.11a22 22 0 0 1-.07 3.05c-.42 2.34-1.13 4.61-1.63 6.88h1c-1.5-4.47-3.76-9.43-7.8-12.12a7.82 7.82 0 0 0-7.38-.85 19.03 19.03 0 0 0-6.94 5.1c-4.19 4.54-6.88 10.42-8.58 16.3a55.8 55.8 0 0 0-1.84 19.07 62 62 0 0 0 1.27 8.86 27.09 27.09 0 0 0 3.12 8.36c1.42 2.34 3.33 3.7 6.1 3.83a12.9 12.9 0 0 0 5.88-1.06c6.3-2.7 10.14-9.14 12.48-15.31a58.06 58.06 0 0 0 2.34-7.8 49.9 49.9 0 0 0 1.06-5.67c.42-3.97.57-8 .7-12.05.08-1.63.08-3.33.08-4.96 0-.64-1.06-.64-1.06.07Z"/>
  <path fill="#142145" d="M435.8 297.14c.15 2.13.22 4.26.36 6.38.35-.07.64-.21 1-.28-1.21-2.34-2.49-4.47-4.76-5.96a10.55 10.55 0 0 0-7.01-1.41c-3.69.42-7.23 2.27-10.14 4.53-8.93 6.8-14.46 17.65-16.3 28.5a65.5 65.5 0 0 0-.85 9.14 6.6 6.6 0 0 1-.43 2.84l-3.4 9.85c-.22.7-.5 1.42-.71 2.13-.28.78-.5 1.56-.78 2.34-.14.35-.5.99-.07.63-.56.32-1.16.58-1.77.78l-29.56 13.19-42.32 18.92-16.52 7.38c-1.84.85-3.68 1.63-5.45 2.48-1 .34-1.98.76-2.9 1.27a.75.75 0 0 1-.36.14c.24.22.5.4.78.57a53.4 53.4 0 0 0 1.34-7.16c.5-3.26.92-6.52 1.2-9.85.5-6.24.79-13.26-1.7-19.14-2.47-5.67-9.28-8.36-15.16-8.08-6.38.28-12.2 3.62-16.73 7.94-9.71 9.29-15.45 23.04-17.86 36.08-1 5.39-1.07 10.98-1.78 16.44-.2 1.56-.42 3.12-.7 4.68-.15.71-.22 2.13-.71 2.41-.78.43-2.63.21-3.48.29-10.35.35-20.7.07-31.04-.08-5.32-.07-10.64 0-15.95-.28-1.06-.12-2.1-.34-3.12-.64-2.41-.56-4.9-1.13-7.3-1.7-14.96-3.61-29.91-7.44-44.59-12.19-6.94-2.27-14.17-4.6-20.41-8.3a20.06 20.06 0 0 1-3.2-2.26c-1.05-1-1.55-2.9-1.98-4.4a82.4 82.4 0 0 1-2.34-11.76c-1.27-9.86-1.55-19.92-1.77-29.85-.07-3.47-.07-6.94.07-10.42.15-3.11.29-6.02 2.13-8.64 3.97-5.74 9.36-10.56 14.74-14.89 11.35-9.14 24.25-16.44 37.5-22.4 3.4-1.56 6.8-2.97 10.28-4.4.92-.35 1.77-.7 2.7-1.06a6.62 6.62 0 0 0 1.76-.7c.08-.08.08-.15.15-.29a34.57 34.57 0 0 0 2.4-3.9c12.2-18.28 29.85-33.1 48.77-43.94 27.72-15.88 59.48-23.25 91.3-24.18 7.2-.29 14.42-.2 21.62.29 5.18.42 10.35 1.27 15.52 1.91 15.17 1.99 30.55 3.97 45.44 7.66 2.84.7 6.24 1.34 8.72 2.97 3.05 1.92 5.46 5.46 7.65 8.3a157.9 157.9 0 0 1 5.82 8.22c.7 1.06 1.41 2.13 2.05 3.19.41.83.91 1.61 1.5 2.34.91 1.06 2.4 1.91 3.54 2.76.56.54 1.18 1.01 1.84 1.42.28.14.35.43.21.07.12.59.17 1.18.14 1.78l1.28 16.44c.42 7.37.92 14.67 1.35 21.9.07.71 1.13.71 1.06 0a1383.3 1383.3 0 0 0-2.77-38.77c-.07-.64.07-1.35-.35-1.84a13.04 13.04 0 0 0-1.84-1.5c-1.14-.91-2.77-1.76-3.69-2.9-.53-.74-1-1.52-1.42-2.34a227.26 227.26 0 0 0-8.22-11.9c-2.06-2.7-4.32-5.6-7.02-7.73-2.12-1.63-5.03-2.27-7.58-2.98-7.23-1.98-14.75-3.19-22.19-4.46-13.47-2.2-27.08-4.26-40.61-5.6-6.6-.64-13.33-.5-19.92-.36-8.1.13-16.2.72-24.24 1.77a196.53 196.53 0 0 0-45.37 11.13c-25.23 9.64-48.55 25.1-66 45.86a130.4 130.4 0 0 0-6.65 8.72c-1.07 1.56-1.99 3.26-3.12 4.82-.64.85-1.56.85-2.7 1.28-3.12 1.2-6.23 2.55-9.35 3.9a211.33 211.33 0 0 0-20.77 10.49c-11.84 6.87-23.82 15.17-32.54 25.87-1.63 1.98-3.19 3.97-3.68 6.52-.46 3.34-.68 6.7-.64 10.07-.07 5.17.14 10.27.35 15.45.22 4.82.43 9.64.85 14.46.36 3.83.85 7.65 1.5 11.41.56 3.12 1.13 6.95 2.83 9.71a7.37 7.37 0 0 0 1.77 1.84 22 22 0 0 0 4.04 2.63c2.9 1.48 5.89 2.8 8.93 3.97 7.3 2.83 14.82 5.17 22.33 7.3 13.4 3.9 26.94 7.3 40.62 10.42 3.75.85 7.65.56 11.48.64 5.53.07 11.06.2 16.59.28 5.45.07 10.91.14 16.3.07 1.98 0 3.97-.07 5.95-.14 1-.07 2.2.07 3.12-.29 1.35-.5 1.28-2.69 1.49-3.82.57-3.4 1-6.88 1.35-10.35.21-2.27.28-4.6.56-6.95.4-3.2 1.04-6.39 1.92-9.5a73.28 73.28 0 0 1 9.28-20.84c3.83-5.88 8.72-11.27 15.17-14.17a19.98 19.98 0 0 1 11.63-1.7c3.33.63 7.09 2.26 9.14 5.03 1.77 2.4 2.48 5.81 2.84 8.58.37 3.88.4 7.8.07 11.7-.22 3.53-.71 7.15-1.28 10.7a47.18 47.18 0 0 1-1.29 6.71.52.52 0 0 0 .8.44c6.73-2.97 13.4-6.02 20.13-9 13.6-6.1 27.22-12.12 40.82-18.22 11.06-4.96 22.12-9.85 33.18-14.81a83.4 83.4 0 0 1 3.68-1.63c.85-.36 1.14-.43 1.5-1.35 1.76-5.1 3.54-10.2 5.3-15.38.22-.95.3-1.93.22-2.9.06-3.1.37-6.18.92-9.22a45.89 45.89 0 0 1 6.31-16.45 37.09 37.09 0 0 1 10.7-11.55c3.7-2.48 8.72-4.68 13.19-2.9 2.9 1.13 4.54 3.68 5.88 6.38.21.5 1 .2 1-.29-.08-2.12-.22-4.25-.36-6.38-.21-.56-1.28-.56-1.2.07Z"/>
  <path fill="#142145" d="M176.02 290.34c.3 0 .53-.24.53-.53 0-.3-.24-.53-.53-.53-.3 0-.53.23-.53.53 0 .29.24.53.53.53Zm122.28 24.1a170.62 170.62 0 0 1-21.63 2.27c-6.73.37-13.47.33-20.2-.15-5.03-.35-10-1.06-14.96-1.9a523.5 523.5 0 0 1-29.34-5.82 470.2 470.2 0 0 1-25.73-6.38 79.94 79.94 0 0 1-7.3-2.34c-.94-.4-1.8-.94-2.55-1.63a27.21 27.21 0 0 1-4.9-5.74c-.2-.36-.5-.71-.7-1.07a.54.54 0 0 0-.45-.23.54.54 0 0 0-.47.8c.79 1.3 1.66 2.56 2.62 3.76 1.34 1.7 2.98 3.54 4.89 4.6a27.9 27.9 0 0 0 5.81 2.13c8.01 2.48 16.23 4.4 24.39 6.31a603.4 603.4 0 0 0 30.05 6.17c4.32.78 8.72 1.49 13.04 1.98 6.96.82 13.98 1.1 20.98.85 8.8-.18 17.56-1.01 26.23-2.48.14 0 .28-.07.43-.07a.54.54 0 0 0 .46-.54.55.55 0 0 0-.68-.52Zm35.65-11.84c1.2.64 2.69 1.91 2.55 3.47a2.7 2.7 0 0 1-1.56 2.2 17.74 17.74 0 0 1-6.03 1.99c-2.42.52-4.9.74-7.37.63-1.56-.07-3.97-.28-4.96-1.7-1-1.34-.85-3.68-.5-5.24a7.38 7.38 0 0 1 2.49-3.83 8.43 8.43 0 0 1 4.32-2.2c1.42-.1 2.84.1 4.18.57a28.6 28.6 0 0 1 5.67 2.55c.85.5 2.13-.57 2.84-1 7.51-3.89 15.02-7.79 22.6-11.62.65-.28.08-1.2-.56-.92-8.3 4.19-16.44 8.44-24.67 12.7h.57c-2.76-1.71-6.1-3.2-9.35-3.41-4.9-.29-9.43 4.32-9.36 9.21.07 1.92.5 3.9 2.27 4.82 1.46.7 3.05 1.07 4.67 1.07 3.94.19 7.87-.41 11.56-1.78 1.27-.5 2.83-1.06 3.61-2.26 1.56-2.49-.28-5.04-2.48-6.17-.56-.28-1.06.64-.5.92Z"/>
  <path fill="#142145" d="M358.33 288.5c4.4-2.2 8.72-4.47 13.11-6.67l5.96-2.97c2.27-1.07 4.18-2.84 6.1-4.4a277.2 277.2 0 0 0 15.52-14.6l4.25-4.25c.21-.22.43-.43.35-.78a8.25 8.25 0 0 0-.5-1.5 41.81 41.81 0 0 0-3.18-7.01c-1.91-3.26-4.75-7.09-8.72-7.58-2.7-.36-5.53.14-8.15.63-8.44 1.63-16.59 4.54-24.6 7.45a388.48 388.48 0 0 0-12.61 4.89c-3.48 1.41-7.02 2.69-10.14 4.75-6.8 4.39-12.05 10.98-16.73 17.43a182.75 182.75 0 0 0-13.04 21.34 290 290 0 0 0-4.18 8.15c-1.78 3.62-3.4 7.3-3.97 11.27a12.8 12.8 0 0 0-.08 3.33c.04.39.11.77.22 1.14 0 .07.07.2.07.28.07.21.07.35.07.07v.02a.5.5 0 0 0 .78.4c4.47-2.69 9-5.38 13.47-8 1.2-.71 2.34-1.42 3.54-2.13a.54.54 0 0 0-.57-.92c-4.53 2.7-9.07 5.39-13.6 8.15-1.14.7-2.27 1.35-3.4 2.06.26.12.52.26.77.42a2.22 2.22 0 0 0-.21-.64 8.8 8.8 0 0 1-.21-1.91c.02-1.34.18-2.67.5-3.97a37.7 37.7 0 0 1 3.04-8.15c1.63-3.4 3.33-6.74 5.1-10.07 5.04-9.35 10.7-18.64 17.58-26.86 3.2-3.76 6.74-7.44 10.85-10.2a40.95 40.95 0 0 1 5.81-3.06c2.48-1.06 4.96-2.12 7.44-3.12 10.35-4.18 20.91-8.15 31.76-10.63 2.03-.51 4.09-.9 6.17-1.13 1.5-.2 3.02-.23 4.53-.07 2.56.42 4.61 2.55 6.03 4.53a34.86 34.86 0 0 1 4.6 9c.22.57.43 1.21.64 1.85.07-.14.07-.36.15-.5-1.85 2.2-4.04 4.11-6.1 6.17-3.62 3.54-7.23 7.09-10.99 10.49-2.83 2.55-5.81 5.32-9.28 7.02-2.98 1.41-5.96 2.97-8.94 4.46l-9.56 4.9c-.78.35-.29 1.27.35.92Z"/>
  <path fill="#142145" d="M412.41 232.21v1.99c.22-.14.43-.36.64-.5a38.2 38.2 0 0 0-4.89-.5 93.75 93.75 0 0 0-13.4.15c-16.23 1.2-32.25 5.6-47.13 11.98-11.84 5.1-21.7 13.96-29.49 24.1a126.85 126.85 0 0 0-16.45 29.13 110.94 110.94 0 0 0-5.67 16.3c0 .07-.07.14-.07.22-.14.63.85.92 1 .28 1.17-4.5 2.64-8.94 4.39-13.26 3.8-9.95 8.77-19.43 14.81-28.2 7.23-10.36 16.38-19.71 27.58-25.67a95.3 95.3 0 0 1 11.41-4.89c4.32-1.63 8.72-3.05 13.18-4.32a138.02 138.02 0 0 1 22.2-4.4c7.15-.78 14.95-1.13 21.96-.07.1 0 .2.02.29.07.04.02.1.02.14.02a.5.5 0 0 0 .5-.5v-2c.07-.56-1-.56-1 .07ZM266.75 371.57l.14-.14.71-.5a27.9 27.9 0 0 1 2.41-1.56 21.38 21.38 0 0 1 7.37-2.9 9.69 9.69 0 0 1 4.04.14 9.22 9.22 0 0 1 3.62 2.27 27.4 27.4 0 0 1 5.53 6.87c3.4 6.17 3.61 13.47 2.76 20.35a75.3 75.3 0 0 1-5.32 19.63c-2.26 5.39-5.45 11.34-10.63 14.46a13.35 13.35 0 0 1-11.7 1.06c-4.53-1.84-7.58-6.16-9.14-10.63-2.48-7.16-2.27-15.24-1.06-22.68a58.8 58.8 0 0 1 5.88-18.29 40.24 40.24 0 0 1 5.04-7.73l.35-.35a.56.56 0 0 0-.41-.92.55.55 0 0 0-.37.14 31.51 31.51 0 0 0-4.18 5.88 56.39 56.39 0 0 0-6.52 17.02c-1.7 7.86-2.41 16.44-.57 24.3 1.2 5.11 3.83 10.29 8.36 13.2a13.97 13.97 0 0 0 12.2 1.27c5.52-1.99 9.14-7.09 11.76-12.05a72.33 72.33 0 0 0 6.8-20.56c1.28-7.01 1.78-14.53-.77-21.26a26.6 26.6 0 0 0-4.75-7.94c-1.92-2.2-4.11-4.54-7.09-5.1-4.96-1-10.28 1.84-14.25 4.6-.35.22-.64.5-.99.71-.5.36.28 1.14.78.71Z"/>
  <path fill="none" stroke="#142145" stroke-width=".35" d="M415.82 273.75s5.88-3.4 8.29-3.4c2.41 0 3.62 6.1 3.62 10.91 0 4.9-3.27 7.3-8.09 8.94-4.82 1.63-3.82-16.45-3.82-16.45Zm17.65-16.8s-42.18 24.74-54.3 30.41m48.63-35.73-38.92 25.6m16.3-43.6 19.43 20.06m-8.86-18.43-2.77 6.38-13.6 4.9-1.21-2.91 12.26-4.54m-57.77 51.67s-.92-25.94-4.47-37.57m10.64 34.45s5.31 7.8 4.89 12.27c-.43 4.46-.78 23.1-1.2 25.94-.43 2.84-2.06 3.69-1.21 9.14.85 5.46 1.63 10.28 1.63 10.28v5.67s-3.26 0-2.41 1.63a376 376 0 0 1 2.4 5.25l-2.83 9.71m-65.14 28.21 99.17-43.03m4.47-12.9-102.65 49.06m2.48-69.47c-.1 1.74.19 3.49.86 5.1 1.13 2.98 2.33 6.67 2.76 13.54.14 2.7.28 10.07.28 18.36.07 12.76-.07 27.5-.28 30.27-.43 4.53-1.7 6.73-1.7 6.73m82.01-77.69-79.96 40.7m94.92-20.35-89.18 41.75"/>
  <path fill="none" stroke="#142145" stroke-width=".35" d="M295.95 386.45s3.05-3.47 6.38-3.9c3.33-.42 8.37-8.36 8.37-8.36l70.38-33.74h6.74m48.48-43.24s-22.04-21.2-38.98 29.5m-3.19-41.76s11.76-6.1 12.54-5.24c.14.14.36.42.57.63.92 1.07 1.98 2.77 1 3.4-1.21.79-11.77 6.1-12.98 5.25-1.2-.78-1.2-3.76-1.2-3.76"/>
  <path fill="none" stroke="#142145" stroke-width=".35" d="m408.52 282.19-.22.14c-6.1 3.83-8.5 3.05-8.5 3.05s-.78-.43-.43-.78c.43-.43 7.94-4.12 7.94-4.12m-61.81 28.36s11.77-6.1 12.55-5.25c.14.15.35.43.56.64.92 1.06 1.99 2.76 1 3.4-1.2.78-11.77 6.1-12.98 5.25-1.2-.78-1.2-3.76-1.2-3.76"/>
  <path fill="none" stroke="#142145" stroke-width=".35" d="m359.82 306.07-.21.15c-6.1 3.82-8.51 3.04-8.51 3.04s-.78-.42-.42-.78c.42-.42 7.93-4.1 7.93-4.1m-23.53-1.71s38.35-15.95 47.28-24.17c8.93-8.15 20.7-23.6 20.7-23.6s2.83 6.1 2.4 9.35c-.42 3.26 4.9 6.52 4.9 6.52s5.17 22.69 3.61 31.4M298 364.34s-14.95-30.34-42.95 5.32c0 0-9.85 13.32-11.2 23.67m-128.58-67.27a7.14 7.14 0 0 0 0 8.93c3.62 4.68 36.86 15.6 58.34 19.64 21.48 4.04 53.52 6.52 66.06 3.26 12.55-3.26 11.41-3.4 11.41-3.4m-142.26 30.33s8.44 7.16 22.61 11.2c14.18 4.04 67.7 18.65 89.17 17.02 21.48-1.63 24.53-3.12 24.53-3.12"/>
  <path fill="none" stroke="#142145" stroke-width=".35" d="M400.22 254.97s-5.67 7.09-12.47 13.96c.07-1.84-3.4-17.22-3.4-17.22l-2.49-9.15c5.6-1.2 8.58-.99 10.64.29 4.46 2.76 7.72 12.12 7.72 12.12Z"/>
  <path fill="none" stroke="#142145" stroke-width=".35" d="M387.75 268.86c-4.4 4.4-9.29 8.72-13.54 10.99-.32.19-.65.36-1 .5-3.6 1.76-8.85 4.46-14.45 7.3-.29.14-.5.28-.78.42 1.2-9.43-5.75-36.3-5.75-36.3 14.04-4.88 23.11-7.86 29.14-9.2.16-.07.33-.1.5-.08l2.48 9.15s3.47 15.38 3.4 17.22Zm-161.33 126.6 1.42-.57c4.39-1.49.85-16.73.85-16.73l-9.72.85s-2.4-4.89-3.82-6.16c-1.42-1.28-30.2-.71-31.83-3.55-1.63-2.83 32.47-4.46 35.44-5.17 2.98-.71 5.53-4.68 5.53-4.68.7-.71 23.68-24.24 73.79-43.66l1.06-.43c.07 0 .14-.07.22-.07v-.07c.14-.43 1.06-3.05 2.69-6.95a209.1 209.1 0 0 1 2.27-5.1c4.04-8.8 10.42-20.84 18.92-31.12l.07-.07a165.6 165.6 0 0 1 3.62-4.11 66.9 66.9 0 0 1 9.57-8.44c.07-.07.14-.07.21-.14l.07-.07a46.57 46.57 0 0 1 11.13-5.88c.07 0 .21-.07.28-.07 1.42-.5 2.77-1 4.04-1.42M154.9 368.45s-3.62-6.1-8.51-2.83c-4.9 3.26-2.83 10.56 2.41 11.34 5.32.85 8.15-3.62 6.1-8.5Z"/>
  <path fill="none" stroke="#142145" stroke-width=".35" d="M149.58 365.55s-4.82.07-5.25 4.46c-.42 4.4 6.1 8.93 9.71 4.47 3.7-4.4-2.05-9.79-4.46-8.94Z"/>
  <path fill="none" stroke="#142145" stroke-width=".35" d="M114.14 333.08s-3.83 2.55-3.4 4.54c.42 2.05 11.76 15.38 10.13 16.65-1.63 1.2-11.77-11.05-11.77-11.05v21.12c0 2.76 6.46 12.62 18.22 18.29 11.77 5.67 64.86 15.02 64.86 15.02s39.77-2.4 42.32-2.76c2.55-.28 2.27-17.93 2.27-17.93 4.4-10.28 9.56-17.72 14.81-23.11 15.52-15.95 31.83-14.04 31.83-14.04l17.65-9.35"/>
  <path fill="none" stroke="#142145" stroke-width=".35" d="M112.01 387.16c-.07-.07 7.09-9.7 7.09-9.7l-7.09 9.7Zm12.83-5.81-12.83 5.81m80.24 10.49 10.7 14.46m222.79-100.79s-10.14-1.63-14.6 9.36c-4.47 10.91-8.93 37.28 6.1 40.12 15.02 2.83 17.43-35.66 15.38-40.55a26.77 26.77 0 0 0-2.41-4.46c-1.78-2.7-3.62-4.47-4.47-4.47Z"/>
  <path fill="none" stroke="#142145" stroke-width=".35" d="M429.92 315.29s-11.05 19.14-11.48 19.14l-9-8.86m7.36 35.08s4.97-15.73 3.9-20.2c-1.06-4.46-2.69-3.26-2.69-3.26l-9.42 16.02"/>
  <path fill="none" stroke="#142145" stroke-width=".35" d="M423.9 358.95s-2.55-16.02-3.2-18.5m12.41-9.15-7.87 3.13-7.15 2.83-11.2 4.47m24.52 1.34s-5.17-8.71-5.81-8.71m-.5-23.18-2.27 16.23m-7.65-12.76.07 16.66m-251.42-35.44s16.65 4.46 8.93 10.13c-7.73 5.67-28.14 15.1-39.84 30.06m61.32 18.21s45.93-34.44 52.38-34.87c6.45-.42 35.3-2.27 29.41 1.91-5.95 4.19-42.45 21.34-51.74 31.4M226 242.5s88.52 23.88 99.51 19.2M281.5 372.85s-17.59-4.82-22.62 20.55c-5.03 25.38 2.55 36.65 10.07 34.66 7.51-1.98 24.17-13.54 22.75-39.2 0 0-3.62-14.88-10.2-16.01Z"/>
  <path fill="none" stroke="#142145" stroke-width=".35" d="M280.15 372.85c-.07 10.49-6.45 24.8-6.6 26.15 0 0-10.49-9.35-13.68-9.64m-.63 31.76s12.4-13.04 14.24-22.12"/>
  <path fill="none" stroke="#142145" stroke-width=".35" d="M291.7 394.82s-4.75 2.06-9.71 3.97a59.37 59.37 0 0 1-9.29 2.9c-3.17.72 6.31 14.9 5.1 21.62m9-46.21s-7.08 10.35-9.7 11.41m-9.64-12.19 1.06 18.5m-11.2 15.88 11.2-.64"/>
  <path fill="none" stroke="#142145" stroke-width=".35" d="M288.51 409.07s-3.54-6.8-6.52-10.28m-12.97 29.27c.7-.35 5.95-7.51 7.16-16.72m-33.25 13.04s0 6.1 3.26 9.35c3.26 3.26 23.11 2.06 29.99-2.2m141.62-66.41s-11.13 2.9-20.84.5c0 0-4.89-1.64-4.04-9.36"/>
  <g opacity=".35">
    <path fill="#363636" stroke="#142145" stroke-width=".35" d="M387.75 269.29c-4.4 4.39-9.29 8.71-13.54 10.98-.32.2-.65.36-1 .5-3.6 1.77-8.85 4.46-14.45 7.3-.29.14-.5.28-.78.43 1.2-9.43-5.75-36.3-5.75-36.3 14.04-4.89 23.11-7.86 29.14-9.21.16-.07.33-.09.5-.07l2.48 9.14s3.47 15.38 3.4 17.23Z"/>
    <path fill="#363636" stroke="#142145" stroke-width=".35" d="M400.22 255.32s-5.67 7.09-12.47 13.97c.07-1.85-3.4-17.23-3.4-17.23l-2.49-9.14c5.6-1.2 8.58-1 10.64.28 4.46 2.77 7.72 12.12 7.72 12.12Z"/>
    <path fill="#363636" d="M325.44 262.13c-15.74 16.37-24.17 38.13-27.36 48.05a246.66 246.66 0 0 0-1.63 4.82l.07.22a.55.55 0 0 0-.07.21l-.5.14h-.14l-19.2 1.92c-2.28.14-4.69.2-7.17.2l-11.4-.28a68.78 68.78 0 0 1-5.4-.42h-.14l-28.28-4.75a.26.26 0 0 1-.21-.07l-1-.21c-.07 0-.2-.07-.28-.07l-17.08-3.76h-.14a420.2 420.2 0 0 1-14.25-3.55l-11.84-3.61a8.32 8.32 0 0 1-1.06-.43l-3.55-2.83-.07-.07c0-.07-.07-.07-.07-.14l-4.1-5.46c1.76-.71 3.54-1.42 5.38-2.13 0 0 14.25-26.37 49.97-47.28l.64.22c.07 0 .07 0 .14.07 4.25 1.13 24.38 6.45 45.44 11.27l1.06.21c4.68 1.06 9.43 2.13 14.04 3.05h.14l1.13.21.5.07c.07 0 .14.07.2.07 4.55.92 8.94 1.77 13.05 2.48.29.07.57.07.85.14 3.62.64 6.95 1.14 9.93 1.42l3.82.57 2.49-.07c1.25.05 2.5.03 3.75-.07h.29a9.8 9.8 0 0 0 1.77-.36l.28.22Z"/>
    <path fill="#142145" d="M325.09 261.77a108.8 108.8 0 0 0-17.02 23.82 150.66 150.66 0 0 0-10.84 25.66c-.36 1-.71 2.05-1 3.05l-.2.63c0 .22.06.43 0 .57l.35-.35c-1.19.25-2.4.4-3.62.42-2.55.29-5.1.5-7.72.78-4.75.5-9.43.92-14.25 1.07-4.18.07-8.36-.08-12.48-.22-3.73-.2-7.45-.64-11.12-1.34l-15.39-2.56c-2.97-.5-6.02-.92-9-1.55a735.43 735.43 0 0 1-30.55-7.1c-4.04-1.06-8-2.4-12.05-3.6a6.9 6.9 0 0 1-1.7-.72c-1-.7-1.91-1.49-2.84-2.27-1.34-1.06-2.26-2.76-3.33-4.1-.49-.57-.94-1.16-1.34-1.78-.07.28-.22.5-.29.78 1.07-.42 2.06-.85 3.12-1.27.43-.15.85-.36 1.28-.5.47-.1.91-.32 1.27-.64.07-.07.07-.14.14-.21l.93-1.56a98.54 98.54 0 0 1 4.96-7.16c6.86-8.92 14.73-17 23.46-24.1 6.16-5.03 12.7-9.58 19.56-13.61.07-.07.57-.43.36-.35.07 0 .28.07.35.07.2.08.42.12.64.14l.92.21c.85.21 1.7.43 2.63.7 2.55.65 5.1 1.36 7.65 2a1121.4 1121.4 0 0 0 48.48 11.48c7.3 1.49 14.6 2.97 21.98 4.04 2.55.35 5.03.64 7.58 1.06.64.06 1.28.08 1.92.07 1.34 0 2.7.07 4.04 0 1.19-.1 2.37-.26 3.54-.5.64-.14.36-1.13-.28-.99-1.35.32-2.73.49-4.11.5h-4.26l-1.2-.21c-.85-.15-1.7-.29-2.48-.36a355.5 355.5 0 0 1-24.31-4.18c-15.74-3.12-31.33-7.02-46.86-10.99-4.82-1.2-9.64-2.48-14.39-3.75l-.85-.22a1.46 1.46 0 0 0-1.91.36 180.75 180.75 0 0 0-15.1 10.14 147 147 0 0 0-25.94 25.02c-2.2 2.7-4.26 5.52-6.17 8.43l-1.56 2.41c-.15.35-.34.69-.57 1 .22-.15-.42.06-.5.06-.49.22-.99.36-1.41.57-1.06.43-2.13.85-3.12 1.28a.5.5 0 0 0-.28.78c.62.96 1.3 1.89 2.05 2.76.71.92 1.35 1.99 2.13 2.84.93.88 1.92 1.68 2.98 2.4a6.9 6.9 0 0 0 2.48 1.28c2.9.85 5.8 1.78 8.72 2.63 3.61 1.06 7.3 1.98 10.98 2.9 6.31 1.56 12.62 2.9 19 4.33a296 296 0 0 0 10.84 2.12c6.38 1.07 12.76 2.13 19.14 3.26 1.5.29 2.98.57 4.54.71 3.4.36 6.73.43 10.14.5 5.72.21 11.45.07 17.15-.43 3.33-.35 6.66-.64 10-.99 1.9-.21 3.9-.21 5.74-.57.25-.05.49-.14.7-.28a.8.8 0 0 0 .22-.57c0-.14-.07-.64-.07-.21.12-.56.28-1.1.5-1.63l1.9-5.6a150.5 150.5 0 0 1 4.33-11.13 125.25 125.25 0 0 1 16.44-27.86 82.1 82.1 0 0 1 5.68-6.45c.5-.63-.29-1.41-.71-.92Z"/>
    <path fill="#363636" stroke="#142145" stroke-width=".35" d="M352.66 291.19c-.35.21-.7.35-1.06.56l-18.3 9.43s-7.72-4.89-12.18-2.83a13.52 13.52 0 0 0-3.4 2.27l-.08.07c-.07 0-.07.07-.07.14a5.87 5.87 0 0 0-1.98 3.05c-.32 1.2-.78 3.26 0 5.24l.21.21c0 .08.07.15.14.22l-9.07 5.24-.14.07-8.37 4.82v-3.54l.71-.43c.07 0 .14-.07.22-.07v-.07l.14-.07 2.55-6.87v-.08c.64-1.48 1.42-3.26 2.27-5.1l5.31-10.28s8.22-13.6 13.54-20.7c.07-.07.07-.14.14-.2a92.05 92.05 0 0 1 3.69-4.19c4.32-4.18 9.78-8.58 9.78-8.58l6.88-4.04 4.4-1.84h.06l1.14 5.17.78 5.25 1.06 7.02v.07c.57 5.31.92 10.56 1.13 14.32.07.92.07 1.77.14 2.48l.08.85v.35l.07 1.2c.12.28.2.56.21.86Z"/>
  </g>
</svg>
