<svg xmlns="http://www.w3.org/2000/svg" xml:space="preserve" fill-rule="evenodd" stroke-linejoin="round" stroke-miterlimit="2" clip-rule="evenodd" viewBox="0 0 744 744">
  <path fill="#021b44" fill-rule="nonzero" d="m672.65 308.9 7.01 4.2 16.86 10.1 20.39 12.24L734.53 346l5.81 3.5c.91.54 1.81 1.16 2.76 1.65l.12.07c.5.3.94-.48.45-.78l-7.02-4.2-16.85-10.12-20.39-12.22-17.63-10.58-5.81-3.49c-.92-.54-1.82-1.16-2.76-1.65a2.89 2.89 0 0 1-.12-.07c-.5-.3-.94.47-.45.77Z"/>
  <path fill="#021b44" fill-rule="nonzero" d="M672.87 308.95c.58 0 .58-.9 0-.9-.57 0-.57.9 0 .9ZM241.35 50.22c3.36 2 6.71 4.02 10.07 6.04l27.41 16.44L319.36 97l49.44 29.66 53.99 32.38c18 10.78 36.32 21.78 54.49 32.68l50.95 30.56a84282.04 84282.04 0 0 0 73.98 44.37c4.87 2.92 9.71 5.88 14.6 8.75l.62.38c.5.3.94-.48.46-.78l-10.08-6.04-27.4-16.44-40.53-24.3-49.45-29.66-53.98-32.38-54.49-32.68-50.95-30.56-43.05-25.82-30.94-18.55c-4.86-2.92-9.7-5.88-14.6-8.75l-.62-.38c-.5-.3-.94.48-.45.77ZM350.01.95l9.62 5.77 26.17 15.7 38.7 23.2a218118.42 218118.42 0 0 1 98.74 59.23l52.02 31.2 48.65 29.18 41.1 24.65 29.54 17.72c4.65 2.79 9.27 5.62 13.94 8.36l.6.36c.5.3.94-.48.45-.78l-9.61-5.77-26.17-15.69-38.7-23.2a196317.91 196317.91 0 0 1-98.75-59.24l-52.02-31.2-48.65-29.18-41.1-24.65L365 8.89c-4.64-2.79-9.27-5.61-13.94-8.36l-.6-.36c-.49-.3-.93.48-.45.78ZM678 185.76l7.7 4.62 12.27 7.36 2.83 1.7c.5.29.94-.48.46-.78l-7.7-4.62-12.27-7.35-2.83-1.7c-.5-.3-.94.47-.45.77Zm-81-48.59 5.87 3.54c4.7 2.8 9.37 5.62 14.06 8.43 5.7 3.4 11.38 6.82 17.07 10.23l14.7 8.82 4.88 2.92c.76.45 1.5.97 2.29 1.37l.1.07c.5.3.94-.48.46-.78l-5.88-3.53-14.06-8.43-17.07-10.23-14.7-8.82-4.88-2.93c-.75-.45-1.5-.97-2.29-1.36a.94.94 0 0 1-.1-.07c-.5-.3-.94.48-.46.77Zm-70.9-42.51 5.96 3.57 14.23 8.53 17.19 10.31 14.86 8.92 4.91 2.94c.77.46 1.52 1 2.32 1.4.04.01.07.04.1.06.5.3.94-.48.45-.78l-5.95-3.57-14.22-8.53-17.2-10.31-14.86-8.92-4.91-2.94c-.76-.46-1.52-1-2.32-1.4l-.1-.06c-.5-.3-.94.48-.45.78Z"/>
  <path fill="#021b44" fill-rule="nonzero" d="M526.34 94.72c.57 0 .57-.9 0-.9-.58 0-.58.9 0 .9ZM369.68.84l3.95 2.37 10.67 6.4 15.85 9.5 19.24 11.54 21.19 12.71 21.26 12.76 19.93 11.96 16.75 10.04 12.11 7.26c1.9 1.14 3.79 2.3 5.7 3.42l.24.15c.5.3.94-.48.45-.78l-3.94-2.36-10.67-6.4-15.85-9.51-19.24-11.54-21.19-12.7-21.26-12.76-19.93-11.96-16.75-10.04-12.11-7.27c-1.9-1.13-3.79-2.3-5.7-3.41l-.24-.15c-.5-.3-.94.47-.46.77Zm302.86 321.04 7.05 4.29 16.91 10.3 20.4 12.43 17.62 10.74 5.86 3.57c.9.56 1.8 1.18 2.74 1.67l.11.07c.5.3.95-.47.46-.77l-7.05-4.3-16.92-10.3-20.39-12.43-17.62-10.74-5.86-3.57c-.9-.55-1.8-1.18-2.74-1.67l-.12-.07c-.5-.3-.94.47-.45.78ZM241.35 59.15l10.05 6.11 27.13 16.52 40.36 24.56 48.94 29.8 53.91 32.82c18.04 10.97 36.08 21.95 54.1 32.94l50.75 30.89 42.63 25.95 30.84 18.77c4.83 2.95 9.65 5.94 14.52 8.85l.63.38c.5.3.94-.47.45-.78l-10.04-6.11-27.14-16.52-40.35-24.56-48.94-29.8-53.92-32.82c-18.03-10.98-36.07-21.95-54.1-32.94l-50.75-30.9-42.63-25.95c-10.28-6.25-20.56-12.5-30.83-18.77-4.84-2.94-9.66-5.93-14.53-8.84l-.63-.38c-.5-.3-.94.47-.45.77ZM629.22 308.3l-10.36-6.23-28.17-16.96-41.66-25.08-50.85-30.6-55.7-33.53-56.22-33.84-52.43-31.56-44.43-26.74-31.84-19.17c-5.02-3.02-10.03-6.09-15.07-9.07l-.64-.39c-.5-.3-.95.48-.46.78l10.36 6.22 28.17 16.96 41.66 25.08 50.84 30.6 55.7 33.53 56.23 33.84 52.43 31.56 44.43 26.74c10.61 6.4 21.23 12.78 31.84 19.17 5.02 3.02 10.02 6.09 15.07 9.07l.64.39c.5.3.94-.48.46-.77Zm115.07 69.25-7.1-4.28c-5.7-3.42-11.39-6.84-17.07-10.27l-20.56-12.37-17.78-10.7-5.87-3.54c-.93-.55-1.83-1.18-2.8-1.68l-.11-.07c-.5-.3-.94.48-.45.77l7.1 4.29a51254.29 51254.29 0 0 1 37.62 22.64l17.78 10.7 5.88 3.54c.92.55 1.83 1.18 2.79 1.68l.12.07c.49.3.94-.48.45-.78Zm-480.21-88.18-7.5-4.52-11.9-7.16-2.75-1.66c-.5-.3-.94.48-.45.78a20763.66 20763.66 0 0 1 19.4 11.68l2.75 1.65c.5.3.94-.47.45-.77Zm211.69 127.42-4.52-2.72-12.3-7.4-18.2-10.96-22.2-13.37-24.32-14.64-24.55-14.78-22.9-13.78-19.4-11.68-13.9-8.37c-2.2-1.32-4.38-2.67-6.59-3.96l-.28-.17c-.5-.3-.94.48-.45.78l4.52 2.72 12.3 7.4 18.2 10.96c7.4 4.45 14.8 8.9 22.2 13.37l24.32 14.64 24.55 14.77 22.9 13.79 19.4 11.68 13.9 8.37c2.2 1.32 4.38 2.67 6.59 3.96l.28.16c.49.3.94-.47.45-.77ZM698.42 550.8l-18.17-10.94-2.58-1.55c-.5-.3-.94.48-.45.77l18.17 10.95 2.58 1.55c.5.3.94-.48.45-.77ZM145.74 231.13c.58 0 .58-.89 0-.89s-.58.9 0 .9Zm118.34 70.27-7.51-4.52-12-7.23-2.78-1.66c-.5-.3-.94.47-.45.77l7.52 4.53c4 2.4 8 4.8 12 7.22l2.77 1.67c.5.3.94-.48.45-.78Zm211.63 127.4-4.68-2.82-12.73-7.67-18.84-11.34-22.98-13.83-25.18-15.16-25.42-15.3-23.7-14.27-20.08-12.1-14.4-8.66c-2.27-1.37-4.53-2.76-6.82-4.1l-.29-.17c-.5-.3-.94.47-.45.77l4.68 2.82 12.74 7.66c6.28 3.79 12.55 7.57 18.83 11.34l22.98 13.84 25.18 15.16 25.42 15.3 43.79 26.36 14.4 8.66c2.27 1.37 4.52 2.76 6.81 4.1l.3.18c.49.3.93-.48.45-.78Zm218.54 131.53c-4.84-2.9-9.68-5.82-14.52-8.74l-2.06-1.24c-.5-.3-.94.47-.45.77l14.52 8.74 2.06 1.25c.5.3.94-.48.45-.78ZM132.63 276.38c.58 0 .58-.89 0-.89-.57 0-.57.9 0 .9Zm442.53 265.41-13-7.83-1.88-1.13c-.5-.3-.94.48-.45.78 4.34 2.6 8.67 5.22 13.01 7.83l1.87 1.12c.5.3.94-.47.45-.77Zm30.46 18.33c-4.34-2.6-8.68-5.22-13.01-7.83l-1.88-1.13c-.49-.3-.94.48-.45.78 4.34 2.6 8.68 5.22 13.01 7.83l1.87 1.12c.5.3.94-.47.46-.77ZM86.17 336.52c.58 0 .58-.9 0-.9s-.58.9 0 .9Zm439.07 263.32c-4.34-2.61-8.67-5.23-13.01-7.83l-1.87-1.13c-.5-.3-.94.48-.45.78l13 7.82 1.88 1.13c.5.3.94-.48.45-.77ZM74.85 304.37c.58 0 .58-.9 0-.9-.57 0-.57.9 0 .9Zm190.42 113.65-7.95-4.8c-4.23-2.53-8.45-5.08-12.68-7.62l-2.93-1.77c-.49-.3-.94.48-.45.78l7.95 4.79 12.69 7.63 2.92 1.76c.5.3.94-.48.45-.77Z"/>
  <path fill="#021b44" fill-rule="nonzero" d="m271.5 421.76-5.45-3.27-.78-.47c-.5-.3-.94.47-.45.77 1.81 1.09 3.62 2.19 5.44 3.27l.78.48c.5.3.94-.48.45-.78Zm75.3 45.34-6.25-3.77-14.93-8.98-18.05-10.87-20.77-12.5c-.8-.5-1.6-1.04-2.44-1.47l-.11-.07c-.5-.3-.95.48-.46.78l6.25 3.76 14.93 8.98 18.05 10.87 20.77 12.5c.8.49 1.6 1.04 2.44 1.47l.12.07c.49.3.94-.48.45-.78Zm285.29 171.72-7.15-4.3-17.16-10.33-20.76-12.5-17.94-10.8-5.88-3.54c-.94-.56-1.86-1.2-2.83-1.7l-.12-.06c-.5-.3-.94.47-.45.77l7.15 4.3c5.72 3.44 11.44 6.9 17.16 10.33l20.76 12.5 17.94 10.8 5.88 3.54c.94.56 1.85 1.2 2.83 1.7l.11.06c.5.3.95-.47.46-.77ZM229.11 524.44l-2.84-1.72-7.74-4.65-25.34-15.26-15.22-9.17-15.43-9.28-14.38-8.66-12.1-7.29-8.75-5.26c-1.38-.83-2.74-1.69-4.13-2.49l-.18-.1c-.5-.3-.94.47-.45.77l2.84 1.71 7.74 4.66 11.39 6.86 13.95 8.4 15.22 9.16 15.43 9.29 14.38 8.66 12.1 7.28 8.75 5.27c1.38.82 2.73 1.69 4.13 2.49l.18.1c.5.3.94-.47.45-.77Zm304.75 183.44c-.82-.5-1.63-.99-2.45-1.47l-6.62-3.99-9.83-5.91-12-7.23-13.09-7.87-13.27-8-12.37-7.44c-3.47-2.1-6.94-4.18-10.41-6.26l-7.53-4.54c-1.18-.7-2.34-1.49-3.56-2.14l-.15-.09c-.5-.3-.94.48-.45.78l2.44 1.47 6.62 3.98 9.83 5.92 12 7.22 13.09 7.88 13.27 7.99 12.37 7.44 10.42 6.27 7.52 4.53c1.18.71 2.35 1.5 3.56 2.14l.16.1c.5.29.94-.49.45-.78ZM127.54 573.93l-2.73-1.64-7.4-4.45-10.92-6.57-13.32-8.02-14.65-8.83c-4.91-2.95-9.83-5.9-14.73-8.86l-13.74-8.27-11.62-6.99-8.38-5.05c-1.32-.79-2.62-1.62-3.96-2.38l-.17-.1c-.5-.3-.94.48-.45.77l2.73 1.65 18.32 11.02 13.32 8.02 14.65 8.82 14.73 8.86 13.74 8.27 11.61 7 8.39 5.04c1.32.8 2.62 1.62 3.96 2.38.06.04.1.08.17.1.5.3.94-.47.45-.77Zm281.15 169.23-6.74-4.06c-5.39-3.24-10.79-6.48-16.18-9.74-6.5-3.9-13-7.82-19.5-11.74l-16.92-10.18-5.55-3.34c-.88-.53-1.75-1.14-2.66-1.6l-.11-.08c-.5-.3-.94.48-.46.78l6.74 4.05 16.18 9.74 19.5 11.74 16.92 10.18 5.56 3.35c.87.53 1.74 1.13 2.65 1.6l.12.07c.5.3.94-.47.45-.77Zm107.67-654.6v11.9c0 .58.9.58.9 0v-11.9c0-.58-.9-.58-.9 0Z"/>
  <path fill="#021b44" fill-rule="nonzero" d="M516.36 29.47v56.68c0 .75-.07 1.54 0 2.3v.1c0 .58.9.58.9 0V31.89c0-.76.06-1.55 0-2.31v-.1c0-.58-.9-.58-.9 0ZM424.03 3.76v29.43c0 .57.9.57.9 0V3.76c0-.58-.9-.58-.9 0ZM585.46 130v12.14c0 .58.89.58.89 0V130c0-.58-.9-.58-.9 0Z"/>
  <path fill="#021b44" fill-rule="nonzero" d="M585.46 67.92v59.56c0 .8-.07 1.62 0 2.41v.11c0 .58.89.58.89 0V70.45c0-.8.07-1.63 0-2.42v-.1c0-.59-.9-.59-.9 0Zm-59.57-34.25v60.6c0 .58.9.58.9 0V36.18c0-.79.06-1.61 0-2.4v-.11c0-.58-.9-.58-.9 0Zm70.88 42.55v57.63c0 .78-.06 1.6 0 2.37v.1c0 .58.9.58.9 0V78.7c0-.78.06-1.59 0-2.37v-.1c0-.58-.9-.58-.9 0Zm70.3 70.16v43.98c0 .58.89.58.89 0v-43.98c0-.57-.9-.57-.9 0Zm-11.32-13.16v38.83c0 .57.89.57.89 0v-38.83c0-.58-.9-.58-.9 0Zm22.04 27.89v23.9c0 .57.9.57.9 0v-23.9c0-.57-.9-.57-.9 0Zm49.58 101.19-5.48 2.5c-4.36 2.01-8.73 4-13.09 6l-15.8 7.26-13.68 6.26-4.53 2.08c-.7.32-1.48.59-2.13.98l-.1.05c-.53.24-.08 1 .45.78l5.48-2.52 13.08-6 15.81-7.24 13.68-6.26 4.53-2.08c.7-.32 1.48-.58 2.14-.98l.1-.05c.52-.24.07-1-.46-.77Zm-14.77 69.85c-3.65 1.66-7.28 3.33-10.92 5l-1.6.72c-.13.07-.21.24-.21.39v13.59c0 .57.9.57.9 0v-13.59l-.23.39 10.91-5 1.6-.73c.52-.24.07-1-.46-.77Zm20.84 12.5-10.91 5-1.6.73c-.13.06-.21.23-.21.38v13.59c0 .58.9.58.9 0v-13.59l-.23.39 10.91-5 1.6-.73c.52-.24.07-1-.46-.77Zm-73.56-158.7-3.14 1.5-8.55 4.08a23654.2 23654.2 0 0 0-44.9 21.42l-17.05 8.12-15.84 7.56-13.44 6.41-9.66 4.6c-1.51.74-3.08 1.41-4.57 2.19l-.2.1c-.14.06-.22.23-.22.38v14.72c0 .58.9.58.9 0V242.3l-.23.39 3.14-1.5 8.55-4.08 12.65-6.03 15.36-7.33 16.9-8.06 17.04-8.13 15.84-7.55 13.44-6.42 9.66-4.6c1.52-.73 3.08-1.41 4.58-2.18l.2-.1c.51-.25.06-1.02-.46-.77ZM540.1 114.19c-1.02.5-2.06.98-3.09 1.48l-8.44 4.04-12.47 5.97-15.22 7.28-16.67 7.99-16.83 8.05-38.5 18.44c-1.52.72-3.05 1.4-4.54 2.16l-.2.1c-.13.07-.21.24-.21.39v15.32c0 .58.89.58.89 0V170.1l-.22.38 3.1-1.48 8.43-4.04 12.48-5.97 15.21-7.28 16.68-7.99 16.83-8.05 15.7-7.52 13.26-6.35 9.55-4.57c1.5-.72 3.04-1.4 4.52-2.16l.2-.1c.52-.25.07-1.02-.45-.77ZM423.16 44.05l-2.83 1.36-7.7 3.7c-3.8 1.8-7.58 3.61-11.35 5.42l-13.9 6.66-15.22 7.29-15.37 7.35-14.28 6.84-12.11 5.8-8.71 4.17c-1.37.66-2.78 1.27-4.12 1.98l-.18.08c-.51.25-.06 1.02.46.78l2.83-1.36L339.73 85l13.9-6.66 30.6-14.65 14.27-6.83 12.11-5.8c2.9-1.4 5.81-2.78 8.71-4.17 1.37-.66 2.78-1.27 4.12-1.98l.18-.08c.51-.25.06-1.02-.46-.78Zm149.98 204.39-10.45 4.78-1.5.7c-.14.06-.22.23-.22.38v13.59c0 .58.9.58.9 0V254.3l-.23.39 10.46-4.79 1.5-.69c.5-.23.07-1-.46-.77ZM535 225.56l-11.23 5.15c-.14.06-.22.23-.22.38v13.59c0 .58.9.58.9 0v-13.59l-.23.4 11.23-5.15c.52-.24.07-1.01-.45-.78Zm-18.69-11.21-11 5.05c-.15.06-.23.23-.23.38v13.59c0 .58.9.58.9 0v-13.59l-.23.39 11.01-5.04c.53-.24.07-1.01-.45-.78ZM495.72 202l-10.67 4.9c-.14.06-.22.23-.22.38v13.58c0 .58.9.58.9 0v-13.58l-.23.39 10.67-4.9c.52-.23.07-1-.45-.77ZM477 190.71c-3.46 1.63-6.94 3.25-10.42 4.87a.47.47 0 0 0-.22.39v14.88c0 .57.9.57.9 0v-14.88l-.22.38 10.42-4.87c.52-.24.07-1-.45-.77Zm-114.27-68.47-9.33 4.28c-.13.06-.22.24-.22.38v16.03c0 .58.9.58.9 0V126.9l-.22.4 9.32-4.28c.53-.24.08-1.01-.45-.78Zm-91.8-55.06-8.66 3.96c-.14.07-.22.24-.22.39v16.53c0 .58.89.58.89 0V71.53l-.22.39 8.66-3.97c.52-.24.07-1-.45-.77Zm323.38 193.96-10.6 4.85c-.52.24-1.02.48-1.54.7-.13.07-.22.25-.22.4v13.58c0 .58.9.58.9 0v-13.59l-.22.4 10.6-4.87 1.54-.7c.5-.23.07-1-.46-.77Zm19.11 11.73-10.65 4.85-1.53.7c-.14.07-.22.24-.22.4v13.17c0 .58.89.58.89 0V278.8l-.22.39 10.64-4.85 1.54-.7c.52-.24.07-1.01-.45-.78Zm8.45 27.23v4.38c0 .58.89.58.89 0v-4.37c0-.58-.9-.58-.9 0ZM122.54 460.56l-2.64 1.27-7.21 3.45-10.66 5.1-13 6.22-14.24 6.82-14.38 6.87-13.34 6.4c-3.78 1.8-7.56 3.6-11.33 5.42l-8.16 3.9c-1.29.6-2.6 1.18-3.87 1.85l-.16.07c-.52.25-.07 1.02.45.78l2.65-1.27 7.2-3.45 23.66-11.32 14.25-6.82 14.37-6.87 13.34-6.4c3.78-1.8 7.56-3.6 11.34-5.42l8.15-3.9c1.29-.6 2.61-1.18 3.87-1.85l.17-.08c.51-.25.06-1.01-.46-.77Z"/>
  <path fill="#021b44" fill-rule="nonzero" d="m241.35 403.7-3.17 1.52-21.47 10.28-15.54 7.43-34.31 16.43-16.14 7.72-13.58 6.5-9.77 4.68c-1.53.73-3.1 1.43-4.62 2.21l-.2.1c-.51.25-.06 1.01.46.77l3.17-1.52 8.64-4.13 12.83-6.14 15.54-7.44 34.31-16.43 16.14-7.72 13.58-6.5 9.76-4.67c1.54-.74 3.11-1.43 4.63-2.22l.2-.1c.51-.24.06-1.01-.46-.77Z"/>
  <path fill="#021b44" fill-rule="nonzero" d="M241.13 288.37v111c0 1.5-.03 3.01 0 4.52v.2c0 .57.9.57.9 0v-111c0-1.5.03-3.01 0-4.52v-.2c0-.57-.9-.57-.9 0ZM124.7 573.2c.58 0 .58-.9 0-.9-.57 0-.57.9 0 .9Zm2.4.73-5.2 2.53-12.48 6.08-15.1 7.36-13.08 6.37-4.33 2.1c-.66.33-1.42.6-2.05 1l-.08.05c-.52.25-.07 1.02.45.77l5.2-2.53 12.47-6.08 15.1-7.35 13.08-6.38 4.33-2.1c.66-.33 1.42-.6 2.05-1l.09-.04c.51-.25.06-1.03-.46-.78Z"/>
  <path fill="#021b44" fill-rule="nonzero" d="m228.66 524.44-2.7 1.31-7.42 3.61-10.91 5.32-13.37 6.51-14.58 7.1-14.72 7.18-13.79 6.71-11.6 5.65-8.34 4.07c-1.32.64-2.68 1.24-3.97 1.94l-.17.08c-.52.25-.07 1.02.45.77l2.7-1.31 7.41-3.61 10.92-5.32 13.37-6.51 14.58-7.1 14.72-7.18 13.79-6.71 11.6-5.65 8.34-4.07c1.32-.64 2.67-1.24 3.97-1.94l.17-.08c.52-.25.07-1.02-.45-.77Z"/>
  <path fill="#021b44" fill-rule="nonzero" d="m463.9 409.8-6.29 3.07-17.12 8.35-25.33 12.34-30.9 15.06-33.85 16.49-34.16 16.65-31.85 15.52-26.83 13.07-19.35 9.43c-3.05 1.48-6.13 2.92-9.15 4.46l-.4.2c-.52.25-.07 1.02.45.77l6.3-3.06 17.12-8.35 25.33-12.34 30.9-15.06 33.85-16.5 34.16-16.64 31.84-15.52 26.83-13.07 19.36-9.44c3.05-1.48 6.13-2.92 9.15-4.45l.4-.2c.51-.25.06-1.03-.46-.77ZM340.57 702.43l-6.26 3.05-15.1 7.36-18.2 8.87-15.8 7.7-5.18 2.52c-.8.4-1.7.73-2.46 1.2l-.1.05c-.53.25-.07 1.02.44.77l6.26-3.04 15.1-7.36 18.2-8.87 15.8-7.7 5.18-2.53c.8-.39 1.7-.72 2.46-1.2l.11-.05c.52-.25.07-1.02-.45-.77Z"/>
  <path fill="#021b44" fill-rule="nonzero" d="m645.23 553.96-8.15 3.97-22.18 10.8-32.8 16-40.03 19.5-43.83 21.36L454 647.15l-41.25 20.1-34.74 16.93-25.07 12.22c-3.95 1.92-7.93 3.8-11.85 5.77-.17.1-.34.17-.52.25-.52.25-.06 1.03.46.78l8.14-3.97 22.18-10.81 32.8-15.98 40.03-19.51 43.84-21.36L532.26 610l41.24-20.1 34.75-16.93 25.06-12.22c3.95-1.92 7.93-3.8 11.85-5.77.17-.1.35-.17.52-.25.52-.25.07-1.03-.45-.78Zm20.98-10.22-3.24 1.58-.47.23c-.21.1-.27.42-.16.61.13.22.4.27.61.16l3.25-1.58.47-.23c.21-.1.27-.41.16-.6-.14-.23-.4-.28-.62-.17Z"/>
  <path fill="#021b44" fill-rule="nonzero" d="m677.15 538.4-9.57 4.67-1.37.66c-.52.25-.07 1.03.45.78l9.57-4.66 1.38-.67c.52-.25.06-1.02-.46-.77ZM294.76 737.88l9.39-4.57 25.55-12.45 37.78-18.41 46.1-22.47 50.49-24.6 50.96-24.85 47.5-23.15 40.03-19.5 28.87-14.07c4.55-2.22 9.13-4.38 13.65-6.65l.6-.3c.51-.25.06-1.02-.46-.77l-9.39 4.57-25.55 12.45-37.78 18.42L526.4 624l-50.49 24.6-50.96 24.84-47.5 23.16-40.03 19.5c-9.62 4.7-19.24 9.38-28.87 14.07-4.55 2.21-9.13 4.37-13.65 6.65l-.6.29c-.51.25-.06 1.02.46.77ZM149.65 587.5l-5.98 2.92-14.34 6.99-17.43 8.49-14.95 7.28-4.96 2.43c-.77.37-1.63.7-2.36 1.15l-.1.04c-.52.25-.06 1.03.45.78l5.98-2.91 14.34-7 17.42-8.48 14.96-7.3 4.96-2.41c.77-.38 1.63-.7 2.36-1.15l.1-.05c.52-.25.06-1.02-.45-.77Z"/>
  <path fill="#021b44" fill-rule="nonzero" d="m250.2 538.5-2.68 1.32-7.32 3.56-10.82 5.27-13.2 6.43-14.45 7.04-14.6 7.12c-4.54 2.2-9.07 4.42-13.6 6.63l-11.51 5.61-8.28 4.03c-1.3.64-2.64 1.23-3.92 1.91l-.17.08c-.52.25-.07 1.03.45.78l2.69-1.31 7.31-3.57c3.6-1.75 7.21-3.5 10.82-5.27l13.2-6.43 14.46-7.04 14.59-7.11 13.61-6.64 11.5-5.6 8.28-4.04c1.3-.63 2.64-1.22 3.92-1.9l.18-.09c.51-.25.06-1.02-.46-.77Z"/>
  <path fill="#021b44" fill-rule="nonzero" d="m475.22 428.86-6.02 2.93-16.38 7.99-24.23 11.8-29.56 14.4-32.37 15.78-32.68 15.92-30.46 14.85-25.67 12.5-18.5 9.02c-2.92 1.42-5.87 2.79-8.76 4.26-.12.07-.26.13-.38.18-.52.25-.07 1.03.45.78 2-.98 4.02-1.95 6.02-2.94l16.39-7.98 24.22-11.8c9.85-4.8 19.7-9.61 29.56-14.4l32.37-15.79 32.68-15.92 30.47-14.84 25.66-12.5 18.51-9.02c2.91-1.42 5.86-2.8 8.75-4.26l.38-.19c.52-.25.07-1.02-.45-.77Z"/>
  <path fill="#021b44" fill-rule="nonzero" d="M475 417.34v11.9c0 .58.9.58.9 0v-11.9c0-.58-.9-.58-.9 0Z"/>
  <path fill="#021b44" fill-rule="nonzero" d="m83.8 610.27 10.5-5.16 28.6-14.05 42.13-20.7c17.13-8.43 34.26-16.84 51.4-25.26l56.27-27.65 56.98-28 53.13-26.1 44.74-21.99 32.19-15.81c5.09-2.5 10.2-4.94 15.27-7.5l.66-.33c.51-.26.06-1.03-.46-.78l-10.5 5.17-28.6 14.05-42.13 20.7-51.4 25.25-56.27 27.66-56.99 28-53.12 26.1-44.75 21.99-32.18 15.8c-5.09 2.51-10.21 4.95-15.27 7.51l-.66.33c-.52.25-.06 1.02.45.77Zm549.67-49.81 9.26 6.1 1.33.88c.48.31.93-.46.45-.78l-9.25-6.1-1.33-.88c-.48-.31-.93.46-.46.78Zm-22.63 11.31 9.04 5.87 1.28.83c.48.32.93-.46.45-.77l-9.03-5.87-1.29-.83c-.48-.32-.93.45-.45.77Zm-26.81 13.1 8.52 5.86 1.22.84c.47.33.92-.44.45-.77l-8.51-5.87-1.22-.84c-.48-.32-.93.45-.46.78Zm-79.82 38.7c3.02 1.96 6.03 3.9 9.04 5.87l1.29.83c.48.32.92-.46.45-.77l-9.04-5.87-1.29-.84c-.48-.31-.92.46-.45.78Zm-87.56 42.86 9.03 5.87 1.3.84c.47.31.92-.46.44-.78-3.01-1.96-6.03-3.9-9.03-5.87l-1.29-.83c-.48-.32-.93.46-.45.77Zm-25.02 11.91 9.04 5.87 1.28.83c.48.32.93-.45.46-.77l-9.04-5.87-1.29-.83c-.48-.32-.93.45-.45.77Zm-24.43 11.91 9.04 5.87 1.29.83c.48.32.93-.46.45-.77l-9.04-5.87-1.28-.84c-.48-.31-.93.46-.45.78Zm-53.6 26.19 9.03 5.87 1.29.84c.48.31.93-.46.45-.78-3.01-1.95-6.03-3.9-9.04-5.87l-1.28-.83c-.49-.32-.93.46-.46.77Zm-26.22 13.1 9.04 5.87 1.29.84c.48.31.93-.46.45-.78-3.01-1.96-6.03-3.9-9.04-5.87l-1.28-.83c-.49-.32-.93.46-.46.77Zm153.09-268.56-8.04 3.97-19.15 9.47-23.23 11.48-20.07 9.92-6.6 3.26c-1.04.51-2.14.97-3.14 1.55a19 19 0 0 0-.15.08c-.51.25-.06 1.02.46.77l8.03-3.97 19.16-9.47 23.22-11.48 20.08-9.92 6.6-3.26c1.04-.5 2.14-.97 3.14-1.55a19 19 0 0 0 .14-.07c.52-.26.07-1.03-.45-.78Zm149.81 90.2-8.03 3.97-19.16 9.47-23.23 11.48-20.07 9.92-6.6 3.26c-1.04.51-2.14.97-3.14 1.55l-.14.08c-.52.25-.07 1.02.45.77l8.03-3.97 19.16-9.47 23.23-11.48 20.07-9.92 6.6-3.26c1.04-.51 2.14-.97 3.14-1.55l.14-.07c.52-.26.07-1.03-.45-.78Zm14.89 8.93-8.03 3.97-19.16 9.47-23.22 11.48-20.08 9.92-6.6 3.26c-1.04.51-2.14.97-3.14 1.55l-.14.08c-.52.25-.07 1.02.45.77l8.04-3.97 19.15-9.47 23.23-11.48 20.07-9.92 6.6-3.26c1.04-.51 2.14-.97 3.14-1.55a19 19 0 0 0 .15-.07c.51-.26.06-1.03-.46-.78Z"/>
  <path fill="#0aaaaa" fill-rule="nonzero" d="M597.22 76.22s50.6 41.68 58.97 56.99v38.83l-58.97-35.26V76.22Zm-70.88-42.55v60.6L585.9 130V67.92s-40.84-26.76-59.56-34.25Z"/>
  <path fill="#021b44" fill-rule="nonzero" d="m510.13 591.27 80.38-39.72 14.88 8.96-80.38 39.71-14.88-8.95Z"/>
  <path fill="#021b44" fill-rule="nonzero" d="m510.59 592.04 8.03-3.97 19.16-9.47L561 567.13l20.08-9.92 6.6-3.27c1.03-.5 2.16-.94 3.14-1.55l.14-.07h-.9l13.04 7.85 1.84 1.1v-1.54l-8.04 3.97-19.16 9.47-23.22 11.48-20.08 9.92-6.6 3.26c-1.03.51-2.16.95-3.14 1.55l-.14.07h.9c-4.34-2.6-8.7-5.22-13.03-7.84l-1.84-1.11c-1-.6-1.9.95-.9 1.54l9.76 5.88 4.74 2.85c.43.26.75.44 1.29.22l.29-.14 14.1-6.97 12.35-6.1 13.9-6.88 13.8-6.8 12.2-6.04 9.12-4.5c1.46-.73 2.97-1.41 4.41-2.18l.2-.1c.62-.3.54-1.21 0-1.54l-9.77-5.88-4.74-2.85c-.43-.26-.75-.44-1.28-.22l-.3.14-4.74 2.35-9.36 4.62-12.34 6.1-13.9 6.88-13.8 6.8-12.2 6.04-9.12 4.5c-1.47.73-2.97 1.41-4.42 2.18l-.2.1c-1.02.51-.12 2.05.9 1.54Zm-30.84-18.64 80.38-39.71 14.89 8.95-80.39 39.72-14.88-8.95Z"/>
  <path fill="#021b44" fill-rule="nonzero" d="m480.2 574.18 8.04-3.97 19.16-9.47 23.23-11.47 20.07-9.92 6.6-3.27c1.03-.5 2.16-.94 3.14-1.55l.14-.07h-.9l13.04 7.84 1.84 1.11v-1.54l-8.04 3.97-19.16 9.47-23.22 11.48-20.08 9.91-6.6 3.27c-1.03.51-2.16.94-3.14 1.55l-.14.07h.9c-4.34-2.61-8.7-5.22-13.03-7.84l-1.84-1.11c-1-.6-1.9.95-.9 1.54l9.76 5.88 4.74 2.85c.43.26.75.44 1.29.22l.29-.14 4.74-2.35 9.36-4.63 12.35-6.1 13.9-6.87 13.8-6.8 12.2-6.04 9.12-4.5c1.46-.73 2.97-1.41 4.41-2.19l.2-.1c.62-.3.54-1.2 0-1.53L565.7 536l-4.74-2.85c-.43-.26-.75-.44-1.28-.22l-.3.14-14.1 6.97-12.34 6.1-13.9 6.88-13.8 6.8-12.2 6.04-9.12 4.5c-1.47.73-2.98 1.41-4.42 2.18l-.2.1c-1.02.51-.12 2.05.9 1.54Zm-27.85-17.44 80.38-39.72 14.88 8.95-80.38 39.72-14.88-8.95Z"/>
  <path fill="#021b44" fill-rule="nonzero" d="m452.8 557.51 8.04-3.97 19.16-9.47 23.22-11.48 20.08-9.91 6.6-3.27c1.03-.5 2.16-.94 3.14-1.55l.14-.07h-.9l13.03 7.85 1.85 1.1v-1.54l-8.04 3.97-19.16 9.47-23.22 11.48-20.08 9.91-6.6 3.27c-1.03.51-2.16.94-3.14 1.55l-.14.07h.9c-4.34-2.61-8.7-5.22-13.03-7.84l-1.84-1.11c-1-.6-1.9.94-.9 1.54l9.76 5.88 4.74 2.85c.43.25.75.44 1.29.22l.29-.14 4.74-2.35 9.36-4.63 12.35-6.1 13.9-6.87 13.79-6.81 12.2-6.03 9.12-4.5c1.47-.73 2.98-1.41 4.42-2.19l.2-.1c.62-.3.54-1.2 0-1.53l-9.77-5.88-4.74-2.85c-.43-.26-.75-.44-1.28-.22l-.3.14-14.1 6.97-12.34 6.1-13.9 6.87-13.8 6.82c-4.07 2-8.13 4.02-12.2 6.03l-9.12 4.5c-1.47.73-2.98 1.41-4.42 2.18l-.2.1c-1.02.51-.12 2.05.9 1.54Zm-30.83-18.63 80.38-39.72 14.88 8.95-80.38 39.72-14.88-8.95Z"/>
  <path fill="#021b44" fill-rule="nonzero" d="m422.43 539.65 8.03-3.97 19.16-9.47 23.22-11.48 20.08-9.92 6.6-3.26c1.03-.51 2.16-.95 3.14-1.55l.14-.07h-.9c4.34 2.61 8.7 5.22 13.03 7.84l1.85 1.11v-1.54l-8.04 3.97-19.16 9.47-23.22 11.48-20.08 9.91-6.6 3.27c-1.03.5-2.16.94-3.14 1.55l-.14.07h.9c-4.34-2.61-8.7-5.22-13.03-7.84l-1.85-1.11c-.98-.6-1.88.94-.9 1.54l9.77 5.88 4.74 2.85c.43.25.75.44 1.29.22l.29-.14 4.74-2.35 9.36-4.63 12.35-6.1 13.9-6.87 13.8-6.81 12.2-6.03 9.12-4.5c1.46-.73 2.97-1.41 4.41-2.19l.2-.1c.62-.3.54-1.2 0-1.53l-9.77-5.88-4.74-2.85c-.43-.26-.75-.44-1.29-.22l-.29.14-14.1 6.97-12.35 6.1-13.9 6.87-13.79 6.82c-4.07 2-8.14 4.01-12.2 6.03l-9.12 4.5c-1.47.73-2.98 1.4-4.42 2.18l-.2.1c-1.03.51-.12 2.05.9 1.54Zm-29.65-19.83 80.39-39.71 14.87 8.95-80.38 39.72-14.88-8.96Z"/>
  <path fill="#021b44" fill-rule="nonzero" d="m393.24 520.6 8.03-3.97 19.16-9.47 23.23-11.48 20.07-9.92 6.6-3.26c1.03-.51 2.16-.95 3.14-1.55l.14-.07h-.9c4.35 2.6 8.7 5.22 13.04 7.84l1.84 1.1v-1.53l-8.04 3.97c-6.38 3.15-12.77 6.3-19.16 9.47l-23.22 11.47-20.08 9.92-6.6 3.26c-1.03.52-2.16.95-3.13 1.56l-.15.07h.9l-13.03-7.85-1.84-1.1c-1-.6-1.9.94-.9 1.54l9.76 5.87 4.74 2.86c.43.25.75.44 1.29.22l.3-.15 4.73-2.34 9.36-4.63 12.35-6.1 27.7-13.68 12.2-6.03 9.12-4.51c1.46-.73 2.97-1.4 4.41-2.18l.2-.1c.62-.3.54-1.2 0-1.54l-9.76-5.87-4.75-2.85c-.43-.26-.75-.45-1.28-.22l-.3.14-54.14 26.75-12.2 6.04-9.12 4.5c-1.47.73-2.97 1.4-4.42 2.18l-.2.1c-1.02.5-.12 2.04.9 1.54Zm-33.22-19.83 80.38-39.71 14.88 8.95-80.38 39.72-14.88-8.96Z"/>
  <path fill="#021b44" fill-rule="nonzero" d="m360.48 501.55 8.03-3.98 19.16-9.46 23.22-11.48 20.08-9.92 6.6-3.26c1.03-.51 2.16-.95 3.14-1.56l.14-.07h-.9l13.03 7.85 1.84 1.1v-1.53l-8.03 3.97-19.16 9.46-23.22 11.48-20.08 9.92-6.6 3.26c-1.03.52-2.16.95-3.14 1.56l-.14.07h.9l-13.03-7.85-1.85-1.1c-.98-.6-1.88.94-.9 1.54l9.77 5.87 4.74 2.85c.43.26.75.44 1.29.22l.29-.14 4.74-2.34 9.36-4.63 12.35-6.1 27.69-13.68 12.2-6.04 9.12-4.5c1.47-.73 2.98-1.4 4.42-2.18l.2-.1c.61-.3.54-1.21 0-1.54l-9.77-5.87-4.74-2.86c-.43-.25-.75-.44-1.29-.22l-.29.15-54.14 26.75-12.2 6.03c-3.04 1.5-6.09 3-9.12 4.51-1.47.73-2.98 1.4-4.42 2.18l-.2.1c-1.03.5-.12 2.04.9 1.54Zm-39.3-343.74 17.26-8.98 73.27 46.43-17.34 8.42-73.2-45.87Z"/>
  <path fill="#021b44" fill-rule="nonzero" d="m321.63 158.58 15.1-7.87 2.16-1.12h-.9l7.32 4.64a103001 103001 0 0 1 56.95 36.1l6.04 3.83c.93.59 1.85 1.32 2.84 1.8l.13.08v-1.54l-15.18 7.36-2.16 1.05h.9l-7.28-4.56-17.48-10.95-21.14-13.25-18.29-11.46c-2.95-1.85-5.86-3.84-8.88-5.57l-.13-.08c-.98-.61-1.88.94-.9 1.54l2.9 1.83 7.72 4.83 11 6.9 25.74 16.12 11.77 7.38 9 5.64 4.71 2.95c.5.31.9.39 1.48.11 1.43-.67 2.84-1.38 4.27-2.07 4.01-1.94 8.03-3.9 12.04-5.83l.8-.4c.64-.3.53-1.2 0-1.54l-2.91-1.85-7.74-4.9-11.03-7-12.8-8.12-13-8.23-11.78-7.47-13.66-8.66c-.5-.31-.92-.36-1.48-.08-1.45.73-2.89 1.5-4.33 2.25l-11.9 6.2-.79.4c-1.02.53-.12 2.07.9 1.54h-.02Zm-37.38 17.69 17.26-8.99 73.27 46.44-17.34 8.41-73.2-45.86Z"/>
  <path fill="#021b44" fill-rule="nonzero" d="m284.7 177.03 15.1-7.86 2.16-1.12h-.9l7.32 4.64 17.44 11.05 21.22 13.45 24.32 15.42c.93.6 1.86 1.32 2.85 1.8l.13.09v-1.55l-15.19 7.37-2.15 1.05h.9c-2.43-1.52-4.85-3.05-7.28-4.56l-17.48-10.95-21.15-13.26-18.28-11.45c-2.95-1.85-5.86-3.85-8.89-5.57l-.12-.08c-.98-.62-1.88.93-.9 1.54.98.6 1.94 1.22 2.9 1.82l7.72 4.84 11 6.9 12.77 8 12.97 8.12 11.77 7.38 9 5.63 4.7 2.96c.5.3.9.38 1.49.11 1.43-.68 2.84-1.38 4.27-2.07l12.04-5.84.8-.39c.64-.3.53-1.2 0-1.54l-2.91-1.85-7.74-4.9-11.03-7-12.81-8.12-13-8.23-11.77-7.48-13.66-8.65c-.5-.32-.93-.37-1.49-.09l-4.32 2.25-11.9 6.2-.79.4c-1.02.54-.12 2.08.9 1.55h-.02Zm-37.39 15.91 17.27-8.99 73.27 46.44-17.34 8.41-73.2-45.86Z"/>
  <path fill="#021b44" fill-rule="nonzero" d="M247.76 193.7c5.04-2.61 10.07-5.23 15.11-7.86l2.16-1.12h-.9l7.32 4.64 17.44 11.05 21.21 13.45 24.33 15.42c.93.6 1.86 1.32 2.85 1.8l.12.08v-1.54L322.22 237l-2.16 1.05h.9c-2.42-1.52-4.85-3.05-7.28-4.56l-17.47-10.95-21.15-13.26-18.28-11.45c-2.96-1.85-5.86-3.85-8.89-5.57l-.12-.08c-.98-.62-1.88.93-.9 1.54l2.9 1.82 18.72 11.73 12.77 8 12.96 8.13 25.49 15.97c.5.3.9.38 1.47.11 1.43-.68 2.85-1.38 4.28-2.07l12.03-5.84.81-.39c.63-.3.53-1.2 0-1.54l-2.92-1.85-7.73-4.9-11.04-7-12.8-8.12-13-8.23-11.78-7.48-13.66-8.65c-.49-.32-.92-.37-1.48-.09-1.45.74-2.88 1.5-4.32 2.26l-11.9 6.19-.8.4c-1.01.54-.11 2.08.9 1.55Zm-5.86 18.07 21.96 13.5v21.03l-22.28-14.13V211.6l.31.17Z"/>
  <path fill="#021b44" fill-rule="nonzero" d="m241.67 212.15 7.43 4.57 11.78 7.24 2.75 1.7-.22-.4v21.04l.67-.39-7.5-4.75-12.02-7.62-2.76-1.76.22.4v-20.59l-.67.4.32.16c.5.27.96-.5.45-.78l-.32-.16c-.3-.16-.67.03-.67.38v20c0 .22-.07.59.06.8.1.18.39.3.55.41l14.22 9.01c2.55 1.62 5.11 3.25 7.67 4.86.3.19.67-.05.67-.38v-20.16c0-.61.1-1.06-.46-1.4-1-.63-2-1.24-3-1.85l-10.99-6.75-7.73-4.75c-.49-.3-.94.47-.45.77Z"/>
  <path fill="#81cff5" fill-rule="nonzero" d="m287.61 728.73 26.21-12.67 10.32 6.7-26.2 13.1-10.47-7.06.14-.07Z"/>
  <path fill="#81cff5" fill-rule="nonzero" d="m288.06 729.5 8.83-4.26 14.14-6.84 3.23-1.56h-.9l10.33 6.7V722l-8.86 4.42-14.12 7.06-3.23 1.62h.9c-3.5-2.35-6.99-4.7-10.47-7.06v1.54l.14-.07c1.04-.5.13-2.04-.9-1.54l-.14.07c-.64.32-.51 1.2 0 1.54l10.47 7.06c.27.18.62.14.9 0l8.85-4.42 14.12-7.06 3.23-1.62c.64-.31.53-1.2 0-1.54l-7.6-4.94c-.88-.57-1.77-1.3-2.72-1.77-.63-.3-1.41.25-1.99.53l-18.92 9.15-6.2 3c-1.04.5-.13 2.04.9 1.54Zm53.76-26.96 26.2-12.68 10.33 6.7-26.2 13.1-10.48-7.05.15-.07Z"/>
  <path fill="#81cff5" fill-rule="nonzero" d="m342.26 703.31 8.83-4.27 14.15-6.84 3.23-1.56h-.9l10.32 6.7v-1.54l-8.86 4.43-14.11 7.05-3.24 1.62h.9l-10.46-7.05v1.54l.14-.07c1.04-.5.13-2.05-.9-1.55l-.14.08c-.65.31-.52 1.2 0 1.54l10.46 7.05c.28.19.63.14.9 0l8.86-4.42 14.12-7.06 3.23-1.62c.63-.31.53-1.2 0-1.54l-7.61-4.94c-.88-.57-1.76-1.3-2.71-1.76-.63-.3-1.41.24-2 .52l-18.9 9.15-6.22 3c-1.03.5-.13 2.05.9 1.55h.02Zm47.81-24.59 26.2-12.67 10.33 6.7-26.2 13.1-10.48-7.06.15-.07Z"/>
  <path fill="#81cff5" fill-rule="nonzero" d="m390.51 679.5 8.83-4.27 14.15-6.84 3.23-1.56h-.9l10.32 6.7v-1.54l-8.86 4.42-14.11 7.06-3.24 1.62h.9l-10.46-7.06v1.54l.14-.07c1.03-.5.13-2.04-.9-1.54l-.14.07c-.65.32-.52 1.2 0 1.54l10.46 7.06c.28.18.63.13.9 0l8.86-4.43 14.12-7.05 3.23-1.62c.63-.32.53-1.2 0-1.54l-7.61-4.94c-.88-.58-1.76-1.3-2.71-1.77-.63-.3-1.41.25-2 .53l-18.9 9.15-6.22 3c-1.03.5-.13 2.04.9 1.54h.02Zm52.57-26.38 26.21-12.67 10.33 6.7-26.21 13.1-10.47-7.06.14-.07Z"/>
  <path fill="#81cff5" fill-rule="nonzero" d="m443.53 653.9 8.83-4.27 14.15-6.85 3.22-1.55h-.9l10.33 6.7v-1.54l-8.86 4.42-14.12 7.06-3.23 1.61h.9l-10.47-7.05v1.54l.14-.07c1.04-.5.13-2.04-.9-1.54l-.14.07c-.64.32-.51 1.2 0 1.54l10.47 7.06c.27.18.62.13.9 0l8.85-4.43 14.12-7.05 3.24-1.62c.63-.32.52-1.2 0-1.54l-7.62-4.94c-.87-.58-1.76-1.3-2.7-1.77-.64-.3-1.42.25-2 .53l-18.91 9.15-6.21 3c-1.04.5-.13 2.04.9 1.54h.01Zm59.12-29.95 26.21-12.68 10.32 6.7-26.2 13.1-10.47-7.05.14-.07Z"/>
  <path fill="#81cff5" fill-rule="nonzero" d="m503.1 624.72 8.83-4.27 14.14-6.84 3.23-1.56h-.9l10.33 6.7v-1.54l-8.86 4.43-14.12 7.05-3.23 1.62h.9l-10.47-7.05v1.54l.14-.07c1.04-.5.13-2.04-.9-1.54l-.14.07c-.64.31-.51 1.2 0 1.54l10.47 7.06c.27.18.62.13.9 0l8.85-4.43 14.12-7.05 3.23-1.62c.64-.32.53-1.2 0-1.55l-7.6-4.94c-.88-.57-1.77-1.3-2.72-1.76-.63-.3-1.41.25-1.99.52l-18.92 9.16-6.2 3c-1.04.5-.13 2.04.9 1.54Zm55.54-28.16 26.21-12.67 10.33 6.7-26.21 13.1-10.47-7.06.14-.07Z"/>
  <path fill="#81cff5" fill-rule="nonzero" d="M559.1 597.34c2.93-1.43 5.88-2.85 8.82-4.27l14.15-6.85 3.23-1.55h-.9l10.32 6.7v-1.54l-8.86 4.42-14.12 7.06-3.23 1.61h.9l-10.47-7.05v1.54l.15-.07c1.03-.5.13-2.04-.9-1.54l-.15.07c-.64.32-.5 1.2 0 1.54 3.5 2.35 6.99 4.7 10.47 7.06.27.18.63.13.9 0l8.86-4.43 14.11-7.05 3.24-1.62c.63-.32.52-1.2 0-1.54l-7.61-4.94c-.88-.58-1.77-1.3-2.71-1.77-.64-.3-1.42.25-2 .53l-18.91 9.15-6.2 3c-1.05.5-.14 2.04.89 1.54h.01Zm49.58-25.19 26.21-12.68 10.33 6.7-26.21 13.1-10.47-7.05.14-.07Z"/>
  <path fill="#81cff5" fill-rule="nonzero" d="m609.13 572.92 8.83-4.26 14.14-6.85c1.08-.51 2.16-1.04 3.23-1.56h-.9l10.33 6.7v-1.53l-8.86 4.42-14.12 7.06-3.23 1.61h.9l-10.47-7.05V573l.14-.07c1.04-.5.13-2.04-.9-1.54l-.14.07c-.64.32-.51 1.2 0 1.54l10.47 7.06c.27.18.62.13.9 0l8.85-4.43 14.12-7.05 3.24-1.62c.63-.32.52-1.2 0-1.54l-7.62-4.94c-.87-.58-1.76-1.3-2.7-1.77-.64-.3-1.42.25-2 .53l-18.92 9.15-6.2 3c-1.04.5-.13 2.04.9 1.54Zm53.6-27.32 15.65-7.56 10.32 6.7-26.21 13.1"/>
  <path fill="#81cff5" fill-rule="nonzero" d="M662.96 546c4.56-2.21 9.11-4.42 13.68-6.62l1.96-.96h-.45l10.32 6.7v-.77l-26.2 13.1c-.52.26-.07 1.03.45.77l26.2-13.1c.32-.15.27-.6 0-.77l-4.78-3.1-3.46-2.25c-.65-.42-1.31-.96-2.01-1.3-.4-.2-.72.04-1.08.22l-10 4.85-5.08 2.45c-.52.25-.07 1.02.45.78ZM475.75 416.74v12.52l-26.81 13.06v-12.4l26.8-13.18Z"/>
  <path fill="#81cff5" fill-rule="nonzero" d="M474.85 416.74v12.52l.44-.78-9.06 4.42-14.44 7.04-3.3 1.6 1.34.78v-12.4l-.44.76 9.07-4.45 14.44-7.1 3.3-1.61c1.03-.51.12-2.05-.9-1.55l-9.07 4.46-14.44 7.1-3.3 1.61a.91.91 0 0 0-.44.78v12.4c0 .72.75 1.06 1.35.78l9.06-4.42 14.44-7.04 3.3-1.6c.28-.14.44-.48.44-.78v-12.51c0-1.15-1.78-1.15-1.78 0Z"/>
  <path fill="#a1dbf8" fill-rule="nonzero" d="m464.13 410.2 11.62 6.54-26.81 13.17-12.53-6.21 27.72-13.5Z"/>
  <path fill="#a1dbf8" fill-rule="nonzero" d="m463.68 410.96 10.15 5.72 1.46.83v-1.54l-9.06 4.45-14.44 7.1-3.3 1.62h.9l-10.98-5.45-1.55-.77v1.54l9.39-4.57 14.88-7.26 3.45-1.67c1.03-.51.13-2.05-.9-1.55l-9.4 4.58-14.88 7.25-3.44 1.68c-.58.29-.58 1.26 0 1.54l8.42 4.18c1.31.65 2.61 1.32 3.93 1.95.7.34 1.16.05 1.78-.26l19.43-9.55 6.67-3.28c.6-.3.55-1.22 0-1.54l-10.15-5.72-1.46-.83c-1-.56-1.91.98-.9 1.55Z"/>
  <path fill="#81cff5" fill-rule="nonzero" d="M423.92 441.75v12.51l-26.8 13.06v-12.4l26.8-13.17Z"/>
  <path fill="#81cff5" fill-rule="nonzero" d="M423.03 441.75v12.51l.44-.77-9.07 4.41-14.44 7.04-3.3 1.61 1.35.77v-12.4l-.44.77 9.06-4.45 14.44-7.1 3.3-1.62c1.03-.5.13-2.05-.9-1.54l-9.06 4.45-14.44 7.1-3.3 1.62c-.28.14-.44.48-.44.77v12.41c0 .71.75 1.06 1.34.77l9.07-4.41 14.44-7.04 3.3-1.6a.94.94 0 0 0 .44-.78v-12.52c0-1.15-1.79-1.15-1.79 0Z"/>
  <path fill="#a1dbf8" fill-rule="nonzero" d="m412.3 435.2 11.62 6.55-26.8 13.17-12.53-6.22 27.72-13.5Z"/>
  <path fill="#a1dbf8" fill-rule="nonzero" d="m411.85 435.97 10.15 5.72 1.47.82v-1.54l-9.07 4.46-14.44 7.1-3.3 1.61h.9l-10.98-5.44-1.55-.77v1.54l9.4-4.57 14.88-7.26 3.44-1.68c1.04-.5.13-2.04-.9-1.54l-9.39 4.57-14.88 7.26-3.45 1.68c-.58.28-.57 1.25 0 1.54l8.43 4.18c1.3.65 2.6 1.31 3.92 1.95.7.34 1.16.05 1.78-.26l19.44-9.55 6.67-3.28c.6-.3.55-1.23 0-1.54l-10.15-5.72-1.47-.83c-1-.57-1.9.98-.9 1.54Z"/>
  <path fill="#81cff5" fill-rule="nonzero" d="M365.54 470.32v12.52l-26.8 13.06v-12.4l26.8-13.18Z"/>
  <path fill="#81cff5" fill-rule="nonzero" d="M364.65 470.32v12.52l.44-.77-9.06 4.41-14.44 7.04-3.3 1.6 1.34.78v-12.4l-.44.77 9.07-4.46 14.44-7.1 3.3-1.61c1.03-.5.12-2.05-.9-1.54l-9.07 4.45-14.44 7.1-3.3 1.62c-.27.13-.44.47-.44.77v12.4c0 .72.75 1.07 1.35.78l9.06-4.42 14.44-7.03 3.3-1.61c.28-.14.44-.48.44-.78v-12.5c0-1.16-1.78-1.16-1.78 0v-.02Z"/>
  <path fill="#a1dbf8" fill-rule="nonzero" d="m353.93 463.78 11.61 6.55-26.8 13.16-12.53-6.21 27.72-13.5Z"/>
  <path fill="#a1dbf8" fill-rule="nonzero" d="m353.48 464.54 10.15 5.72 1.46.83v-1.54l-9.07 4.45-14.43 7.1-3.3 1.62h.9l-10.98-5.45c-.52-.25-1.03-.5-1.55-.77v1.55l9.39-4.58 14.88-7.25 3.44-1.68c1.04-.5.14-2.04-.9-1.54l-9.38 4.57-14.89 7.26-3.44 1.68c-.59.28-.58 1.25 0 1.54l8.42 4.18c1.31.64 2.61 1.31 3.93 1.94.7.34 1.16.06 1.78-.25l19.43-9.55 6.67-3.28c.6-.3.55-1.23 0-1.54l-10.15-5.73-1.46-.82c-1-.57-1.91.97-.9 1.54Z"/>
  <path fill="#81cff5" fill-rule="nonzero" d="M303.6 500.69v12.51l-26.81 13.07v-12.41l26.8-13.17Z"/>
  <path fill="#81cff5" fill-rule="nonzero" d="M302.7 500.69v12.51l.44-.77-9.07 4.42-14.44 7.03-3.3 1.61 1.35.78v-12.41l-.44.77 9.07-4.45 14.44-7.1 3.3-1.62c1.03-.5.12-2.05-.9-1.54l-9.07 4.45-14.44 7.1-3.3 1.62a.9.9 0 0 0-.44.77v12.41c0 .72.75 1.06 1.35.78l9.06-4.42 14.44-7.04 3.3-1.6c.28-.14.44-.48.44-.78v-12.52c0-1.14-1.78-1.14-1.78 0h-.01Z"/>
  <path fill="#a1dbf8" fill-rule="nonzero" d="m291.98 494.14 11.61 6.55-26.8 13.17-12.53-6.22 27.72-13.5Z"/>
  <path fill="#a1dbf8" fill-rule="nonzero" d="m291.52 494.9 10.15 5.73c.5.27.98.55 1.47.83v-1.54l-9.07 4.45-14.44 7.1-3.3 1.61h.9l-10.97-5.44-1.55-.77v1.54l9.39-4.57 14.88-7.26 3.44-1.68c1.04-.5.14-2.04-.9-1.54l-9.38 4.57-14.89 7.26-3.44 1.68c-.59.28-.58 1.25 0 1.54l8.42 4.18c1.31.65 2.61 1.32 3.93 1.95.7.34 1.16.05 1.78-.26l19.43-9.55 6.67-3.28c.6-.3.55-1.23 0-1.54l-10.15-5.72-1.47-.83c-1-.57-1.9.98-.9 1.54Z"/>
  <path fill="#81cff5" fill-rule="nonzero" d="M251.77 526.29v12.51l-26.8 13.07v-12.41l26.8-13.17Z"/>
  <path fill="#81cff5" fill-rule="nonzero" d="M250.88 526.29v12.51l.44-.77-9.07 4.42-14.44 7.03-3.3 1.61 1.35.78v-12.41l-.44.77 9.06-4.45 14.44-7.1 3.3-1.62c1.03-.5.13-2.04-.9-1.54l-9.06 4.45-14.44 7.1-3.3 1.62c-.28.14-.44.48-.44.77v12.41c0 .72.75 1.06 1.34.78l9.07-4.42 14.44-7.04 3.3-1.6a.91.91 0 0 0 .44-.78v-12.52c0-1.14-1.79-1.14-1.79 0Z"/>
  <path fill="#a1dbf8" fill-rule="nonzero" d="m240.15 519.74 11.62 6.55-26.8 13.17-12.53-6.22 27.71-13.5Z"/>
  <path fill="#a1dbf8" fill-rule="nonzero" d="m239.7 520.5 10.15 5.73 1.47.83v-1.54l-9.07 4.45-14.44 7.1-3.3 1.61h.9l-10.98-5.44-1.55-.77V534l9.4-4.57 14.88-7.26 3.44-1.68c1.04-.5.13-2.04-.9-1.54l-9.39 4.57-14.88 7.26-3.45 1.68c-.58.29-.57 1.26 0 1.54l8.43 4.18c1.3.65 2.6 1.32 3.92 1.95.7.34 1.16.05 1.78-.26l19.43-9.55 6.68-3.28c.6-.3.55-1.22 0-1.54l-10.15-5.72-1.47-.83c-1-.56-1.9.98-.9 1.54Z"/>
  <path fill="#81cff5" fill-rule="nonzero" d="M194.58 553.68v12.51l-26.8 13.06v-12.4l26.8-13.17Z"/>
  <path fill="#81cff5" fill-rule="nonzero" d="M193.7 553.68v12.51l.43-.77-9.06 4.42-14.44 7.03-3.3 1.61 1.34.77v-12.4l-.44.77 9.07-4.45 14.44-7.1 3.3-1.62c1.03-.5.12-2.05-.9-1.54l-9.07 4.45-14.44 7.1-3.3 1.62c-.27.13-.44.47-.44.77v12.41c0 .71.75 1.06 1.35.77l9.06-4.41 14.44-7.04 3.3-1.6a.91.91 0 0 0 .44-.78v-12.52c0-1.15-1.78-1.15-1.78 0Z"/>
  <path fill="#a1dbf8" fill-rule="nonzero" d="m182.97 547.13 11.61 6.55-26.8 13.17-12.53-6.22 27.72-13.5Z"/>
  <path fill="#a1dbf8" fill-rule="nonzero" d="m182.52 547.9 10.15 5.72 1.46.82v-1.54l-9.06 4.46a3859.9 3859.9 0 0 0-14.44 7.1l-3.3 1.61h.9l-10.98-5.45-1.55-.76v1.54l9.39-4.57 14.88-7.26 3.45-1.68c1.03-.5.13-2.04-.9-1.54l-9.4 4.57-14.88 7.26-3.44 1.68c-.59.28-.58 1.25 0 1.54l8.42 4.18c1.31.65 2.61 1.31 3.93 1.94.7.34 1.16.06 1.78-.25l19.43-9.55 6.67-3.28c.6-.3.56-1.23 0-1.54l-10.15-5.73-1.46-.82c-1-.57-1.91.97-.9 1.54Z"/>
  <path fill="#81cff5" fill-rule="nonzero" d="M140.38 579.87v12.52l-26.8 13.06v-12.4l26.8-13.18Z"/>
  <path fill="#81cff5" fill-rule="nonzero" d="M139.48 579.87v12.52l.45-.78-9.07 4.42-14.44 7.04-3.3 1.6 1.35.78v-12.4l-.44.77 9.06-4.46c4.81-2.36 9.63-4.72 14.44-7.1l3.3-1.61c1.03-.5.13-2.05-.9-1.54l-9.06 4.45-14.44 7.1-3.3 1.61c-.28.14-.44.48-.44.78v12.4c0 .72.75 1.07 1.34.78l9.07-4.42 14.44-7.03 3.3-1.61a.91.91 0 0 0 .44-.78v-12.51c0-1.15-1.79-1.15-1.79 0Z"/>
  <path fill="#a1dbf8" fill-rule="nonzero" d="m128.76 573.32 11.62 6.55-26.8 13.17-12.54-6.21 27.72-13.5Z"/>
  <path fill="#a1dbf8" fill-rule="nonzero" d="m128.3 574.1 10.16 5.71 1.47.83v-1.54l-9.07 4.45-14.44 7.1-3.3 1.62h.9l-10.98-5.45-1.55-.77v1.54l9.39-4.57 14.89-7.26 3.44-1.67c1.04-.51.13-2.05-.9-1.55l-9.39 4.58-14.88 7.25-3.45 1.68c-.58.29-.58 1.26 0 1.55l8.43 4.17c1.3.65 2.6 1.32 3.92 1.95.7.34 1.16.05 1.78-.26l19.43-9.55 6.67-3.27c.61-.3.56-1.23 0-1.55l-10.15-5.72-1.46-.83c-1-.56-1.9.98-.9 1.55Zm296.92-175.18 11.2-5.3-28.5-17.15-10.8 5.53 28.1 16.92Z"/>
  <path fill="#a1dbf8" fill-rule="nonzero" d="m425.67 399.69 11.2-5.3c.62-.3.53-1.22 0-1.54l-15.9-9.57-12.31-7.4c-.31-.19-.58-.37-.98-.27-.35.09-.72.35-1.05.52l-9.97 5.1c-.61.31-.55 1.21 0 1.54l9.48 5.7c5.04 3.04 10.08 6.08 15.12 9.1l3.5 2.11c.99.6 1.89-.94.9-1.54l-9.48-5.7-15.12-9.1-3.5-2.11v1.54c3.6-1.85 7.21-3.68 10.8-5.53h-.9l9.62 5.79 15.34 9.23 3.54 2.13v-1.54l-11.2 5.3c-1.03.5-.12 2.03.9 1.54h.01Zm-57.04-35.31 11.2-5.3-28.5-17.14-10.8 5.53 28.1 16.91Z"/>
  <path fill="#a1dbf8" fill-rule="nonzero" d="m369.08 365.16 11.2-5.3c.62-.3.53-1.22 0-1.54l-15.9-9.57-12.31-7.4c-.31-.19-.58-.37-.98-.27-.35.09-.72.35-1.05.51l-9.97 5.1c-.61.32-.55 1.22 0 1.55l9.48 5.7 15.12 9.1 3.5 2.11c.99.6 1.89-.94.9-1.54l-9.48-5.7c-5.04-3.04-10.08-6.08-15.12-9.1l-3.5-2.11v1.54l10.8-5.53h-.9l9.62 5.78 15.34 9.24 3.54 2.13v-1.54l-11.2 5.3c-1.03.5-.12 2.03.9 1.54h.01Zm-68.51-41.02 11.47 6.9 11.2-5.3-16.85-10.13"/>
  <path fill="#a1dbf8" fill-rule="nonzero" d="m300.23 324.72 9.84 5.92c.52.31 1.02.67 1.55.94.47.23.8.02 1.23-.18l5.72-2.7c1.67-.8 3.33-1.59 5-2.37.47-.22.4-.92 0-1.16l-14.75-8.87-2.1-1.26c-.74-.45-1.42.7-.68 1.15l14.74 8.87 2.1 1.27v-1.16l-11.18 5.3h.67l-10.01-6.03-1.45-.87c-.74-.44-1.42.72-.68 1.16Zm-58.33-36.36 10.57 6.37 11.2-5.3-21.78-13.1"/>
  <path fill="#a1dbf8" fill-rule="nonzero" d="m241.55 288.94 9.4 5.66c.39.23.77.53 1.18.7.5.22 1.01-.15 1.45-.36l5.7-2.7 4.73-2.23c.47-.22.4-.92 0-1.16l-7.33-4.41-11.75-7.08-2.7-1.62c-.73-.45-1.4.72-.67 1.16l7.33 4.4 14.44 8.7v-1.15l-11.2 5.3h.69l-10.58-6.37c-.74-.45-1.42.71-.68 1.15v.01Zm492.11 56.1-12.5 5.72-20.84-12.5 12.5-5.73 20.84 12.5Z"/>
  <path fill="#a1dbf8" fill-rule="nonzero" d="m733.22 344.26-10.92 5-1.59.73h.9l-18.26-10.95-2.59-1.55v1.54l10.91-5 1.6-.73h-.9l18.25 10.95 2.6 1.55c.98.6 1.88-.95.9-1.54-4.7-2.8-9.38-5.62-14.06-8.43l-6.47-3.88c-.17-.1-.35-.23-.54-.28-.4-.1-.8.14-1.15.3l-3.73 1.7-8.3 3.81c-.64.3-.54 1.23 0 1.54l14.05 8.43 6.47 3.88c.17.1.35.24.54.28.4.11.79-.13 1.15-.3l3.73-1.7 8.3-3.8c1.05-.48.14-2.03-.9-1.55Z"/>
  <path fill="#81cff5" fill-rule="nonzero" d="m721.16 364.35-20.84-12.5v-13.59l20.84 12.5v13.59Z"/>
  <path fill="#81cff5" fill-rule="nonzero" d="M721.62 363.57c-6.1-3.64-12.17-7.3-18.26-10.94l-2.6-1.56.45.78v-13.59l-1.35.77 18.26 10.95 2.6 1.56-.45-.78v13.59c0 1.15 1.79 1.15 1.79 0v-12.49c0-.72.15-1.48-.54-1.93-1.85-1.2-3.8-2.28-5.7-3.41l-9.27-5.56-5.79-3.47c-.58-.36-1.34.1-1.34.77v12.48c0 .72-.15 1.5.54 1.94 1.84 1.2 3.8 2.27 5.69 3.41l9.27 5.56 5.8 3.47c.98.6 1.88-.95.9-1.54Z"/>
  <path fill="#a1dbf8" fill-rule="nonzero" d="m672.89 308.47 17.29 10.37-12.5 5.73-4.97-2.99"/>
  <path fill="#a1dbf8" fill-rule="nonzero" d="m672.66 308.86 15.14 9.07 2.15 1.3v-.78l-10.91 5-1.6.73h.46l-4.97-2.98c-.5-.3-.94.47-.45.77l3.7 2.22c.4.24.83.6 1.27.76.33.12.6-.07.9-.2l9.03-4.14 3.02-1.38c.32-.15.27-.62 0-.78l-15.13-9.08-2.15-1.29c-.5-.3-.94.48-.46.77Z"/>
  <path fill="#81cff5" fill-rule="nonzero" d="m672.81 321.65 4.87 2.92v13.58l-4.92-2.94"/>
  <path fill="#81cff5" fill-rule="nonzero" d="m672.6 322.03 4.86 2.92-.22-.39v13.59l.67-.39-4.91-2.95c-.5-.3-.94.48-.46.78l4.92 2.94c.3.18.67-.04.67-.38v-12.77c0-.25.05-.56 0-.82-.08-.43-.58-.6-.93-.82l-4.16-2.48c-.49-.3-.94.47-.45.77Z"/>
  <path fill="#a1dbf8" fill-rule="nonzero" d="m574.62 249.78-12.5 5.72-20.85-12.5 12.5-5.73 20.85 12.5Z"/>
  <path fill="#a1dbf8" fill-rule="nonzero" d="m574.17 249-10.91 5-1.6.73h.9l-18.25-10.95-2.6-1.55v1.54l10.92-5 1.59-.73h-.9L571.58 249l2.59 1.55c.99.6 1.89-.95.9-1.54-4.69-2.8-9.37-5.62-14.06-8.43l-6.47-3.88c-.17-.1-.34-.23-.54-.28-.4-.1-.79.14-1.15.3l-3.73 1.7-8.3 3.81c-.64.3-.53 1.23 0 1.54l14.05 8.43 6.47 3.89c.17.1.35.23.54.28.4.1.8-.14 1.15-.3l3.73-1.71 8.3-3.8c1.05-.48.14-2.02-.9-1.55Z"/>
  <path fill="#81cff5" fill-rule="nonzero" d="m562.12 269.09-20.85-12.5V243l20.85 12.5v13.59Z"/>
  <path fill="#81cff5" fill-rule="nonzero" d="m562.57 268.32-18.26-10.95-2.59-1.56.44.78V243l-1.34.77 18.25 10.95 2.6 1.56-.44-.78v13.59c0 1.15 1.78 1.15 1.78 0V256.6c0-.72.15-1.48-.54-1.93-1.85-1.2-3.8-2.27-5.69-3.41l-9.27-5.56-5.8-3.47c-.58-.35-1.34.1-1.34.77v12.49c0 .72-.15 1.48.54 1.93 1.85 1.2 3.8 2.27 5.7 3.41l9.26 5.56 5.8 3.47c.98.6 1.88-.95.9-1.54Z"/>
  <path fill="#a1dbf8" fill-rule="nonzero" d="m615.72 273.6-12.5 5.72-20.85-12.5 12.5-5.73 20.85 12.5Z"/>
  <path fill="#a1dbf8" fill-rule="nonzero" d="m615.27 272.82-10.91 5-1.6.72h.9l-18.25-10.94-2.6-1.56v1.54c3.65-1.66 7.28-3.33 10.92-5l1.6-.72h-.9l18.25 10.94 2.59 1.56c.99.6 1.89-.95.9-1.54l-14.06-8.43-6.47-3.88c-.16-.1-.34-.24-.53-.28-.4-.11-.8.13-1.15.3l-3.74 1.7-8.3 3.8c-.63.3-.53 1.23 0 1.55 4.69 2.8 9.37 5.62 14.06 8.43l6.47 3.88c.16.1.34.23.53.28.4.1.8-.14 1.15-.3l3.74-1.7 8.3-3.81c1.04-.48.14-2.02-.9-1.54Z"/>
  <path fill="#81cff5" fill-rule="nonzero" d="m603.22 292.9-20.85-12.5v-13.58l20.85 12.5v13.58Z"/>
  <path fill="#81cff5" fill-rule="nonzero" d="m603.67 292.13-18.25-10.95-2.6-1.55.44.77v-13.58l-1.34.77 18.26 10.95 2.59 1.55-.44-.77v13.58c0 1.15 1.78 1.15 1.78 0v-12.48c0-.72.15-1.49-.54-1.94-1.85-1.2-3.8-2.27-5.69-3.4l-9.27-5.57-5.8-3.47c-.58-.35-1.34.1-1.34.78v12.48c0 .72-.15 1.49.54 1.94 1.85 1.2 3.8 2.27 5.7 3.4l9.27 5.57 5.79 3.47c.99.6 1.89-.95.9-1.54Z"/>
  <path fill="#a1dbf8" fill-rule="nonzero" d="m536.5 226.56-12.5 5.72-20.85-12.5 12.5-5.73 20.84 12.5Z"/>
  <path fill="#a1dbf8" fill-rule="nonzero" d="m536.04 225.78-10.9 5-1.6.73h.9l-18.26-10.95-2.59-1.55v1.54l10.91-5 1.6-.73h-.9l18.25 10.95 2.6 1.55c.98.6 1.88-.95.9-1.54-4.7-2.8-9.38-5.62-14.06-8.43l-6.47-3.88c-.17-.1-.35-.23-.54-.28-.4-.1-.8.14-1.15.3l-3.73 1.7-8.3 3.81c-.64.3-.54 1.23 0 1.54l14.05 8.43 6.47 3.89c.17.1.35.23.54.28.4.1.79-.14 1.15-.3l3.73-1.71 8.3-3.8c1.05-.48.14-2.02-.9-1.55Z"/>
  <path fill="#81cff5" fill-rule="nonzero" d="m524 245.87-20.85-12.5v-13.59l20.85 12.5v13.6Z"/>
  <path fill="#81cff5" fill-rule="nonzero" d="m524.45 245.1-18.26-10.95-2.6-1.56.45.78v-13.59l-1.35.78c6.1 3.64 12.17 7.3 18.26 10.94l2.6 1.56-.45-.78v13.6c0 1.14 1.79 1.14 1.79 0v-12.5c0-.72.15-1.48-.54-1.93-1.85-1.2-3.8-2.27-5.7-3.41l-9.27-5.56-5.79-3.47c-.58-.35-1.34.1-1.34.77v12.49c0 .72-.15 1.48.54 1.93 1.84 1.2 3.8 2.28 5.69 3.41l9.27 5.56 5.8 3.47c.98.6 1.88-.95.9-1.54Z"/>
  <path fill="#a1dbf8" fill-rule="nonzero" d="m498.37 203.34-12.5 5.72-20.85-12.5 12.5-5.72 20.85 12.5Z"/>
  <path fill="#a1dbf8" fill-rule="nonzero" d="m497.92 202.56-10.91 5-1.6.73h.9l-18.25-10.95-2.6-1.55v1.54l10.92-5 1.6-.73h-.9l18.25 10.95 2.6 1.56c.98.6 1.88-.96.9-1.55-4.7-2.8-9.38-5.62-14.07-8.43l-6.47-3.88c-.16-.1-.34-.23-.53-.28-.4-.1-.8.14-1.15.3l-3.74 1.7-8.3 3.81c-.63.3-.53 1.23 0 1.54l14.06 8.43 6.47 3.89c.16.1.34.23.53.28.4.1.8-.14 1.15-.3l3.74-1.71 8.3-3.8c1.04-.48.14-2.02-.9-1.55Z"/>
  <path fill="#81cff5" fill-rule="nonzero" d="m485.87 222.65-20.85-12.5v-13.59l20.85 12.5v13.6Z"/>
  <path fill="#81cff5" fill-rule="nonzero" d="m486.32 221.88-18.25-10.95-2.6-1.56.45.78v-13.59l-1.35.78 18.26 10.95 2.59 1.55-.44-.77v13.58c0 1.15 1.78 1.15 1.78 0v-12.48c0-.72.15-1.5-.54-1.94-1.84-1.2-3.8-2.27-5.69-3.41l-9.27-5.56-5.8-3.47c-.57-.35-1.34.1-1.34.77v12.49c0 .72-.15 1.49.54 1.93 1.85 1.2 3.8 2.28 5.7 3.41 3.08 1.86 6.18 3.71 9.27 5.56l5.79 3.48c.99.6 1.89-.96.9-1.55Z"/>
  <path fill="#a1dbf8" fill-rule="nonzero" d="m456.07 177.74-12.5 5.72-20.84-12.5 12.5-5.73 20.84 12.5Z"/>
  <path fill="#a1dbf8" fill-rule="nonzero" d="m455.63 176.96-10.91 5-1.6.73h.9l-18.25-10.95-2.6-1.55v1.54l10.92-5 1.59-.73h-.9l18.26 10.95 2.59 1.56c.99.59 1.89-.96.9-1.55-4.69-2.8-9.37-5.62-14.06-8.43l-6.47-3.88c-.17-.1-.34-.23-.54-.28-.4-.1-.79.14-1.15.3l-3.73 1.7-8.3 3.81c-.63.3-.53 1.23 0 1.54l14.06 8.43 6.46 3.89c.17.1.35.23.54.28.4.1.8-.14 1.15-.3l3.73-1.71 8.3-3.8c1.05-.48.14-2.02-.9-1.55Z"/>
  <path fill="#81cff5" fill-rule="nonzero" d="m443.58 197.05-20.85-12.5v-13.59l20.85 12.5v13.59Z"/>
  <path fill="#81cff5" fill-rule="nonzero" d="m444.03 196.28-18.26-10.95-2.59-1.56.44.78v-13.59l-1.34.78 18.25 10.94 2.6 1.56-.45-.78v13.59c0 1.15 1.8 1.15 1.8 0v-12.48c0-.72.14-1.5-.55-1.94-1.85-1.2-3.8-2.27-5.69-3.41l-9.27-5.56-5.8-3.47c-.58-.35-1.34.1-1.34.77v12.49c0 .72-.15 1.49.54 1.93 1.85 1.2 3.8 2.28 5.7 3.41l9.27 5.56 5.79 3.47c.98.6 1.88-.95.9-1.54Z"/>
  <path fill="#a1dbf8" fill-rule="nonzero" d="m412 151.54-12.5 5.73-20.85-12.5 12.5-5.73 20.85 12.5Z"/>
  <path fill="#a1dbf8" fill-rule="nonzero" d="m411.55 150.77-10.91 5-1.6.72h.9l-18.25-10.95-2.6-1.55v1.54c3.65-1.66 7.28-3.33 10.92-5l1.59-.72h-.9l18.26 10.94 2.59 1.56c.99.6 1.89-.95.9-1.54l-14.06-8.43-6.47-3.89c-.17-.1-.35-.23-.54-.28-.4-.1-.79.14-1.15.3l-3.73 1.71-8.3 3.8c-.63.3-.53 1.23 0 1.55l14.05 8.43 6.47 3.88c.17.1.35.23.54.28.4.1.8-.14 1.15-.3l3.73-1.7 8.3-3.81c1.05-.48.14-2.02-.9-1.54Z"/>
  <path fill="#81cff5" fill-rule="nonzero" d="m399.5 170.85-20.85-12.5v-13.58l20.85 12.5v13.58Z"/>
  <path fill="#81cff5" fill-rule="nonzero" d="m399.95 170.08-18.26-10.95-2.59-1.55.44.77v-13.58l-1.34.77 18.25 10.95 2.6 1.55-.45-.77v13.58c0 1.15 1.8 1.15 1.8 0v-12.48c0-.72.14-1.49-.55-1.94-1.85-1.2-3.8-2.27-5.69-3.4l-9.27-5.57-5.8-3.47c-.58-.35-1.34.1-1.34.78v12.48c0 .72-.15 1.49.54 1.94 1.85 1.2 3.8 2.27 5.69 3.4l9.28 5.57 5.79 3.47c.98.6 1.88-.95.9-1.54v-.01Z"/>
  <path fill="#a1dbf8" fill-rule="nonzero" d="m365.53 122.96-12.5 5.73-20.84-12.5 12.5-5.73 20.84 12.5Z"/>
  <path fill="#a1dbf8" fill-rule="nonzero" d="m365.08 122.19-10.9 5-1.6.73h.9l-18.26-10.95-2.59-1.56v1.55l10.92-5 1.59-.73h-.9l18.25 10.95 2.6 1.55c.98.6 1.88-.95.9-1.54l-14.06-8.43-6.47-3.88c-.17-.1-.35-.24-.54-.28-.4-.11-.79.13-1.15.3l-3.73 1.7-8.3 3.8c-.64.3-.54 1.23 0 1.55l14.05 8.43 6.47 3.88c.17.1.35.23.54.28.4.1.79-.13 1.15-.3l3.73-1.7 8.3-3.8c1.05-.49.14-2.03-.9-1.55Z"/>
  <path fill="#81cff5" fill-rule="nonzero" d="m353.04 142.28-20.85-12.5v-13.6l20.85 12.51v13.59Z"/>
  <path fill="#81cff5" fill-rule="nonzero" d="m353.49 141.5-18.26-10.95-2.6-1.55.45.77V116.2l-1.35.77L350 127.91l2.6 1.55-.45-.77v13.59c0 1.15 1.79 1.15 1.79 0v-12.49c0-.72.15-1.49-.54-1.93-1.85-1.2-3.8-2.28-5.7-3.42l-9.27-5.56-5.79-3.47c-.58-.35-1.34.1-1.34.78v12.48c0 .72-.15 1.5.54 1.94 1.85 1.2 3.8 2.27 5.69 3.4l9.27 5.57 5.8 3.47c.98.6 1.88-.95.9-1.54Z"/>
  <path fill="#a1dbf8" fill-rule="nonzero" d="m318.47 94.39-12.5 5.72-20.84-12.5 12.5-5.73 20.84 12.5Z"/>
  <path fill="#a1dbf8" fill-rule="nonzero" d="m318.03 93.61-10.92 5-1.59.73h.9l-18.25-10.95-2.6-1.55v1.54l10.92-5 1.59-.73h-.9l18.26 10.95 2.59 1.55c.99.6 1.89-.95.9-1.54-4.7-2.8-9.37-5.62-14.06-8.43l-6.47-3.88c-.17-.1-.35-.23-.54-.28-.4-.1-.79.14-1.15.3l-3.73 1.7-8.3 3.81c-.64.3-.53 1.23 0 1.54l14.05 8.43 6.47 3.88c.17.1.35.24.54.28.4.11.79-.13 1.15-.3l3.73-1.7 8.3-3.8c1.05-.48.14-2.02-.9-1.55Z"/>
  <path fill="#81cff5" fill-rule="nonzero" d="m305.98 113.7-20.85-12.5V87.6l20.85 12.5v13.59Z"/>
  <path fill="#81cff5" fill-rule="nonzero" d="m306.43 112.92-18.26-10.94-2.59-1.56.44.78V87.6l-1.35.77 18.26 10.95 2.6 1.56-.45-.78v13.59c0 1.15 1.79 1.15 1.79 0V101.2c0-.72.15-1.48-.54-1.93-1.85-1.2-3.8-2.28-5.7-3.41l-9.27-5.56-5.79-3.47c-.58-.36-1.34.1-1.34.77v12.48c0 .72-.15 1.5.54 1.94 1.85 1.2 3.8 2.27 5.69 3.41l9.27 5.56 5.8 3.47c.98.6 1.88-.95.9-1.54Z"/>
  <path fill="#a1dbf8" fill-rule="nonzero" d="m274.99 68.19-12.5 5.73-20.85-12.32 12.5-5.91 20.85 12.5Z"/>
  <path fill="#a1dbf8" fill-rule="nonzero" d="m274.54 67.42-10.91 5-1.6.72h.9L244.7 62.37l-2.61-1.54v1.54l10.93-5.17 1.57-.75h-.9l18.25 10.95 2.6 1.56c.98.6 1.88-.96.9-1.54l-14.12-8.47-6.45-3.86c-.23-.14-.44-.3-.74-.3-.31 0-.68.24-.96.37l-3.7 1.75-8.29 3.92c-.62.3-.53 1.23 0 1.54l14.07 8.31 6.47 3.83c.21.12.4.25.64.28.35.05.72-.17 1.03-.31l3.74-1.71 8.3-3.8c1.04-.48.14-2.03-.9-1.55h.01Z"/>
  <path fill="#81cff5" fill-rule="nonzero" d="m262.5 87.5-20.26-11.9V62.2l20.25 11.72V87.5Z"/>
  <path fill="#81cff5" fill-rule="nonzero" d="M262.94 86.73 245.2 76.29l-2.5-1.47.44.78V62.2l-1.34.77 17.74 10.26 2.5 1.45-.43-.77V87.5c0 1.15 1.78 1.15 1.78 0V75.24c0-.72.19-1.66-.48-2.12-.53-.38-1.16-.67-1.73-1l-12.73-7.37-5.75-3.32a.9.9 0 0 0-1.35.77v12.19c0 .7-.17 1.57.51 2.01 1.75 1.14 3.62 2.13 5.42 3.18l9.12 5.37 5.65 3.32c1 .58 1.9-.96.9-1.54Z"/>
  <path fill="#021b44" fill-rule="nonzero" d="M241.13 58.76V75.6c0 .58.9.58.9 0V58.76c0-.57-.9-.57-.9 0Z"/>
  <path fill="#021b44" fill-rule="nonzero" d="M241.13 75.59v204.15c0 2.76-.04 5.52 0 8.28v.36c0 .58.9.58.9 0V84.23c0-2.76.04-5.52 0-8.28v-.36c0-.58-.9-.58-.9 0Zm0-25.76v8.93c0 .58.9.58.9 0v-8.93c0-.58-.9-.58-.9 0Z"/>
  <path fill="#021b44" fill-rule="nonzero" d="M241.13 23.12v26.7c0 .59.9.59.9 0v-26.7c0-.58-.9-.58-.9 0Z"/>
  <path fill="#d1a617" fill-rule="nonzero" d="m653 329.67 1.05 6.14 9.21 15.74s-2.4 12.33-15.73 13.01c-13.33.68-20.95-10.68-19.82-19.58 1.13-8.91 9.57-20.52 25.3-15.31Zm-374.5-59.48-.78 4.62-6.94 11.85s1.81 9.29 11.85 9.8c10.04.51 15.78-8.04 14.92-14.75-.84-6.7-7.2-15.44-19.05-11.52Z"/>
  <path fill="#057c75" fill-rule="nonzero" d="M128.09 405.76C111.37 383.8 53.14 315.61-.5 370.53l-.01 2.15c0 40.1 6.33 78.7 18.05 114.9a190.28 190.28 0 0 0 22.82 17.89c3.22-1.13 26.53 20.09 49.16-16.88 22.62-36.97 55.8-60.16 38.55-82.83Z"/>
  <path fill="#021b44" fill-rule="nonzero" d="m53.43 404.92.73 7.62 1.73 18.13 2.1 21.99 1.82 19.02c.3 3.06.45 6.18.88 9.24l.02.13c.04.4.6.64.83.22l6.54-11.89 10.35-18.8 2.4-4.36c.27-.5-.5-.95-.78-.45l-6.54 11.9-10.35 18.8-2.4 4.35.84.23-.73-7.62-1.73-18.13-2.1-21.99-1.82-19.02c-.3-3.07-.48-6.18-.88-9.24l-.01-.13c-.06-.56-.95-.57-.9 0Z"/>
  <path fill="#021b44" fill-rule="nonzero" d="M27.84 460.47s-.06-.03.07.02l.25.1c.3.13.59.28.88.44.92.48 1.81 1.02 2.7 1.56 2.73 1.63 5.41 3.33 8.09 5.04a1339.35 1339.35 0 0 1 21.1 13.8l-.22-.38v98.82c0 .58.9.58.9 0v-97.93c0-.53.11-1.02-.35-1.36-1.17-.85-2.41-1.6-3.62-2.4-5.14-3.4-10.3-6.79-15.49-10.12a453 453 0 0 0-7.86-4.97c-1.72-1.06-3.43-2.16-5.24-3.07-.36-.19-.78-.44-1.2-.45-.58-.02-.57.87 0 .89h-.01Zm635-160.24a17.73 17.73 0 0 1-34.7-3.7 17.87 17.87 0 0 1 5.85-14.44 17.92 17.92 0 0 1 18.78-3.11c.53.22.76-.64.24-.86a18.79 18.79 0 0 0-18.12 2.1 18.76 18.76 0 0 0-7.68 14.32 18.7 18.7 0 0 0 6.66 15 18.77 18.77 0 0 0 16.21 3.84 18.8 18.8 0 0 0 13.61-12.93c.16-.55-.7-.78-.86-.23Z"/>
  <path fill="#021b44" fill-rule="nonzero" d="M665 303.89a20.6 20.6 0 0 1-13.71 12.01 20.3 20.3 0 0 1-17.43-3.4 20.48 20.48 0 0 1-8.12-15.08 20.53 20.53 0 0 1 6.29-16 20.61 20.61 0 0 1 20.15-4.71c.56.16.8-.7.24-.87a21.5 21.5 0 0 0-19.41 3.55 21.41 21.41 0 0 0-8.19 15.95 21.41 21.41 0 0 0 7 16.62 21.46 21.46 0 0 0 17.48 5.25 21.5 21.5 0 0 0 16.56-13.09c.22-.53-.64-.76-.86-.24Z"/>
  <path fill="#021b44" fill-rule="nonzero" d="M665.86 304.15a28.38 28.38 0 0 0 1.87-7.67c.46-3.9.34-8.21-1.68-11.68-1.64-2.8-4-5.19-6.41-7.33a74.43 74.43 0 0 0-7.04-5.5c-1.3-.9-2.65-1.75-3.97-2.63-.48-.32-.93.45-.45.77 3.3 2.2 6.58 4.39 9.62 6.95a37.2 37.2 0 0 1 6.7 6.98c.79 1.14 1.5 2.37 1.89 3.7a21 21 0 0 1 .6 6.93c-.17 3.1-.78 6.37-2 9.25-.22.53.64.76.86.24Z"/>
  <path fill="#021b44" fill-rule="nonzero" d="M651.92 276.4c.7 2.01 1.14 4.1 1.36 6.22.07.76-.02 1.53.37 2.2l9.53 16.27 1.85 3.16c.3.5 1.06.05.78-.45l-4.85-8.28-6.35-10.84c-.09-.16-.24-.34-.3-.52-.13-.34-.07-.75-.1-1.14-.2-2.33-.65-4.64-1.43-6.85-.19-.54-1.05-.31-.86.24Z"/>
  <path fill="#021b44" fill-rule="nonzero" d="M673.21 335.03v-65.65c0-.45.05-.7-.27-1.05a75.73 75.73 0 0 0-1.9-2.03c-.28-.28-.47-.35-.85-.28-6.68 1.26-13.35 2.67-20.02 4l-.6.12c-.57.12-.33.98.23.87l18.3-3.66 2.55-.51-.43-.11 1.16 1.24.78.82c.06.06.15.2.22.24.3.16-.62-.05-.06-.24-.03.01 0 .54 0 .57v62.73c0 .93-.06 1.88 0 2.81v.13c0 .58.9.58.9 0Z"/>
  <path fill="#021b44" fill-rule="nonzero" d="M628.55 409.76v13.79c0 .23.2.46.45.44 4.95-.2 9.9-.4 14.86-.62l23.5-.98 5.4-.22c.25-.02.45-.2.45-.45v-83.17c0-1.12.07-2.26 0-3.37v-.15c0-.58-.9-.58-.9 0v85.36c0 .37-.06.82 0 1.18.02.05 0 .1 0 .15l.46-.45-14.87.62-23.5.98-5.4.23.44.45v-13.79c0-.57-.9-.57-.9 0Z"/>
  <path fill="#021b44" fill-rule="nonzero" d="M629 410.21c.57 0 .57-.9 0-.9-.58 0-.58.9 0 .9Zm-.45-50.93v7.13c0 .58.9.58.9 0v-7.13c0-.58-.9-.58-.9 0Z"/>
  <path fill="#021b44" fill-rule="nonzero" d="M629 359.72c.57 0 .57-.89 0-.89-.58 0-.58.9 0 .9Zm23.78-83.55a18.45 18.45 0 0 0-11-11.26 22.72 22.72 0 0 0-8.77-1.33c-2.15.26-4.4 1.18-6.34 2.13a20.84 20.84 0 0 0-4.91 3.32 20.5 20.5 0 0 0-5.48 8.55 29.61 29.61 0 0 0-1.07 13.91c.04.3.06.57.23.82.4.6.95 1.13 1.4 1.67l6.54 7.8c1.71 2.07 3.38 4.17 5.07 6.26l.14.21c-.13-.15-.03-.23-.05.08-.03.63 0 1.27 0 1.9v6.16c0 .58.9.58.9 0v-7.93c0-.62-.24-.9-.61-1.4-.75-.96-1.52-1.9-2.3-2.85a1089.32 1089.32 0 0 0-9.4-11.29l-.79-.93c-.06-.08-.13-.19-.21-.25-.16-.13.05-.1.04.1.02-.28-.1-.61-.15-.89a30.33 30.33 0 0 1 .22-9.7 22.02 22.02 0 0 1 3.53-8.64 19.8 19.8 0 0 1 9.03-6.89c1.42-.55 3.06-1.23 4.6-1.3 1.35-.05 2.72.06 4.06.27 5 .8 9.63 3.33 12.44 7.62.83 1.27 1.5 2.64 2.01 4.07.2.54 1.06.3.86-.24l.01.03Z"/>
  <path fill="#021b44" fill-rule="nonzero" d="M635.53 364.82a20.6 20.6 0 0 1-9.65-20.12 20.57 20.57 0 0 1 12.56-16.22 20.72 20.72 0 0 1 13.76-.57c.55.16.78-.7.23-.87a21.52 21.52 0 0 0-22.24 6.2 21.03 21.03 0 0 0-3.86 22 21.6 21.6 0 0 0 8.76 10.35c.49.3.94-.47.45-.78Z"/>
  <path fill="#021b44" fill-rule="nonzero" d="M635.3 365.65c.59 0 .59-.89 0-.89-.57 0-.57.9 0 .9ZM665 355.1a20.63 20.63 0 0 1-19.86 12.65c-.58-.02-.57.87 0 .9 9 .36 17.3-5 20.73-13.32.22-.53-.65-.76-.87-.24Z"/>
  <path fill="#021b44" fill-rule="nonzero" d="M665.86 355.35a28.38 28.38 0 0 0 1.87-7.67c.46-3.9.34-8.21-1.68-11.68-1.64-2.8-4-5.19-6.41-7.33a74.61 74.61 0 0 0-7.04-5.5c-1.3-.9-2.65-1.75-3.97-2.63-.48-.32-.93.45-.45.78 3.3 2.2 6.58 4.38 9.62 6.94a37.2 37.2 0 0 1 6.7 6.98 13 13 0 0 1 1.89 3.71c.64 2.2.73 4.63.6 6.92-.17 3.1-.78 6.37-2 9.25-.22.53.64.76.86.24Z"/>
  <path fill="#021b44" fill-rule="nonzero" d="M651.92 327.6c.7 2.01 1.14 4.1 1.36 6.22.07.77-.02 1.53.37 2.2l9.53 16.27 1.85 3.16c.3.5 1.06.05.78-.45l-4.85-8.28-6.35-10.84c-.09-.16-.24-.34-.3-.52-.13-.34-.07-.74-.1-1.14-.2-2.33-.65-4.64-1.43-6.85-.19-.53-1.05-.3-.86.24Z"/>
  <path fill="#021b44" fill-rule="nonzero" d="M629.42 359.16c-.16-.5-.64-.95-.95-1.35a1016.21 1016.21 0 0 0-8.24-9.99c-1.34-1.59-2.62-3.25-4.02-4.78-.22-.24-.03-.14-.03 0 0-.08-.04-.18-.05-.26-.06-.5-.13-.86-.19-1.35-.47-4.4-.1-8.99 1.47-13.14a19.34 19.34 0 0 1 4.87-7.33 22.36 22.36 0 0 1 9.94-5.1c2.2-.54 4.7-.15 6.87.37a17.58 17.58 0 0 1 11.06 7.69 20.1 20.1 0 0 1 1.77 3.68c.2.54 1.06.3.86-.23-1.71-4.73-5-8.6-9.63-10.7-2.95-1.33-6.26-2-9.5-1.93-1.26.03-2.49.44-3.67.83a24.4 24.4 0 0 0-5.22 2.39 19.72 19.72 0 0 0-6.71 6.9c-2.56 4.43-3.4 9.7-3.15 14.76.06 1.15.07 2.47.4 3.58.08.27.26.45.45.67l1.82 2.17c2.03 2.4 4.04 4.82 6.05 7.24 1.58 1.9 3.2 3.78 4.68 5.76l.2.28c.05.06.13.24.07.06.18.55 1.04.31.86-.23Zm33.42 42.28a17.89 17.89 0 0 1-11.09 11.75 17.89 17.89 0 0 1-15.77-1.95c-4.52-3-7.48-8.07-7.84-13.5a17.91 17.91 0 0 1 5.85-14.44 17.92 17.92 0 0 1 18.78-3.1c.53.21.76-.65.24-.87a18.79 18.79 0 0 0-18.12 2.1 18.76 18.76 0 0 0-7.68 14.33 18.7 18.7 0 0 0 6.66 15 18.77 18.77 0 0 0 16.21 3.84 18.8 18.8 0 0 0 13.61-12.93c.16-.56-.7-.79-.86-.24v.01Z"/>
  <path fill="#021b44" fill-rule="nonzero" d="M665 405.1a20.6 20.6 0 0 1-13.71 12.02 20.58 20.58 0 0 1-17.43-3.42 20.48 20.48 0 0 1-8.12-15.06 20.53 20.53 0 0 1 6.29-16 20.61 20.61 0 0 1 20.15-4.72c.56.16.8-.7.24-.87a21.5 21.5 0 0 0-19.41 3.55 21.41 21.41 0 0 0-8.19 15.95 21.41 21.41 0 0 0 7 16.62 21.64 21.64 0 0 0 17.48 5.26 21.5 21.5 0 0 0 16.56-13.1c.22-.53-.64-.76-.86-.23Z"/>
  <path fill="#021b44" fill-rule="nonzero" d="M665.86 405.36a28.38 28.38 0 0 0 1.87-7.66c.46-3.9.34-8.22-1.68-11.7-1.64-2.8-4-5.18-6.41-7.32a74.61 74.61 0 0 0-7.04-5.49c-1.3-.9-2.65-1.76-3.97-2.64-.48-.32-.93.45-.45.78 3.3 2.2 6.58 4.38 9.62 6.94a37.2 37.2 0 0 1 6.7 6.98 13 13 0 0 1 1.89 3.71c.64 2.21.73 4.63.6 6.92-.17 3.1-.78 6.37-2 9.25-.22.53.64.76.86.24Z"/>
  <path fill="#021b44" fill-rule="nonzero" d="M651.92 377.62c.7 2 1.14 4.1 1.36 6.21.07.77-.02 1.53.37 2.2l9.53 16.27 1.85 3.17c.3.49 1.06.04.78-.46l-4.85-8.28-6.35-10.83c-.09-.17-.24-.35-.3-.53-.13-.34-.07-.74-.1-1.14-.2-2.33-.65-4.64-1.43-6.85-.19-.53-1.05-.3-.86.24Z"/>
  <path fill="#021b44" fill-rule="nonzero" d="M644.84 368.6a17.49 17.49 0 0 1 7.08 9.03c.2.53 1.06.3.86-.24a18.51 18.51 0 0 0-7.49-9.55c-.49-.31-.93.46-.45.77Z"/>
  <path fill="#021b44" fill-rule="nonzero" d="M629.1 366.84c1.29-.48 2.7-1.02 4.06-1.16.75-.08 1.53-.03 2.27.02a20.6 20.6 0 0 1 9.4 2.9c.5.31.94-.46.46-.77a21.52 21.52 0 0 0-9.7-3.01c-.8-.06-1.64-.1-2.44-.04-1.44.13-2.93.7-4.27 1.2-.54.2-.3 1.06.23.86Z"/>
  <path fill="#021b44" fill-rule="nonzero" d="M629.42 409.17c-.1-.29-.32-.54-.5-.78l-1.24-1.56a1938.3 1938.3 0 0 0-11.16-13.41c-.1-.13-.2-.27-.33-.39-.2-.2 0-.16 0 .05 0-.14-.06-.3-.09-.44a30.9 30.9 0 0 1-.3-2.93c-.19-3.73.22-7.54 1.49-11.06a19.77 19.77 0 0 1 11.82-11.81c.53-.2.3-1.07-.23-.87-5 1.9-9.16 5.36-11.51 10.2a27.1 27.1 0 0 0-2.5 11.85c0 1.32.08 2.64.25 3.95.06.5.05 1.13.33 1.55.57.85 1.36 1.62 2.02 2.4l4.05 4.84a729.72 729.72 0 0 1 6.4 7.78l.47.62c.06.07.25.43.18.25.19.54 1.05.3.87-.24h-.02Zm23.01-136.42 17.45-2.52c.13-.02.34 0 .46-.06.1-.05-.41-.19-.07.05.7.49 1.52.85 2.27 1.26.5.28.96-.5.46-.77l-2.01-1.11c-.35-.2-.57-.33-.96-.28-1.12.12-2.23.32-3.34.48l-11.52 1.65-2.97.43c-.57.09-.33.94.23.87Z"/>
  <path fill="#021b44" fill-rule="nonzero" d="M670.09 266.41v149.1c0 2-.04 4.02 0 6.04v.26c0 .58.89.58.89 0V272.7c0-2 .03-4.02 0-6.04v-.26c0-.58-.9-.58-.9 0Z"/>
  <path fill="#021b44" fill-rule="nonzero" d="m628.56 423.66 1.2 3.2c.07.18.22.32.43.32h41.17c.2 0 .37-.14.43-.33l1.4-5.02c.16-.55-.7-.79-.86-.24l-1.4 5.02.42-.33h-41.17l.43.33-1.2-3.19c-.2-.53-1.06-.3-.86.24h.01Z"/>
  <path fill="#021b44" fill-rule="nonzero" d="M645.9 566.48V432.4c0-1.8.04-3.63 0-5.44v-.23c0-.58-.9-.58-.9 0V560.8c0 1.81-.03 3.63 0 5.44v.24c0 .57.9.57.9 0Z"/>
  <path fill="#021b44" fill-rule="nonzero" d="M645.9 625.12v-56.25c0-.75.07-1.54 0-2.29v-.1c0-.57-.9-.57-.9 0v56.25c0 .75-.06 1.54 0 2.29v.1c0 .58.9.58.9 0Zm17.27-67.06V432.09c0-1.7.04-3.42 0-5.13v-.22c0-.58-.89-.58-.89 0V552.7c0 1.7-.03 3.42 0 5.13v.22c0 .58.9.58.9 0Z"/>
  <path fill="#021b44" fill-rule="nonzero" d="M663.17 605.1v-47.04c0-.58-.89-.58-.89 0v47.04c0 .58.9.58.9 0ZM270.44 248.68a14.05 14.05 0 0 0 8.45 9.11c4.08 1.54 8.9 1 12.55-1.44a13.7 13.7 0 0 0 6.13-10.39 14 14 0 0 0-4.5-11.4 14 14 0 0 0-14.65-2.52c-.52.22-.3 1.08.24.86 4.14-1.7 8.9-1.25 12.57 1.33a13.03 13.03 0 0 1 5.48 9.97 13.17 13.17 0 0 1-4.57 10.51 13.11 13.11 0 0 1-11.33 2.74 13.1 13.1 0 0 1-9.5-9.01c-.17-.55-1.03-.32-.87.24Z"/>
  <path fill="#021b44" fill-rule="nonzero" d="M268.84 251.38a16.04 16.04 0 0 0 10.4 9.34 15.8 15.8 0 0 0 13.65-2.46 15.62 15.62 0 0 0 6.44-11.54 16.1 16.1 0 0 0-4.8-12.64 16.01 16.01 0 0 0-15.68-3.73c-.55.17-.32 1.03.24.87 4.66-1.4 9.76-.54 13.62 2.45a15.04 15.04 0 0 1 5.77 11.18 15.01 15.01 0 0 1-4.79 11.59 15.22 15.22 0 0 1-12.32 3.81 15.11 15.11 0 0 1-11.67-9.12c-.2-.52-1.08-.29-.86.24v.01Z"/>
  <path fill="#021b44" fill-rule="nonzero" d="M269.71 251.16a20.5 20.5 0 0 1-1.37-5.6c-.32-2.8-.22-5.84 1.28-8.31 2.3-3.75 6.13-6.63 9.7-9.1.9-.62 1.83-1.2 2.75-1.81.48-.32.03-1.1-.45-.78a78.7 78.7 0 0 0-7.45 5.4 26.66 26.66 0 0 0-5.07 5.43c-1.56 2.37-1.9 5.15-1.76 7.95a21.7 21.7 0 0 0 1.5 7.06c.23.52 1.1.29.87-.24Z"/>
  <path fill="#021b44" fill-rule="nonzero" d="M278.5 230.68c-.5 1.41-.8 2.87-.99 4.35-.07.6.06 1.2-.24 1.71l-7.03 12.01-1.35 2.3c-.29.5.49.95.78.46l8.28-14.14c.2-.36.3-.52.34-.97.15-1.87.45-3.7 1.08-5.48.19-.55-.68-.78-.87-.24Zm-14.2 14.8v-19.31c0-.06.05-.89 0-.9.08.03-.3.5.12.06l.53-.57.88-.93-.44.11 13.48 2.7 1.9.38c.57.11.81-.75.25-.86l-7.33-1.47-5.3-1.06c-.88-.17-1.82-.47-2.72-.54-.52-.04-.78.43-1.1.78-.36.37-1.06.87-1.15 1.4-.12.64 0 1.4 0 2.03v18.18c0 .58.89.58.89 0Z"/>
  <path fill="#021b44" fill-rule="nonzero" d="M264.3 245.87v-.39a.43.43 0 0 0-.03-.17.32.32 0 0 0-.1-.14.47.47 0 0 0-.14-.1.3.3 0 0 0-.17-.03l-.12.02a.47.47 0 0 0-.2.1l-.07.1a.43.43 0 0 0-.06.22v.39c0 .05.02.11.04.17.02.05.05.1.1.14a.5.5 0 0 0 .14.1.3.3 0 0 0 .17.03l.12-.02a.46.46 0 0 0 .2-.11l.07-.09a.43.43 0 0 0 .06-.22Z"/>
  <path fill="#021b44" fill-rule="nonzero" d="M295.73 329.33v10.17l.44-.44-10.89-.46-17.44-.72-3.98-.17.45.45v-88.54c0-1.2.06-2.41 0-3.6v-.16c0-.57-.9-.57-.9 0v88.55c0 1.19-.06 2.4 0 3.6v.15c0 .25.2.43.45.44l10.9.46 17.43.72 3.98.17c.25.01.45-.21.45-.45v-10.17c0-.58-.9-.58-.9 0Z"/>
  <path fill="#021b44" fill-rule="nonzero" d="M296.17 329.78c.58 0 .58-.9 0-.9s-.58.9 0 .9Zm-.44-37.72v5.27c0 .58.89.58.89 0v-5.27c0-.58-.9-.58-.9 0Z"/>
  <path fill="#021b44" fill-rule="nonzero" d="M296.17 292.5c.58 0 .58-.89 0-.89s-.58.9 0 .9Zm-16.81-61.58c1.45-3.97 4.5-6.9 8.56-8.09 1.96-.58 4.17-.94 6.17-.41 2.93.77 5.7 2.2 7.76 4.46 1.63 1.78 2.71 4 3.33 6.33a23.3 23.3 0 0 1 .52 7.84c-.04.38-.16.7-.15 1.08 0 .18-.1.15.09-.06l-.27.31-1.56 1.86a652.4 652.4 0 0 0-6.98 8.44c-.33.4-.79.84-1.01 1.32-.26.55-.08 1.44-.08 2.03v4.38c0 .58.9.58.9 0v-2.63c0-1.1.1-2.25 0-3.33-.03-.25.08-.15-.05 0 .04-.05.07-.13.12-.18.19-.21.35-.46.53-.68.65-.83 1.33-1.65 2-2.47 1.7-2.06 3.42-4.11 5.14-6.17l1.62-1.93c.17-.2.34-.37.42-.63.3-1 .28-2.2.3-3.22.06-2-.12-4.03-.6-5.98a16.16 16.16 0 0 0-3.25-6.53 16.04 16.04 0 0 0-7.39-4.78 9.9 9.9 0 0 0-2.92-.62c-1.17 0-2.35.12-3.5.35-3.7.75-7.03 2.81-9.07 6.03-.61.95-1.07 1.98-1.46 3.03-.2.54.67.77.86.24l-.03.01Z"/>
  <path fill="#021b44" fill-rule="nonzero" d="M291.74 296.82a16 16 0 0 0 7.49-15.71 15.95 15.95 0 0 0-9.67-12.47c-3.4-1.4-7.2-1.54-10.72-.48-.54.16-.31 1.03.24.86a15.1 15.1 0 0 1 15.56 4.26 14.78 14.78 0 0 1 2.85 15.38 15.14 15.14 0 0 1-6.2 7.4c-.5.3-.05 1.07.45.77Z"/>
  <path fill="#021b44" fill-rule="nonzero" d="M291.51 296.89c.58 0 .58-.9 0-.9s-.58.9 0 .9Zm-22.67-7.71a16.04 16.04 0 0 0 15.42 9.91c.57-.02.58-.92 0-.9a15.13 15.13 0 0 1-14.56-9.25c-.2-.52-1.08-.3-.86.24Z"/>
  <path fill="#021b44" fill-rule="nonzero" d="M269.71 288.96a20.51 20.51 0 0 1-1.37-5.61c-.32-2.8-.22-5.84 1.28-8.3 2.3-3.76 6.13-6.64 9.7-9.1.9-.62 1.83-1.2 2.75-1.82.48-.31.03-1.09-.45-.77a78.7 78.7 0 0 0-7.45 5.4 26.66 26.66 0 0 0-5.07 5.43c-1.56 2.37-1.9 5.14-1.76 7.94.13 2.37.58 4.86 1.5 7.06.23.52 1.1.3.87-.24Z"/>
  <path fill="#021b44" fill-rule="nonzero" d="M278.5 268.48c-.5 1.4-.8 2.87-.99 4.35-.07.6.06 1.2-.24 1.7l-1.73 2.95-5.3 9.07-1.35 2.3c-.29.5.49.95.78.45l8.28-14.14c.2-.35.3-.52.34-.96.15-1.88.45-3.71 1.08-5.5.19-.53-.68-.77-.87-.23Z"/>
  <path fill="#021b44" fill-rule="nonzero" d="M296.6 292.18c-.06.18.14-.16.2-.23a171.77 171.77 0 0 1 2.43-3.01c1.53-1.88 3.08-3.73 4.64-5.6.78-.91 1.74-1.82 2.4-2.84.35-.55.3-1.46.36-2.09.31-3.53-.12-7.2-1.58-10.45a14.68 14.68 0 0 0-7.75-7.57 15.16 15.16 0 0 0-4.08-1.29 14.7 14.7 0 0 0-6.5.99 13.75 13.75 0 0 0-8.21 8.39c-.2.54.67.77.86.24a12.8 12.8 0 0 1 7.58-7.77c1.88-.7 4.08-1.15 6.1-.97 1.08.1 2.23.56 3.25.95a15.5 15.5 0 0 1 3.59 1.97 13.89 13.89 0 0 1 4.23 5.15c1.5 3.12 1.91 6.73 1.64 10.15-.05.66-.22 1.23-.23 1.86 0-.21.18-.24 0-.05-.18.18-.33.39-.49.57l-1.54 1.83a770.3 770.3 0 0 0-4.9 5.89c-.66.8-1.33 1.61-1.98 2.43-.28.36-.7.76-.87 1.21-.2.54.67.77.87.24h-.01Zm-26.16 31.22a14.05 14.05 0 0 0 8.45 9.1 13.97 13.97 0 0 0 12.55-1.43 13.7 13.7 0 0 0 6.13-10.4 14 14 0 0 0-4.5-11.4 14 14 0 0 0-14.65-2.51c-.52.21-.3 1.08.24.86 4.14-1.7 8.9-1.25 12.57 1.33a13.02 13.02 0 0 1 5.48 9.97 13.17 13.17 0 0 1-4.57 10.51 13.11 13.11 0 0 1-11.33 2.73 13.1 13.1 0 0 1-9.5-9c-.17-.55-1.03-.32-.87.23Z"/>
  <path fill="#021b44" fill-rule="nonzero" d="M268.84 326.1a16.04 16.04 0 0 0 10.4 9.34 15.8 15.8 0 0 0 13.65-2.47 15.62 15.62 0 0 0 6.44-11.54 16.1 16.1 0 0 0-4.8-12.64 16.01 16.01 0 0 0-15.68-3.72c-.55.17-.32 1.03.24.86 4.66-1.4 9.76-.53 13.62 2.45a15.04 15.04 0 0 1 5.77 11.19 15.01 15.01 0 0 1-4.79 11.58 15.22 15.22 0 0 1-12.32 3.82 15.11 15.11 0 0 1-11.67-9.12c-.2-.53-1.08-.3-.86.24Z"/>
  <path fill="#021b44" fill-rule="nonzero" d="M269.71 325.88a20.5 20.5 0 0 1-1.37-5.61c-.32-2.8-.22-5.84 1.28-8.3 2.3-3.76 6.13-6.64 9.7-9.1.9-.62 1.83-1.2 2.75-1.82.48-.32.03-1.09-.45-.78a78.99 78.99 0 0 0-7.45 5.41 26.7 26.7 0 0 0-5.07 5.42c-1.56 2.37-1.9 5.15-1.76 7.95.13 2.37.58 4.86 1.5 7.06.23.52 1.1.29.87-.24Z"/>
  <path fill="#021b44" fill-rule="nonzero" d="M278.5 305.4c-.5 1.4-.8 2.87-.99 4.35-.07.6.06 1.2-.24 1.7l-8.38 14.32c-.29.5.49.95.78.45l8.28-14.14c.2-.36.3-.52.34-.96.15-1.88.45-3.71 1.08-5.5.19-.53-.68-.77-.87-.23Z"/>
  <path fill="#021b44" fill-rule="nonzero" d="M284.08 298.27a13.78 13.78 0 0 0-5.58 7.13c-.2.54.67.77.87.23.97-2.7 2.71-5.04 5.17-6.58.48-.3.03-1.08-.46-.78Z"/>
  <path fill="#021b44" fill-rule="nonzero" d="M296.3 296.9c-1-.37-2.11-.8-3.18-.9-.6-.05-1.2-.01-1.8.03-2.55.19-5.05.9-7.23 2.25-.5.3-.05 1.07.45.77a15.14 15.14 0 0 1 6.9-2.13 9.1 9.1 0 0 1 1.65-.02c1 .11 2.03.5 2.97.86.54.2.77-.66.24-.87Z"/>
  <path fill="#021b44" fill-rule="nonzero" d="M296.6 329.1c-.06.18.05-.05.09-.1l.28-.38 1.04-1.3c1-1.23 2.01-2.44 3.03-3.66 1.7-2.04 3.42-4.06 5.1-6.1.25-.3.28-.53.34-.9.12-.86.2-1.73.23-2.6.1-2.89-.3-5.86-1.4-8.55a15.44 15.44 0 0 0-9.02-8.61c-.54-.2-.77.66-.24.86a14.49 14.49 0 0 1 8.25 7.62 19.63 19.63 0 0 1 1.52 8.43c-.02.83-.08 1.73-.19 2.52-.02.15-.13.44-.1.59.03.1.21-.23-.01.01-1.72 1.84-3.26 3.88-4.87 5.81a425.43 425.43 0 0 0-3.34 4.05c-.49.6-1.29 1.32-1.56 2.07-.2.55.67.78.86.24Zm-17.52-101.67-13-1.87c-.88-.13-1.7.6-2.44 1.01-.5.28-.06 1.05.45.78l1.46-.81c.03-.02.3-.14.31-.17.03-.11-.29 0-.28.02 0 .02.2.03.21.03.88.18 1.79.26 2.67.38l8.26 1.2 2.13.3c.56.08.8-.79.24-.87Z"/>
  <path fill="#021b44" fill-rule="nonzero" d="M265.06 223.5v110.06c0 1.49-.04 2.98 0 4.47v.19c0 .58.9.58.9 0V228.17c0-1.49.03-2.98 0-4.47v-.2c0-.57-.9-.57-.9 0Z"/>
  <path fill="#021b44" fill-rule="nonzero" d="m295.74 339.38-.88 2.36.43-.33h-30.4l.43.33-1.04-3.7c-.15-.55-1.01-.32-.86.24l1.04 3.7c.05.2.23.33.43.33h30.4c.2 0 .36-.14.42-.33l.88-2.36c.2-.54-.66-.77-.86-.24h.01Z"/>
  <path fill="#021b44" fill-rule="nonzero" d="M283.57 429.82v57.52c0 .24-.09.69 0 .91.06.13.15-.15.02-.1-.15.06-.32.42-.45.55-2.3 2.48-6 2.5-9.06 1.67a7.84 7.84 0 0 1-2.6-1.14l.23.4V348.54c0-2.13.03-4.27 0-6.4v-.28c0-.58-.9-.58-.9 0v145.81c0 .6-.04 1.23 0 1.83.06.81 1.33 1.2 1.96 1.42 2.88.97 6.19 1.34 8.98-.07a7.12 7.12 0 0 0 2.02-1.5c.23-.24.57-.57.67-.91.13-.43.02-1.01.02-1.45v-57.15c0-.58-.9-.58-.9 0l.01-.03Z"/>
  <path fill="#021b44" fill-rule="nonzero" d="M283.57 341.86v84.37c0 1.15-.06 2.31 0 3.45v.14c0 .58.9.58.9 0v-84.37c0-1.14.06-2.3 0-3.44v-.15c0-.57-.9-.57-.9 0Z"/>
</svg>
